<svg xmlns="http://www.w3.org/2000/svg" viewBox="0 0 24.99 19.24"><g id="Layer_2" data-name="Layer 2"><g id="Layer_1-2" data-name="Layer 1"><g id="crack1"><path d="M23.82,13.34l.07-.09h0v-.16h0l-.05.14-.17-.35-.2.06.14.13L23.32,13a1.41,1.41,0,0,0,0,.29.17.17,0,0,1,.13.06l-.12.18H23.2a.14.14,0,0,0,0,.09c.09,0,.09.08.07.15a.15.15,0,0,0,0,.2l.14-.22c0,.2,0,.2-.11.26v.39c-.06,0-.11-.15-.16,0s.06,0,.07,0,0,.06,0,.06-.16.17-.29,0v.25h0v-.15h0v.28l-.13-.13v.18l-.15.08v-.1a.07.07,0,0,0,0,.11l0,0,.1.09-.21.14c-.06,0-.12.13-.16.12s-.12.08-.19.16v-.26l-.21.13h0v.11l-.15-.11v.25h-.05c0-.08,0-.15-.1-.14s0-.06,0-.06a3.74,3.74,0,0,1,.24-.33c.09-.1,0-.07,0-.1l-.06.05-.06.09h-.16a.21.21,0,0,0-.1.13.22.22,0,0,0,0,.16l-.13.12v-.1c-.09.08-.09.08-.1.2s0,0,0,.06a.43.43,0,0,0,0,.16s-.1.09,0,.13a.26.26,0,0,0,0,.24h.07a.11.11,0,0,0,0-.08c.07.06.06.09,0,.15a.22.22,0,0,0,0,.16v.12a.74.74,0,0,1,0,.21l-.08-.21h0v.07h-.12s0,.07,0,.08l0,.26h.13l-.1.09h0v.27a.24.24,0,0,0,.06.09h.09c.09,0,0,.06,0,.08v.21s-.16.13-.09.25,0,.06,0,.1-.13-.07-.16,0,0,.2-.08.3,0,.1,0,.16h-.08l-.1.28h.09l-.13.07h.11s-.06.13-.15.08h0l-.14.09h0l.06-.17h0l-.51.1c0-.09,0-.13-.1-.16s-.17-.23,0-.38h-.23l-.08.13-.13.09v-.06s0-.21.11-.26c-.1,0-.12.07-.15.15s0,0-.06.06,0,0,0-.06a.17.17,0,0,0-.16-.17h0v-.26c.16,0,0,.18.15.22V18c-.06,0-.13.11-.13,0s-.07-.08-.1-.13h0v-.19a.37.37,0,0,1,.07-.12h0v-.11c-.12,0-.18.11-.13.25s0,.11,0,.11-.1.06-.11.14c-.09-.14.11-.17.06-.28l-.18-.06-.1-.29.11-.13-.05-.06V17h0a2.18,2.18,0,0,1-.11.27.17.17,0,0,0,0,.23l.09.13-.11-.11-.09.07-.07-.09-.09.11.19,0v.21h0l.12-.1h0c-.06,0,0,.2-.18.15v-.07l-.14.07v-.12h0v.12a.07.07,0,0,0,.12.05l.06-.06v.18h-.26V18s-.06-.08-.11-.15l-.09.23c-.07,0,0-.09,0-.14l.22-.26a1.21,1.21,0,0,0-.19.1l.08-.2c-.08,0-.08,0-.11.09H18l-.09-.13-.1.15-.09.06v-.09l-.28.26-.05-.11h0l.11-.16h-.06c0-.12-.08-.16-.14-.14a1.59,1.59,0,0,1-.13.22H17l.05.08h0l-.14-.12-.06.12h0l-.16.24h0a.81.81,0,0,0-.22,0l-.1.15a.8.8,0,0,1-.15-.21.23.23,0,0,1,.17-.28h.09v.08l.17.11a.21.21,0,0,1,0-.11.67.67,0,0,1,0-.2l.2.1-.06-.13h0v.05l.09-.14-.13-.16a.36.36,0,0,1-.07.1h-.12c.17-.1,0-.15,0-.23h0a.24.24,0,0,0,0,.12c0,.08,0,.11-.08.14s-.1,0-.15,0h-.07l-.13.1a.21.21,0,0,0-.06.1H16l.05-.13h0l-.11.07v-.14a.52.52,0,0,1-.1.11h-.17l-.12-.14h0v.31a.57.57,0,0,0-.33-.26l.06-.15h.11v-.21l-.07.24h-.11a.11.11,0,0,0,0-.14s0,0,0,0l-.07.11-.05-.2c-.09,0-.08.12,0,.21a.13.13,0,0,1-.17-.08l-.1-.11h0l.06.08h-.21v-.09h0l-.06.2s-.13,0-.06-.12h0c0-.06-.07-.13,0-.19v-.08l-.1.12v-.58c.11.08.12.12.1.21s0,0,0-.08v-.22a.21.21,0,0,0-.11-.16h-.17a.39.39,0,0,1,.18-.3v-.2h-.36l.14-.41v.05a.6.6,0,0,1,.11-.34v-.13s0-.06.06-.1a1.42,1.42,0,0,0,.07-.22s-.05,0-.07-.07a7.3,7.3,0,0,1-.65.71.65.65,0,0,1-.31.34h0c-.09.12-.09.12-.18,0v.12h.08v.1l-.09-.06c-.06,0-.1,0-.1.06s0,.15-.13.13l-.27.25L12.69,16l-.08.08h0s0-.19-.13-.21h0l-.05-.1-.44.38h-.06l-.1-.18c0,.15,0,.19.1.18h0c0,.12,0,.18-.07.21a.61.61,0,0,0,0-.19l-.16-.12v.13h-.21l.11-.09v-.06h.1V16l.07-.16h0l-.12.13h0l-.11-.13h0V16l-.23.07s.1-.08,0-.17h.14c-.12-.16,0-.29,0-.42h0l-.11.12c-.08,0-.12,0-.12,0H11.1l.11-.14.09-.08c-.06-.05-.08.12-.11,0l-.1.18h0v-.12l-.1.18c-.09,0-.11-.17-.24-.14v-.31h-.26v.24h0v-.25c-.1-.06-.09.08-.18.1L10.09,15H9.92v.24l-.1-.13-.07.08h0L9.82,15l-.23,0h0l.11-.1c0-.05-.09,0-.13,0L9.5,15a.58.58,0,0,1-.1-.4c.07.1.07,0,.1,0h.11l-.1-.12H9.44l.1-.29.08.1v-.12a.16.16,0,0,1,0-.24h0L9.5,14l-.36.45H9c-.07.22-.18.33-.29.31L8.67,15h0V14.8c0-.09,0-.14.1-.14h0a.22.22,0,0,0,.05-.23c0-.11,0-.13.09-.12v-.17c-.13,0-.14.09-.19.17s0,.19,0,.3c-.14-.11-.16-.21-.09-.32h0l-.11.11v-.08c-.1.08-.1.1,0,.21a.87.87,0,0,0-.11.18l.09.1s-.05.14-.07.22a.09.09,0,0,0,0,.07l.05,0v-.12l.11.19-.07.08,0-.09c-.09,0,.08.22-.07.22l-.09-.2c0-.06-.05-.11,0-.17a.25.25,0,0,0-.09-.29l-.12.18h.08L8,15v.08c-.12,0-.14,0-.08.16-.16,0-.22,0-.22-.13v.17a.75.75,0,0,0-.22.25h0l.09-.06c0,.07,0,.14,0,.14s-.09,0-.12-.06l-.11.18h0v-.19s.1,0,0-.13h.15v-.14l-.1.11v-.18c-.11,0-.13.06-.1.15a.21.21,0,0,1-.08.25v-.11h0s-.05,0-.05.07,0,.16-.14.17l.06.14.15-.09v.1H7L7.1,16h0l.07.24h0v-.16c.07.09.08.23.23.25s0,.11.05.18l.08-.13c-.1-.12-.1-.15,0-.22s.07-.09.12-.16.12-.09.12-.21a.09.09,0,0,1,0-.07h0v.07a.22.22,0,0,1-.11.23c-.11.06,0,0,0,.05a.47.47,0,0,1-.05.24h0v-.07h0a.79.79,0,0,1-.06.22.79.79,0,0,1-.2.17h-.1s-.05.16-.08.22a1.16,1.16,0,0,1-.16.21V16.8c-.07.05-.07.06,0,.15s0,.14,0,.12a.38.38,0,0,1-.17-.22c0-.07-.07-.13-.09-.2,0,.18,0,.21-.14.25s.07-.17-.06-.24V17a.24.24,0,0,1-.05.14c-.09.07-.07.15,0,.26l-.06-.06H6.24a.21.21,0,0,0-.08.11.43.43,0,0,0,0,.16l0,.09H6.15a.16.16,0,0,0-.13.2,0,0,0,0,0,0,0A.11.11,0,0,1,6,18l0-.1-.08.2h0V18H5.8c0,.06,0,.09-.06.09L5.6,18h0l-.06.09H5.4l.11.16-.18-.05v-.38H5.09v.09a.11.11,0,0,0,0,.08H4.9v-.37c-.29-.07-.26.2-.34.35v-.26H4.45v.2L4.3,18H4.18a.49.49,0,0,1-.08-.1,1.22,1.22,0,0,1,0-.27h.05v.1c.15,0,.16.06.11.23a.38.38,0,0,0,.08-.11.34.34,0,0,0,0-.1.54.54,0,0,1,0-.11h0c-.13-.07,0-.13,0-.21v-.13h.25l-.22-.17h0a.08.08,0,0,0,0,.14c.1.07.11.08,0,.13h0l-.06-.1-.17,0v.22h0v-.19h0L4,17.47l-.09-.14h0l-.25-.2c0-.06.13-.12.07-.23s-.11,0-.11.1a.5.5,0,0,1,0,.13h0V17h.09v-.1h0V17l-.2-.11h0l.14.05h0l-.09-.13s.06,0,.07-.08a.29.29,0,0,0,0-.13h0l-.11.18h0v-.32l-.13.09-.26-.18H2.92s0-.1.07-.1h.1L3,16.14l.1-.09c0-.06-.1,0-.2.06L2.78,16a.11.11,0,0,0-.08,0h0c0,.08-.12,0-.18.06s.2-.14,0-.24a.64.64,0,0,0-.08.14c-.07.14-.13.29-.19.44s0,0,0,.06v.25h0v-.36a.87.87,0,0,1-.2.46c-.09-.11,0-.12,0-.17l-.15-.45h0a.67.67,0,0,0,0,.2c0,.07,0,.11-.06.13h-.1a.43.43,0,0,1,0-.16V16.3a.21.21,0,0,1,0-.11H1.62l-.06.08v-.34c0-.06,0,.11-.09.09l.06.08-.18.15c.07.11.15,0,.23,0v.09a.09.09,0,0,0,0,.07h0v-.08c-.07,0-.07,0-.05.25l-.19-.34c-.06.1-.14.18,0,.25s0,.12,0,.18h0l-.07-.2-.14.07v-.2l-.19.08a1.68,1.68,0,0,0-.06-.24c0-.08.05,0,.09,0a.3.3,0,0,1,.12-.24.15.15,0,0,0,0-.13L1,15.89H.81c-.15,0-.15,0-.15-.13l.12.1c0-.28,0-.3-.13-.35l-.06.18-.06-.2-.11.11v.16c-.2-.09-.2-.09-.2-.21H.31l.13-.18h0c.12,0,.15-.13.19-.22s0-.08-.06-.12h0v.11h0l-.11-.26c-.09,0-.11,0-.08-.09v-.14l.12-.19h0l-.06.13v.06h0v-.06h0c.1,0,.14-.12.19-.21s.05,0,.07,0l.12-.14v.07H.89v-.07s-.07-.1,0-.11h0L1,14l.09.12A.61.61,0,0,1,1.11,14a.29.29,0,0,1,0-.13c.07-.1.08-.1,0-.14s0-.07,0-.11v-.11h0a.43.43,0,0,0,0,.16.31.31,0,0,0,.06.13l.2-.31H1.5a.17.17,0,0,1,.23,0l.07.1-.05.14c.08,0,.13-.1.17,0h0c0-.1.15-.18,0-.28l-.07.15-.19-.09a.17.17,0,0,0,0-.1l-.08-.09a.27.27,0,0,0,.28-.19h0a.47.47,0,0,0,.2-.38l.15.12c0-.19,0-.27.15-.23s0-.14.12-.12,0,0,0,.08v-.08c0-.08,0-.18.12-.2s0-.08,0-.15l.12-.08v.08h0l-.05-.29.16.11L3,11.6H3l.17-.09h0a.67.67,0,0,1,.13-.21s.09-.06.09-.09a.67.67,0,0,0,0-.2h0l.07.13.21-.25a.12.12,0,0,1-.1-.18l.05.07a.21.21,0,0,0,0-.11h0a.29.29,0,0,0,.29-.13H4v-.18H4l.17-.14v.08l.09-.14L4,10.09l-.1.17H3.86V9.81h0L3.74,10H3.66v.14L3.53,10l.08-.1-.14-.07h.09V9.72h0l.06.13h0V9.68h-.1a.38.38,0,0,1,0-.15v-.2a.42.42,0,0,0-.09-.16.08.08,0,0,0-.06-.07l.09,0h.11L3.46,9,3.37,9h0l.08-.1h0c.1-.06.12-.15,0-.26v.26s-.15,0-.16-.11-.06-.05-.1-.09L3.07,9c-.07,0-.07-.1,0-.22l.19-.32L4.09,8l.09-.11v-.1a.67.67,0,0,1,0-.2c.05-.07.13-.12.18-.19V7.25c.07,0,.09,0,.1-.09s0-.11.08-.14,0-.06.06-.1,0-.16.13-.21.1-.12.14-.18L5,6.4s.12-.07,0-.14H5c.12.07.12-.07.2-.1-.09-.06-.13.18-.22,0,.1,0,.16,0,.11-.13s0-.06,0-.09h0V6l.23-.16-.08-.1h.2V5.6l.12.08c0-.08,0-.17.12-.21l.08-.14h0s.07,0,.08-.08A2.17,2.17,0,0,0,5.91,5h0l.14.13v-.3h.11V4.68l.08.05V4.55a.32.32,0,0,0,.2-.27s0,0,.07,0,.11,0,.09.13h0v-.1s0-.06-.1-.1h.14L6.61,4l.07-.11v.17l.13-.23V3.71L7,3.64c.09-.08-.07-.1,0-.18l.08,0,.1,0h0l.22-.28V3.13c.11,0,.11-.08.15-.14s.07,0,.08,0l.17-.22H7.67c.18-.12.38-.2.42-.45l.08.07V2.24l.14-.17a.45.45,0,0,0,.12-.14v-.2a.1.1,0,0,1,.05-.08l0,.16h0l.09-.43v.15l.06-.14a.15.15,0,0,1,.1-.14c.1,0,0-.1,0-.16C9,1,8.93.86,8.88.71a.13.13,0,0,0,.06.07A.11.11,0,0,0,9,.78v0h.11V.42h.11V.63h.12c-.14,0-.15.24-.32.25a.24.24,0,0,0,.1.23V1h0v.16l.19-.09c.11,0,.08.15.13.24v.11l-.13.06v.1l-.1.12h0l.06-.07h.17l-.15-.09.09-.07V1.29h0V1l.17.19H9.41l.06.08c-.07,0-.07.05,0,.1a.29.29,0,0,1,0,.13h.18c.06.1,0,.1-.08.13v-.1h0a.29.29,0,0,0,0,.13h.07V1.8h0l.16-.3V1.37l0,.06c.08-.05.09-.09,0-.16s0-.08,0-.12h0l.07.14L10,1.13h0v.29a.33.33,0,0,0,.12.05V1.32a.17.17,0,0,1,.08-.22h.07v.26H10.2v.18h-.11l.21.11V1.5l.06.12.26-.22a.43.43,0,0,0,0-.16h-.15V1.1a.81.81,0,0,1,.16,0l.11.09V1.5c0-.06-.15-.05-.06-.15-.13,0-.19.09-.17.22v.08h-.06a.09.09,0,0,1,0-.07c-.06,0-.06,0,0,.16.16-.09,0,.08.1.11v-.1L10.7,2c.11,0,.1-.2.23-.22l.21-.21v.11A.38.38,0,0,0,11,1.9H11L10.82,2l.11.07-.28.21v.15a0,0,0,0,0,0,0h0l.1-.14V2.2c.13.06.17,0,.24-.11s.16-.12.07-.27c.14.07.18,0,.21-.08h0l.27-.32h.09c-.11-.18.08-.14.11-.21v-.1a.45.45,0,0,1,.1-.09c.07,0,.06-.07.07-.13H12c0-.05,0-.17.16-.1V.62h0l.09.11.19-.17L12.7.31l.1-.09c0-.06.09-.07.14,0l.1.17s.19-.08.34,0h-.11l.11.06.12.07-.1.06h.06c-.06.08-.06.08,0,.14V.59h0V1a1,1,0,0,0,.08-.11V.7a.17.17,0,0,1,0,.21v.35a.12.12,0,0,0,.15-.07.13.13,0,0,0,0-.06.38.38,0,0,1,0-.15l.13.06c0-.1,0-.14.15-.13s.07,0,.11,0C14,1,14,1.14,14,1.25s0,.1-.13.09v.29l-.07-.1c-.07-.1-.1,0-.06.1a.5.5,0,0,1,.05.13A.53.53,0,0,0,14,2h0l.16-.17c-.11,0-.17-.09-.07-.18h0l.15,0v.12h.12s.12-.05.12-.07,0-.16-.13-.15v.14h0l-.06-.23h0v.08l.1-.11c.07,0,0,.18.18.13l-.06-.06h.16v.13l.07-.05c.1.06,0,.14,0,.23l.07-.09h0v.19l.24-.28v.1a.28.28,0,0,1,.13,0,.89.89,0,0,1,0,.23,4.62,4.62,0,0,1-.34.41c-.06.06-.14.1-.2.16s-.25.25-.37.39-.09.16-.15.22a3.2,3.2,0,0,0-.5.72s-.09.08-.12.13l-.21.35h0l.14-.13L13.67,4a1.74,1.74,0,0,0,.11-.18.17.17,0,0,1,.18-.1c0-.08,0-.19.17-.2s.07-.09.1-.14a1,1,0,0,1,.14-.17L14.53,3a.15.15,0,0,0,.16-.14h0l.11-.09.28-.19.08-.08.16.09v.16h0c0-.11,0-.25.13-.32h0l-.16.1v0a.25.25,0,0,1,.08-.1l.1-.07.25-.19.22-.17.29-.22c0-.19.3-.22.39-.43v.12a.11.11,0,0,0,0,.08v.06h-.06v.24l-.1-.11-.05.25.16-.14V2c0-.09.09-.15.12-.22s0-.13.19-.12,0-.16.1-.12c0-.13.09-.32.13-.31L17.36,1h0l-.06.14h0l.08-.1.1.05-.06.07h0l-.1.21a.61.61,0,0,0,0,.19l-.26-.19v.15l.14.08-.06-.11c.06,0,.17.13.17.25l.21-.33.18.19V1.48a1,1,0,0,1,0,.24h0a.11.11,0,0,1,0-.08.12.12,0,0,1,.05-.07h.06c.06,0,0,.05,0,.09L18,1.48l.1.13H18v.16h1.14c0,.07-.06.14,0,.18s0,.09,0,.14a.18.18,0,0,1-.07.16c-.07.06-.12,0-.12.09s.06.08.09.11h0V2.3l.06.09.11-.07-.06.11a.12.12,0,0,0-.09.06l.1.09V2.7c.09-.11.24-.17.12-.32l.14-.08v.1h0s.05.11.09.13.09,0,.14-.06l-.08-.14-.07,0h0l.2-.22h0l-.09.14.09.2a.21.21,0,0,0-.17.18l.08.09c.08-.07,0-.11,0-.14l.06-.14.09-.15h0v.05a.23.23,0,0,1-.06.19c-.06,0,0,.09,0,.15h-.06l.07.08-.06.07,0,.05.06.06V2.91s0-.05.06-.07l.32-.14c.1.22.12,0,.19,0s0,.12,0,.17,0,.25-.12.23v.22h0v-.1a.05.05,0,0,0-.05.06.17.17,0,0,0,0,.14.77.77,0,0,0,.07.16h0s0-.08.05-.06,0,.06,0,.1a0,0,0,0,0,0,0v0a.39.39,0,0,1,.22-.31v.08l-.08.15c-.07.11-.1.26-.23.35h0a3.34,3.34,0,0,1-.21.29c-.08.09,0,0,0,.08a.12.12,0,0,1-.16.12h0a.17.17,0,0,0,0,.1v.11l-.21.23a0,0,0,0,0,0,0c.11.1,0,.13-.07.2a1.37,1.37,0,0,1-.13.2.64.64,0,0,0-.08.14c0,.08-.14.14-.11.26H19v.08L18.91,6a.17.17,0,0,1,0-.1c0-.11,0-.23-.14-.28h-.18l.11.16.07-.11a.8.8,0,0,0,.08.16c0,.06,0,.17.1.19l-.06.08-.06.11h0c.08-.11.15-.22.29-.24h0c0-.14.19-.14.29-.21a2,2,0,0,0,.3-.28L20,5.26H20a.34.34,0,0,1,.06-.12c.1-.1.22-.19.32-.3a1.9,1.9,0,0,0,.42-.46c.09-.2.1-.07.18-.12v.15h0a.33.33,0,0,0,.06-.12v-.1s.12,0,.14,0,0-.07,0-.14l.15.1c0-.11,0-.19.09-.24V4l.21-.32.07.13h-.13l.07,0L21.62,4h.09V4l.17-.24.12.07c-.06-.09,0-.22.1-.33v.18l.13-.05a.41.41,0,0,0-.07-.11c-.08-.05,0-.12,0-.16s.1,0,.14,0l.08.05.14.2.25-.21a.17.17,0,0,0,0,.1.24.24,0,0,0,0,.12h.07v-.3l.14.07v.19c0,.06-.08.12,0,.2l.13-.22.07.21c-.09,0-.07.15-.08.25a.17.17,0,0,0,0,.1.41.41,0,0,0,0,.09h0V4.19l-.06-.13V4a.19.19,0,0,1,.27,0h0c-.09.1-.09.1,0,.32l.05-.19c.07.19-.12.43.13.56V4.51l.21.1V4.43h0c0,.17.09.24.17.39V4.64h0l.07.23h0V4.72h.06V5H24v.08a.2.2,0,0,1,.06.23h0a.17.17,0,0,0,.14,0l.11-.06h0l-.16.16L24,5.5l-.1-.06v.13H24l-.13.16V6h-.11v.11h0V6c-.18.26-.21.42-.11.52l-.3.32V6.51h0s-.08,0-.09.07a.24.24,0,0,0,.13.26l-.14.23V7l-.12.21s-.08.14-.2,0c.12.18-.09.15-.08.27l-.07-.08v.14h.11L22.6,8h-.08a.69.69,0,0,1-.15.35l-.2.36-.11.05,0,.22h0S22,8.93,22,9s-.09.16-.14.23l-.33.48-.34.45c-.12.17-.22.34-.34.5a2,2,0,0,1-.19.22.17.17,0,0,0,0,.24l0,0,.14-.15h.08s0,.16,0,.24l.06-.06h0l-.1.25.24-.24-.24-.1,0-.07a.34.34,0,0,1,.06-.12c.1-.11.24-.16.33-.29s.19-.13.29-.19l.41-.27h0l.14-.12h0v.07h0l.11.17.16-.36v.2a.79.79,0,0,0-.12.15.11.11,0,0,0,0,.11.86.86,0,0,0,.23.05h.14v-.1h.21a3.38,3.38,0,0,0,.11-.34.29.29,0,0,1,0-.13l.2.17h0V9.81l.12-.1-.12.29h.11a.11.11,0,0,1,0-.08.33.33,0,0,1,.11-.15V10h0l.06-.07h0v.28c0,.06,0,.07.06.09l.13.07v.18h0v-.16h0v.11h-.15v-.08h0v.43c.11-.06.1-.07,0-.25.06,0,.06,0,.17.18v-.11s0,0,.09,0l-.07.06h0l.23-.09L24,10.6v.33h0a1,1,0,0,1,.06-.23.15.15,0,0,1,.06-.09h.11l-.08-.18c.09,0,.19,0,.2.14a.06.06,0,0,1,0,.06c-.06.08,0,.11.06.14v-.08l.13.07-.17.09h.12c0,.06.07.11.09.16s.1.07,0,.13h0L24.49,11h0v.18c-.18-.11-.12.12-.2.15h.12l-.06.12h.09v.11l.14-.09h-.07c0-.08,0-.08.15,0h0a.18.18,0,0,1-.13.15h0a.35.35,0,0,1-.07.24c-.07.09.1-.07.11-.12a.48.48,0,0,0,0-.12h0c.11,0,.12,0,.13.15l.13-.11h0v.08c.12,0,0-.13.06-.18s.07-.1.1-.16h0v.15h-.07a.29.29,0,0,0,0,.13l-.11.21V12h-.22V11.9h0l-.12-.16v.15l-.09-.07V12h.17v.3a.17.17,0,0,0-.16.18v0h0l-.06-.06v.13l-.13-.06v.2h0l.06-.1.16.06h0v.19a.54.54,0,0,0,0,.18l-.14-.15h0v.21H24.2v.23c-.1,0-.11,0-.11-.13s-.12.06-.08.15l-.07.07Zm-21.38.12v-.1c0-.06-.06-.08-.13,0l.15.1v.1h.09v-.15ZM7.24,4l.09.13h0V3.88h0a.16.16,0,0,1,0,.14s0-.14-.11-.19-.08.18,0,.26Zm7-2.7a.2.2,0,0,0,0,.21.17.17,0,0,0,0-.21V.94h0l-.06.2c-.06-.06-.12-.13-.16,0h-.1c0,.08,0,.19-.15.18h.13l.07.11A.28.28,0,0,1,14,1.34h.07a.3.3,0,0,1,.06-.21v.1ZM4.44,12.43h.13v-.37h0c0,.09-.11.17,0,.27s0,0,0,.06v.12S4.48,12.47,4.44,12.43Zm5.13-.52c-.07,0-.18.06-.18.12a.15.15,0,0,0,.1.2h.07v-.33l.15-.11-.08-.18a.29.29,0,0,1-.07.23ZM1.09,15.53l.11-.1h0c0-.08-.17-.06-.15-.18H1L1,15.5h.06c0,.17.14.18.26.2s.14-.13,0-.23l.09-.12a.11.11,0,0,1,0,.17l.16.14a.57.57,0,0,0,.11-.22,1,1,0,0,0-.08-.11h0v.07l-.2-.18-.07.18h0l-.06.12h0v-.1l-.08.07A.45.45,0,0,0,1.09,15.53Zm2.59-1.44v.12H3.8V14l-.09.08.11-.16a.1.1,0,0,0,0-.15l0,0-.07.15H3.68l-.11.18v-.14h.05l-.06-.17H3.48l.09.17-.09.12c.18,0,.12.16.18.21Zm14,2.66.09-.13h-.14l.07.13.08.1v-.14h0l.1.21h0v-.16a.41.41,0,0,1-.16-.21.21.21,0,0,0-.3-.15v.14h.11l.14.18ZM8.79,13.6H8.54c0-.17,0-.2.1-.28v-.19h0v.15a.31.31,0,0,1-.05.1h0v-.12h0l-.13.21h0l.06-.06h0l0,.08a.76.76,0,0,0-.11.14v.06c0,.06-.08.15,0,.25.09-.11.14,0,.19,0a.06.06,0,0,0,0,.06v.07l-.15.15v-.09a.23.23,0,0,0,0,.2.13.13,0,0,1,.1.06h0v-.18l.08.06h0l-.05-.1c.17,0,.19,0,.21-.25H8.61V14H8.5v-.09a.32.32,0,0,1,.09-.24l.18.12,0-.12.12.1V13.6c.08,0,.17,0,.17-.11v-.23H9l-.1.18-.07-.17h0v.18H8.75l.1.15H8.79Zm-3.7-2.25h0v-.16h0l0,.29H5v.11H5l-.12-.1h0l.09.15-.22-.05a.33.33,0,0,0,0,.14.1.1,0,0,1,0,.15.07.07,0,0,1-.06,0h0l.15-.12.22.21v-.14l.12-.12.09.11.11-.19-.1.08v0l.16-.08a.22.22,0,0,0-.09-.3A.21.21,0,0,0,5.09,11.35Zm-.84,1.92H4.13v.18h0l-.25.33.18.06h.15c0-.05,0-.1-.08-.14h0v-.2l.13.18h0v-.12l.17.1v-.28l.06.1V13.4c.07-.14.07-.14.24-.09-.08-.1,0-.21-.09-.31v.13c-.08-.07-.08-.1,0-.15s.1-.11.05-.18,0,.11-.05.13a.18.18,0,0,0-.12.16.25.25,0,0,1-.06.19L4.33,13Zm18,1.36h-.16c0,.14.11,0,.13.08l0,.18a.19.19,0,0,0,.12-.22s.11,0,.12-.07,0-.17.21-.15h0l-.07-.1h.1c0-.16,0-.16.06-.17s0,.14.08.12,0-.09,0-.12a.17.17,0,0,0,0-.23h0l.12-.07L23,14v-.36a.24.24,0,0,0-.18-.22l.09.2c0,.07,0,.17-.07.17a.11.11,0,0,0-.1.14c0,.07-.11-.08,0-.22l-.3.07a.09.09,0,0,0,0,.07h.1a1.71,1.71,0,0,1-.11.14.79.79,0,0,1-.15.12h0l-.24.16.06.19,0-.06.08.14c.09,0,.08-.07.09-.12a.43.43,0,0,0,0-.16h0l.11.25ZM19,5c0-.1.06-.22-.06-.34v.12s0,.17.09.21a1,1,0,0,1-.23.27v.2l.11.06.1-.07h0a.12.12,0,0,0,.12-.17c0-.12,0-.08,0-.12h0v.08l.11.1V5.06c0-.07.08-.16,0-.25h0l.13.12.14-.35h.06l.07-.23h-.11l.1-.19h.06a.23.23,0,0,1,.07-.1c.11-.07.11-.11,0-.19s0,0,0-.08.16,0,.28-.11c.1,0,.15,0,.18-.13l-.13.15c0-.16-.08-.22-.2-.29l.06.16h-.06l-.11.35V3.81h-.11v.13s-.1.14-.09.21a.21.21,0,0,1-.07.21l-.08-.14a.39.39,0,0,0-.08.14c0,.08-.07.16-.1.23h0c-.12.07-.07.2-.09.3S19.09,5,19,5Zm3.82-.41h0V4.38h0l.07.22h0V4.47s.08.07.08.1a.11.11,0,0,1-.06.11h-.12s0,.09.06.12l.06.11L23,4.62h0a.24.24,0,0,0,0-.3l-.06.1c-.2-.09-.16-.27-.18-.43l-.13.16-.12-.1a.86.86,0,0,0,0,.32.29.29,0,0,0,0,.13h0ZM4.92,8v-.2a.54.54,0,0,1,0-.18c0-.08,0-.15,0-.19l0,.16-.1-.11-.09.14c-.1,0-.18.07-.25.31.09-.08.17-.13.26-.06V8c.08,0,.15-.1.21,0s0,0,.07.1Zm.17,4.43v-.2h0v.2c.15-.08,0-.26.12-.37s-.15.08-.15,0l-.14.1v.17s-.11,0-.2,0ZM4.86,17.6h0l-.32-.37-.06.16H4.32a.06.06,0,0,1,.06.06c0,.06.07.06.11,0l.08-.13h0v.31c.11,0,.13-.12.2-.15Zm9.53-1.85h0v.16h0a.57.57,0,0,0-.16.14.19.19,0,0,0,.08.22h.17v-.06c.13,0,0-.1.12-.12s-.12-.06-.09-.15-.09-.15-.1-.19Zm-11-1.5v.29h.07v-.2a.24.24,0,0,0-.06-.11.28.28,0,0,1-.17-.07v.27h0v.1a.12.12,0,0,0,0,.17l0,0a.79.79,0,0,1,.2-.47Zm4.76.2q-.13.09-.15,0c0-.06,0-.06-.07-.11,0,.1,0,.22-.12.25v-.11l-.08.06c0,.06,0,.13.14.1s.09,0,.09.08.06.09.12.1L8,14.59l.16.09ZM7.1,16.59c0-.07.09-.15.07-.2s-.11-.06-.18-.1v-.22l-.13.42c.23-.12.23,0,.28.1Zm8.44-14.5.11.05c0-.09-.09-.13-.1-.19s0-.06.07-.1h0V1.77c0,.07-.09,0-.14,0V2l-.13-.1v.29l.05-.07ZM9.69,13.48h0l-.14-.13-.08.17c-.14,0,0-.19-.15-.25,0,.15-.05.31.11.39l.09-.07v-.15ZM3.8,13.36,4,13l-.13-.09-.11.14.06.13h0l-.09-.08h0Zm8.92,2.45h0v.06a.09.09,0,0,0,0,.07h0a.12.12,0,0,0,.06-.06c0-.06-.07-.18-.14-.19h-.27v.05c.12,0,.14.09.18.15ZM4.44,9.08H4.36c0,.13.11,0,.15,0v.25H4.6l-.07-.4Zm17.65,1.71c.1.06,0,.23.18.2s.11-.13.07-.24Zm-7.56,4.48.09.12h0l-.15-.06v.24c0-.16,0-.17.12-.13v.14c.1-.08.15-.16.11-.26S14.6,15.3,14.53,15.27ZM21.8,15h0l.14.15.15-.28h0L22,14.7l-.17.34ZM9.28,12.52h0a.24.24,0,0,1,.06-.09c.11-.08.06-.1,0-.12v-.16c-.1,0-.14.06-.1.16v.11A.64.64,0,0,1,9.28,12.52Zm12,3.6h0a.47.47,0,0,0-.06.15.14.14,0,0,1,.1.05v.1h-.09l.14.1.07-.07-.06-.06c.12-.1-.07-.15-.06-.27ZM1.74,15.59c0,.11-.06.21,0,.28s.1.18.25.14-.07-.09-.11-.1-.11-.1,0-.21H1.79ZM5.27,8.47c-.08-.12-.15-.23-.08-.36l-.14.18.15.16H5.06ZM7.4,3.92h.12V3.71h0l-.07.12h0l.06-.18h0a.6.6,0,0,0-.09.15.17.17,0,0,0,0,.12ZM21.4,11h0c-.11-.16.07-.22.08-.35s-.14.06-.12.17h-.19Zm-2.65,6.29c.1.07.14,0,.19-.06v-.07l-.12.05c-.13,0-.17.1-.1.21s.09.07.14.11h0ZM4.41,8.39v.17a.54.54,0,0,0,0,.18h0V8.63h0v.11c.13-.06,0-.13,0-.19H4.29C4.52,8.46,4.52,8.45,4.41,8.39Zm7.38,7.53L11.7,16h0l.16-.08c0-.1,0-.24-.18-.29l-.06.09C11.77,15.87,11.77,15.87,11.79,15.92ZM4,14.09v.08c.06,0,0-.22-.09-.38a1,1,0,0,0,0,.25Zm6,0-.09.29.3-.29ZM23.55,6.4l.05-.18h0l-.06.14h-.08v.09h.18c.06,0,.07,0,.11-.08h0Zm-1,4.15-.13.06v.17s-.1.1,0,.14Zm-1.39.3a.29.29,0,0,0,0,.13v.11s-.07.11,0,.2h0a.17.17,0,0,1,0-.19.14.14,0,0,0,.16-.11.15.15,0,0,0-.11-.17ZM9.73,14.17v.15h0v.15a.31.31,0,0,0,.08-.1.34.34,0,0,0,0-.1S9.81,14.14,9.73,14.17Zm14-3.29a.13.13,0,0,0,.13-.13h0v-.09s-.07,0-.08,0a.15.15,0,0,0-.06.09.69.69,0,0,1,.06.14ZM3.23,15.31v-.17l.12.08s0-.09,0-.13,0-.05-.06,0-.12.07-.14.14a.24.24,0,0,0,0,.12Zm9.6.56c.11,0,.13-.14.07-.29l-.12.09ZM4.09,13.15h.12L4.09,13,4,13.2,4,13.14l0,.14v-.13ZM16.82,2.53a.35.35,0,0,0-.14.06v.13s0,0,.06,0l.11-.13Zm5.76,1.82c0-.13,0-.15-.09-.23s0-.06,0-.09v-.1A.57.57,0,0,0,22.58,4.35Zm-.65,6.81h0c0-.08,0-.09.08-.11s.08-.05.08-.05v-.14L22,11h-.09ZM16.6,2.33V2.26l-.06.23.22-.08h0Zm6.1,4.78-.13.12.17.1h0ZM3.39,15.36a.16.16,0,0,0,0,.22l0,0,.09-.09H3.4l.05,0ZM22.65,3.76c-.16.11,0,.19,0,.31.17-.08,0-.17,0-.24h.06Zm.23,1c-.07.13.07.2.08.3,0-.06.07-.21-.08-.28Zm-10.6,7.07a.2.2,0,0,0,0,.27l0,0h0a1.14,1.14,0,0,0,0-.27ZM4.77,8.32c-.15-.07,0-.11,0-.18l-.09.08c0-.07-.11-.07-.17,0h.13v.12ZM4.65,12.4h0v-.18a.12.12,0,0,0-.08-.13Zm5.22-.76.24.39a.52.52,0,0,0-.24-.37ZM21.09,9.92,21,9.68C20.85,9.73,20.86,9.79,21.09,9.92ZM5.4,12.19c.13-.12.13-.14,0-.28a.24.24,0,0,0,0,.12Zm16.08,3h-.11s0,.13,0,.21l.09-.13h-.09Zm-.39-10.7.08-.07h.07V4.31a.12.12,0,0,1-.19.11h0Zm-6.44,10.1.08-.3h0l-.15.25ZM5,9.25h.1a.43.43,0,0,0,0-.16H5.05L5,9.18h.07ZM2.86,15h.05a.19.19,0,0,1,0-.13l.13-.07L3,14.73Zm18.63-.32-.08.13h0a.42.42,0,0,0,.09-.14s0,.06,0,0Zm1,.17h0v.27c0-.12,0-.12,0-.24ZM4.81,8.67v.08h.28ZM17.75,16h0c.09.17.13.2.21.16ZM9,12.79c-.17.05-.1-.08-.14-.12h0l.07.26H9ZM4.09,8.29h0L4,8.1H4C4,8.17,4,8.27,4.09,8.29ZM4.37,9c.15-.06,0-.17.11-.25-.18.05-.07.16-.11.24Zm6.32,1.65h.11v-.15h-.09ZM13.88,1.9h0a.61.61,0,0,0,0-.12l-.06-.17h-.08l.09.08ZM7.63,3.53h0a.33.33,0,0,0,0,.14h.06c.06,0,0,0,0-.06ZM22.09,8.34,22,8.2,22,8.28l-.06-.1h0l.07.14ZM1.2,14.65v-.22l-.11.07ZM23.5,5.14c0-.1.16-.14.06-.25L23.5,5l-.09-.1h0ZM11.61,11.73c0,.1-.2.1-.12.28C11.52,11.89,11.66,11.86,11.61,11.73Zm5.33-8.51h-.19l.06.19ZM9.77,13.15c-.14.07-.15.12,0,.22Zm13.52-6.5V6.47l-.15.18Zm-11.83,9H11.4l.14.2h0ZM3.65,13.83l-.15-.2h0l.06.22Zm8.51-1.7L12,12.4a.32.32,0,0,0,.17-.31Zm5.93,3.59h0v.19h0Zm-.6,1.16.11.12.08-.13h-.19Zm3-6.44c-.15.16-.15.16-.08.23l.11-.15Zm2.22,4.18-.14.1a.09.09,0,0,0,0,.07h0l.11,0a.11.11,0,0,0,0-.12ZM9,12.54a.14.14,0,0,0,0,.15h.07a.37.37,0,0,0,0-.11ZM9.09,14,9,13.9l-.12.17h0Zm.8-2,.09.18V12A.19.19,0,0,0,9.89,12ZM3.72,13.34h0l-.14.21h.11l0-.24Zm8.06-.79h.05c.07,0,.09-.1,0-.21Zm7.77-6.66h0a.49.49,0,0,0,0,.17h.05a1.17,1.17,0,0,0-.05-.2ZM1.94,15.72l.1.07h0L2,15.62ZM4.81,8.37h0l-.12.25a.2.2,0,0,0,.12-.08A.49.49,0,0,0,4.81,8.37Zm9.6-6.61h0l.11.18h0V1.82ZM4.82,12.66l.08.25L5,12.79ZM8.39,4l-.08-.21h0v.27ZM22.74,14.33c0,.16.06.21.17.16l-.12-.06v-.1Zm-21.6.72-.07.2h0l.2-.11v-.05C1.2,15.14,1.16,15.13,1.14,15.05Zm3.68-6-.06-.23h0s-.14.11.06.18ZM1.35,14.12h0L1.46,14l-.11-.08h0c.07.11.07.11,0,.18ZM10.19,14c.12-.14.12-.16,0-.23ZM4.91,8.87c0,.17,0,.22.11.22Zm17.18,1.61-.16.08.14.1ZM5,12.56H5l-.16-.1v.12Zm2.54,2.57V15a.09.09,0,0,0,0,.07v.07c0,.07,0,0,0,0l.09-.1h0ZM7.84,4.5l.08-.08-.17-.09Zm10,12.76-.1-.25c-.08.08,0,.13,0,.19s0,0,.07.06Zm-4.55-2h0l-.07.16h0l.07-.13,0,0Zm-10,.57h0v-.11H3.22s-.05,0-.07.08h0l.08-.05Zm9.25-4.18-.08-.07v.25h0Zm6.9-4.91a.12.12,0,0,0,0,.17l0,0h.09ZM19,2.26l.11-.11L19,2Zm2.89,8.34v.14H22ZM9.69,1.34h0l-.12.24h0Zm-5,8.39v-.3c0,.09-.12.21,0,.3ZM10.8,1.82h0l.09.1h0V1.81a.11.11,0,0,1-.07,0Zm2.29,13.89c.11-.05,0-.13,0-.22C13,15.56,13.09,15.65,13.09,15.71ZM4.93,9.38v.24c.08-.16.08-.19,0-.24Zm16.49.06h0l-.08-.22-.1.15h0l.08-.06ZM8.21,14.06h.12v-.19Zm-7.12.12c.09.1.11,0,.15,0s0,0,0-.07ZM9.92,13h0c-.06,0-.11.09,0,.17Zm12.6-5.36V7.39l-.09.12Zm-17.59,0h0c0-.07.12-.15,0-.21Zm17.16,7.58.16.11h0l-.13-.18ZM13.77.6,13.66.48,13.57.6Zm-12,13.92h.09s0-.14,0-.21h0c-.06.09,0,.19-.18.21Zm11.45-9.1-.06-.1v.14c.09,0,.12,0,.14-.1h0ZM4.29,16.86h0v-.21l-.09.08Zm-.42,0-.05-.2c-.07.06,0,.14.05.21Zm17.78-2h0l-.09.2C21.67,15,21.66,15,21.65,14.86Zm-19.37.59h0l-.13.13h0ZM4,14.38H4L4,14.28H4c.08.08-.11.17,0,.24Zm6.94.84h0l.12-.22h0ZM4.4,12.41v-.18h0a.44.44,0,0,0-.08.11Z"/><path d="M2.48,16.84l-.09-.38a.09.09,0,0,1,0-.1l.06.19.1-.08v.2c.09,0,.09,0,.09-.13s0-.13.06-.15l.07.18h0v-.14h.07l.09.15-.08.11c-.06,0-.12,0-.13.11l-.08.07L2.51,17v-.08Z"/><path d="M16.78,18v.44a.21.21,0,0,1,.06-.1h.07v.06l-.19.17-.08-.05-.09.14h0v-.22h-.1l.1-.16.15.15h0a.37.37,0,0,1-.08-.15c0-.07,0-.13.08-.15S16.75,18,16.78,18Z"/><path d="M19.52,2.16l-.16,0c0-.13.27-.15.16-.34.08,0,.13.24.23,0V2l.08.07-.25.07v.1h-.17Z"/><path d="M11.48,1.44c0-.1,0-.11.08-.13.14.17.15.17.22,0,0,.15.07.19.16.15s.06-.11.09-.18,0,.11,0,.14a.42.42,0,0,1-.16.11l-.17.09V1.47l-.14-.07-.12.09c0,.11,0,.12-.13.14C11.41,1.58,11.3,1.44,11.48,1.44Z"/><path d="M6.58,17.15h.15l-.11-.08a.14.14,0,0,1,0-.09.06.06,0,0,1,.06,0h.05a.64.64,0,0,0,.1.13c-.07,0,0,.2-.19.1s0,.15-.09.16Z"/><path d="M22.49,16.3l-.06.33-.1-.06V16.4h-.08l.25-.32h0Z"/><path d="M9.73.88,9.84.72l.09.05H9.84L9.89,1C9.8,1,9.73,1,9.69,1s0-.12-.07-.2Z"/><path d="M5.86,5.42H5.72l.07-.11H5.66V5.17l.1.08h.07V5.16c0,.07,0,.13,0,.2v.08Z"/><path d="M4.19,9.47v.12H4.1C4,9.52,4,9.46,4.1,9.32,4.09,9.37,4.24,9.35,4.19,9.47Z"/><path d="M24.73,11.64c-.11,0-.06-.06-.06-.11a.79.79,0,0,0,.06-.22c0-.09,0-.11.13-.08-.07.12,0,.28-.15.37h0Z"/><path d="M18.59,1.17h.17l-.06.21.2.06A.13.13,0,0,1,19,1.5v0c0-.08-.08-.07-.16,0a1.42,1.42,0,0,0-.08-.18.57.57,0,0,0-.08-.13Z"/><path d="M17.94,1.17l-.06.19-.15-.11v.12h0a.47.47,0,0,1,.06-.15C17.8,1.11,17.87,1.13,17.94,1.17Z"/><path d="M2.31,12.14l.13.06h0v.14c0,.05-.12,0-.13,0a.25.25,0,0,1,0-.17Z"/><path d="M20.48,18.92h0v.32C20.38,19.18,20.38,19.1,20.48,18.92Z"/><path d="M4.09,8.63l0-.08L4,8.74l-.07-.12H4V8.46H4l.11.22Z"/><path d="M4.45,10.27l-.13,0,.08-.34c0,.12.1.2,0,.3S4.45,10.24,4.45,10.27Z"/><path d="M7.92,1.76v.15h0l-.15.15c-.08-.05,0-.09,0-.14l.12-.14Z"/><path d="M15.09,1.69,15,1.76c-.08-.17.08-.27.17-.39v.14s-.09,0-.13.06h.1v.12Z"/><path d="M.18,16.09H.09C0,16.09,0,16,0,16l.19-.08A.5.5,0,0,1,.18,16.09Z"/><path d="M.42,15.3a.85.85,0,0,1-.13-.25l.09-.13h0v.37Z"/><path d="M10.21,1.42h0v.16h0l-.14-.21c.08,0,.14,0,.11-.12h.11Z"/><path d="M15.69,17.66l.14.08s.07.14.13,0v.06l-.14.15-.16-.24Z"/><path d="M2.22,16.9l.12.11-.15.16h0Z"/><path d="M21.59,16.66a.21.21,0,0,1,.13-.26v.21Z"/><path d="M19.14,18.39l.14.13v.1l-.09-.09v.1C19,18.54,19.18,18.47,19.14,18.39Z"/><path d="M9.74.55c-.08-.11-.08-.16,0-.23V.44l0-.07.09,0Z"/><path d="M22.14,17l-.05-.1v-.07h.18Z"/><path d="M20.37,3.36c-.08-.06-.16-.08-.1-.17h.07V3h0Z"/><path d="M23.89,13.91H24l-.08.27h0Z"/><path d="M11.23,1.63l.1.35h0a.4.4,0,0,1-.07-.09,1.22,1.22,0,0,1,0-.27Z"/><path d="M10,15.25V15h0l.07.14-.1.08Z"/><path d="M2.66,16l.15.2H2.69V16Z"/><path d="M21.82,16.08c.05,0,.11,0,.14.05s0,.08,0,.12h0l-.12-.14Z"/><path d="M11,1.14V1.2l-.07-.08-.09.06V1Z"/><path d="M22,15.93l.12-.25h0l-.05.32Z"/><path d="M18.62,1l.17-.09c.06,0-.05.07-.07.12h-.09Z"/><path d="M21.82,15.19a.24.24,0,0,1,0,.12h-.09v-.16Z"/><path d="M19.19,1.81h0l.16.08-.1.11Z"/><path d="M11.56,16.15h-.09c-.05-.09,0-.14.07-.17h0v.16Z"/><path d="M10.92,1.57c.09-.13-.07-.11-.09-.18V1.32a.76.76,0,0,1,.11.14v.12Z"/><path d="M1.18,16.89v-.11l.14-.11c0,.06.05.15-.08.12v.09Z"/><path d="M8.09,15.48a.17.17,0,0,1,0-.24l0,0Z"/><path d="M18.93,18.44v.11H19l-.18-.06.11-.12Z"/><path d="M2.48,16.84h0l-.18.1v-.18Z"/><path d="M20.09,19.07l-.11.16v-.09a.76.76,0,0,1,.11-.14Z"/><path d="M23.82,13.34a.17.17,0,0,1-.06.22h0l.1-.21Z"/><path d="M2.88,11.41v.23l-.1-.12Z"/><path d="M13.9,0l-.07.2h-.05l.07-.2Z"/><path d="M3.63,8.72v-.2c.05,0,.09,0,.07.08l-.05.06a.06.06,0,0,0,0,.06Z"/><path d="M4.09,10V9.86l.12-.09h0Z"/><path d="M24.36,12.44h0c.08,0,.12,0,.09.09v.09h0Z"/><path d="M2.66,12l0-.11v-.1C2.79,11.93,2.78,12,2.66,12Z"/><path d="M8.41,1.73l-.1.16C8.25,1.8,8.27,1.78,8.41,1.73Z"/><path d="M3.58,8.73,3.67,9C3.57,8.93,3.54,8.85,3.58,8.73Z"/><path d="M22.09,15.47c.13.07.14.1.11.23Z"/><path d="M2.67,10.18l.14-.2C2.82,10.12,2.77,10.18,2.67,10.18Z"/><path d="M7.46,16.12l-.11.08V16Z"/><path d="M6.15,18,6,17.84c.13,0,.12.08.16.13Z"/><path d="M21.09,18.56c0,.07.05.14-.08.21v-.21Z"/><path d="M3.09,11.53,3,11.42h.07l.06.1Z"/><path d="M7.54,2.15l.1-.09v.18s0-.15-.16,0Z"/><path d="M20,2.46,20,2.33h.15l-.05.16Z"/><path d="M2.09,17.22H2v-.17Z"/><path d="M24.61,11.19a.21.21,0,0,0,0,.11c0,.07,0,.1-.06.12h0c0-.08-.07-.16,0-.23Z"/><path d="M11.92,16.5v-.13H12v.13Z"/><path d="M4.27,10.1c0,.11,0,.15-.12.17Z"/><path d="M3,11.64l-.09.19h0Z"/><path d="M5.09,11.35a.44.44,0,0,1,.08.11v.07h0l0-.17h0Z"/><path d="M4.28,13.27h.08v.08a.38.38,0,0,1,0,.15l-.07-.19Z"/><path d="M19.48,4.57l-.2-.17C19.41,4.38,19.5,4.45,19.48,4.57Z"/><path d="M18.94,5.49l-.07-.24c.11,0,.12.08.09.14v.1Z"/><path d="M19.17,4.59l.13-.08-.08.23Z"/><path d="M5.09,11.61,5,11.76c-.07-.09,0-.14,0-.17h.09Z"/><path d="M14.21,16c.13,0,.17,0,.14.11s0,0-.06.06h0Z"/></g></g></g></svg>