<svg xmlns="http://www.w3.org/2000/svg" viewBox="0 0 65.2 56.06"><g id="Layer_2" data-name="Layer 2"><g id="Layer_1-2" data-name="Layer 1"><g id="crack2"><path d="M63.71,43.73l-.5-.38c-.06-.06-.2-.09-.12-.24s0-.11-.15-.11a.2.2,0,0,1-.17-.09c-.1-.22-.32-.35-.41-.58s-.22-.41-.35-.61h0v-.23s-.13-.06-.17-.15a3,3,0,0,1-.37-1l-.06-.07a1.59,1.59,0,0,1-.12-.27,13.56,13.56,0,0,0-.64-1.52.18.18,0,0,0-.17-.12l-.54-.11v-.32a.14.14,0,0,1-.19,0,.12.12,0,0,1,0,0c-.16.11-.1-.1-.19-.11l-.07.09a.67.67,0,0,1-.12-.1c-.09-.11-.17-.23-.25-.35s-.11-.16,0-.26-.06-.08-.06-.13a4.86,4.86,0,0,1,0-.54,4.49,4.49,0,0,1,.09-.61.33.33,0,0,0-.14,0c-.84.22-1.69.42-2.52.71a2,2,0,0,1-.79.25,14.59,14.59,0,0,0-1.54.75c-.23.16-.48.3-.73.45a.64.64,0,0,0-.15.13.22.22,0,0,1-.21.1v.19a.19.19,0,0,0-.27,0l0,0,.09.37h-.46a1.2,1.2,0,0,0-.67.12h-.31c-.06,0-.08.07-.12.1L51.05,39c-.16.16-.27,0-.4,0s-.08-.07-.13-.12V39c-.13-.09-.31,0-.44-.1s-.3.05-.47,0l-.15-.18v.18h-.39A.09.09,0,0,1,49,38.8l-.1-.15c.11-.07.09-.14,0-.19l-.17.14c0-.12-.2-.17-.09-.35l.1.2h0v-.24a.41.41,0,0,0-.28.2,1.21,1.21,0,0,1-.16.16l.16-.34c-.16.06-.17-.09-.24-.14l.08.48.14.07.13-.16c.06.23,0,.23-.14.22h-.14l-.06-.12h0a.33.33,0,0,1-.47,0,.41.41,0,0,1,0-.09.67.67,0,0,1,0-.2.49.49,0,0,0,.11.14.11.11,0,0,0,.15,0l0,0s0,.11.07.07,0-.07,0-.08-.09,0-.12,0a.34.34,0,0,1-.28-.12h-.1l-.1-.09-.08.14h.18c.11.11,0,.18,0,.26h0c-.09,0-.11,0-.06-.12l-.14.08c0-.08.07-.18,0-.24-.1.11,0,.16,0,.24s-.12-.06-.14-.1a.12.12,0,0,0-.21,0c-.15-.12,0-.29-.09-.43l-.15.07v-.19c0-.1.06-.22,0-.27s-.07,0-.11,0l.12.28h-.24c0-.1,0-.28-.22-.31,0,.1,0,.12.1.13v.34l-.13-.14V38h0c0-.14-.09-.21-.24-.23a.83.83,0,0,1-.27-.12v.13h0c-.07-.08-.15-.16-.06-.28h0c-.09-.08-.17.13-.27,0,.06-.12.36-.16.13-.38-.07.07-.13.17-.25.11s.07-.14.06-.21a.51.51,0,0,0-.1-.21h.05l.15.31v-.41h0c.13-.08.07.11.16.1v-.27l.17.15.11-.07c-.1-.1-.14-.2-.06-.32a.24.24,0,0,0,0-.26H46a.35.35,0,0,0,.05.08c.13.16.13.2,0,.36s.27.22.25.43l-.11-.07c0,.23.08.25.39.28l.1.26-.23-.16v.27l.21-.11.09-.1.09.12v.11a.61.61,0,0,0,.3-.4c0,.1.18.08.15.21s0,.06.06.05.08-.05.07-.06.07-.09.09-.08.1.09.09.1a2.48,2.48,0,0,0,.09.31l.23-.1h-.18v-.16h0c.18.09.4.09.5.3h0l-.13.05.23.1h0a.17.17,0,0,0,.19.1h0a.43.43,0,0,0,.16,0,1.09,1.09,0,0,0,.17-.13h0a4.27,4.27,0,0,0,.48.13l.45.06c.19,0,.19,0,.23.21v.07l0-.28v.31a.5.5,0,0,0,0-.38l.26.12-.06-.16h.34V38h0l.07-.16c.26,0,.26,0,.23.18h.35v.15c.1.09.1,0,.14-.08l.09.12.08-.11h0c0-.06.09-.08.1-.17s.17,0,.25-.07l.15.14c.07-.23.21-.3.46-.24,0-.13,0-.17.12-.22l.33-.2h.11c.06,0,0-.13.1-.16a5.15,5.15,0,0,1,1.43-.8c.2-.06.38-.18.58-.25l1.43-.52a5.68,5.68,0,0,1,1-.27,5,5,0,0,0,.63-.19v.13a.18.18,0,0,0,.1-.16.38.38,0,0,0,.27-.07,2.12,2.12,0,0,1,.44,0h.06c.17.12.18.12.33,0v.24c.09,0,.1.07.16.1l.12-.09.06.17-.11-.06v.17h0v-.11a.93.93,0,0,1,.06.57,6.82,6.82,0,0,0-.1.79.61.61,0,0,0,0,.27.13.13,0,0,0,.22.07c.11-.09,0,0,.06,0s.18,0,.22-.1c.11.07.17.17.3.14s.15.11.21.18a.29.29,0,0,0,.22.1,4.79,4.79,0,0,0,1.07-.1L63.74,37l.06.09h0V37l1-.26v.12l.13-.06-.05-.15.12.1c0-.11.1-.14.2-.13v.91l-.72.19a1.05,1.05,0,0,0-.24.06,12.42,12.42,0,0,1-2,.49l-.82.14a.79.79,0,0,1,.1.45.2.2,0,0,0,.11.21.5.5,0,0,1,.19.24c.17.44.33.87.49,1.31,0,.12.16.22.13.37s.07.08.1.13l.7,1.14a1.46,1.46,0,0,0,.16.19c.19.2.35.43.56.62a.42.42,0,0,1,.14.27c0,.09.12.17.18.29l-.22-.1v.14L64,43.53l-.09.17-.08-.11a.2.2,0,0,1-.08.19Zm-16.78-5.8c-.06,0-.1.09,0,.17v-.17l.06-.06h-.07Zm4.2.15h-.3l-.09.25h.12a.15.15,0,0,1,.11-.18H51c0,.11,0,.15.1.12ZM45.6,37.5h.09a.6.6,0,0,0-.12-.32h0Zm7,1.22-.12-.13a.11.11,0,0,1-.09.11h-.18c.15.11.24,0,.38,0Zm-4.88-.79c.17-.16.05-.24,0-.33l-.21.09c.18,0,.27.05.2.24Zm-.92-.43H47c-.13-.11-.13-.11-.25,0Zm-1.2-.63c-.12.06-.12.06-.08.23a.35.35,0,0,0,.07-.23Zm.33.6c0,.11,0,.14.07.16s0,0,.06-.06Zm18,5.8h-.06l.06.16h0v-.11s0,0,0,0ZM47.2,37.41c-.15.1-.06.14,0,.19Zm13.14-.16Zm-14.57,0,.14-.15c-.11,0-.17,0-.14.11Zm5.28,1.36h.05L51,38.47h0Zm11.08,3h0l.09.14h0Zm-1.28-3.22h-.06v.06ZM48.05,38c-.07.08-.16.11,0,.18Zm-.91.1h0l-.09-.1h0Zm.38-.31Z"/><path d="M25.64,49.73l.23.14.18.13-.07.41.31.17c.1,0,.19.1.22.22s.06.07.1.11a.4.4,0,0,1,.12.21c0,.17,0,.17.24.18v-.23c.12,0,.15.09.22.14-.16.14-.08.29,0,.46h.14l.06.17h0V52a.18.18,0,0,0,.2.18c0,.28.22.36.34.55H27.8L28,53c.1-.06.1-.06.1-.21.21.11.21.33.26.53,0,0-.09,0-.09.07a1.31,1.31,0,0,0,0,.28c0,.06.05.12.08.21h-.15a.19.19,0,0,1,0,.27h0l-.32.55-.18.29c.24,0,.17.22.31.25l-.07.16-.15-.12a1.65,1.65,0,0,0-.2.37.33.33,0,0,0,.07.23h-.25v0l.18.12h-.39l-.1-.06c.08-.12,0-.11-.09-.17l-.11.17c-.11-.09-.09-.28-.25-.32a1,1,0,0,0-.17-.37h-.06a1.06,1.06,0,0,1,.12-.55c.07-.13.15-.22.32-.17a.43.43,0,0,1,0-.16.49.49,0,0,1,.12-.13h-.14c.12-.17.23-.35.34-.54s.1-.28-.1-.44l-.12-.11c-.12-.11-.12-.11,0-.3-.13,0-.16-.07-.12-.19h-.16V52.6h.13v-.27h0l-.07.19a.17.17,0,0,1,0-.1.54.54,0,0,1,0-.18.82.82,0,0,0-.47-.65h0a1,1,0,0,1-.23-.13.73.73,0,0,1-.08-.25H26l-.14-.1v.16L25.33,51a.44.44,0,0,0,.11-.31c0-.1,0-.11-.14,0h0a.16.16,0,0,1-.14-.18l0,0c0-.11.07-.22,0-.31s0,0,0-.07a2.15,2.15,0,0,1,.1-.31h.2c-.18-.15-.1-.27,0-.4a3.92,3.92,0,0,0,.13-.49l.16.07h0v-.13a.47.47,0,0,0,.08-.38h.09v.17l.15.12h0c-.16,0-.12.19-.16.29l.12,0v.24l-.13-.2c0,.06-.06.11,0,.13s0,.16-.05.23h-.14c0,.12-.11.24,0,.35h-.18c0,.13-.2.22-.09.39,0-.07,0-.18.07-.18S25.59,49.82,25.64,49.73Zm.17,1.21V51l.15.06-.07.24H26a.65.65,0,0,0,.32,0,1.49,1.49,0,0,0-.27-.23Zm1.36,1.58c.17-.16.17-.16,0-.28C27.27,52.36,27.05,52.41,27.17,52.52Zm-1.42-2.38h.06c0-.06,0-.13-.13-.14Zm.56.85-.19-.1v.2Zm-.62-1.87h0l.09.14h0Zm1.68,6.62.06-.21C27.31,55.61,27.33,55.67,27.37,55.74Zm-.93-4.6h-.06s-.09.1,0,.17Zm-1-1.76s-.2.1,0,.16Zm1,2,.15-.09-.13-.06Zm-.21.24c.06,0,.12,0,.14-.07Zm1,.26h0V52h0Z"/><path d="M36.8,31.36c.13,0,.13,0,.25.16v-.24l.49-.15c0,.22,0,.22-.13.33l-.15-.12a1.43,1.43,0,0,1-.08.22l-.11.16c-.14-.12-.26,0-.36.05l.34.3h0v.18l-.19-.15h0a.67.67,0,0,0,0,.2.15.15,0,0,1,0,.22l0,0a.41.41,0,0,0-.08.24l.12-.11.25.41-.41.17.28.55h-.34c0-.1-.09-.21,0-.33l-.14-.08v.12l-.11-.15-.21.07h.16l-.18.06c0,.12.1.12.19,0l.44.57H36.6V33.9s0,.13.06.16a.5.5,0,0,0,.2.29h0a.24.24,0,0,0,0,.12.48.48,0,0,1,0,.29h-.08v.07c0,.07,0,0,.06,0s0,0,0-.07l.11.43v-.34l.43.18h0a.19.19,0,0,0-.05.1.49.49,0,0,0,.25.37c.07-.06.09-.13,0-.2s-.07-.16.08-.25H37.5v-.21h.07l-.1-.2c.13,0,.14,0,.27.27h.31l-.2-.14v-.09a.39.39,0,0,1,.1-.08l.11-.06.2.18.06-.18h0v.26h.28s.06-.08.1-.1a.19.19,0,0,1,.22.13h-.18v.06l.31.12.08.06h0c-.06,0-.17,0-.21.09h-.16l-.26.21v-.14h-.1v-.11c-.08,0-.16-.1-.24,0s-.1,0-.15,0h0l0-.11c-.06.07-.15.13-.14.18s-.15,0-.13.1h0a.55.55,0,0,0,0,.31.11.11,0,0,1,0,.08l-.06.15-.1-.13c-.12.08,0,.2-.06.29h0c-.1-.08-.1-.19-.06-.35-.11.1-.18.22-.3.1l.06.48c-.16-.17-.27-.36-.54-.22l.09.19c0,.08.11.15.06.26l-.08-.06-.08-.06h0c-.16,0-.16,0-.21.13l.17-.09v.19s.11.1.18.17v-.13H37l0,.14-.2.13c.32,0,.35,0,.35.3h.11c0-.17-.15-.29-.08-.47l.15.18.15-.1h0a.16.16,0,0,0,.13.16h.32v-.17a.21.21,0,0,0,.29,0l0,0v.2h.12c0,.08,0,.11.09.15s0-.16-.1-.15v-.4h.14s.09.09,0,.15a.12.12,0,0,0,0,.17l0,0a.27.27,0,0,0,.17.1c.06.1.13.22,0,.33s0,.08,0,.12h-.1v.16L38.36,37c-.11.08,0,.17,0,.25h-.11v.26l.07-.15.31.55h-.27l.37.43a.14.14,0,0,1,0,.21h0l.16.41-.48.21-.2-.21c-.07.06-.06.17,0,.17s.13.18.16.28h0l-.32-.14c0,.18,0,.26-.18.25v.31h-.11c0-.07.08-.15,0-.23a.49.49,0,0,0,0,.17l.07.06c.07.06-.06.11-.11.14a.24.24,0,0,0-.06.33.34.34,0,0,0-.45.17.19.19,0,0,0,0,.07.61.61,0,0,1-.13.22v-.14s0-.07.08-.09h0v-.19l-.17.1L36.64,40v.22h0l-.17.09L36.39,40h-.14a3.74,3.74,0,0,0-.1-.67c-.06-.13-.15-.25-.22-.38h-.07v-.3c0-.1,0,0-.06-.07h0a2.07,2.07,0,0,0-.29-1c-.2-.38-.42-.75-.63-1.13a1.06,1.06,0,0,0-.17-.26c-.17-.14-.17-.36-.32-.51a2.49,2.49,0,0,1-.35-.5c-.08-.15-.18-.29-.27-.44a.14.14,0,0,1,0-.09c0-.08,0-.12-.08-.17s-.08-.13-.12-.21a.61.61,0,0,0,0,.42A9,9,0,0,0,34,35.9l.27.75h0a2.81,2.81,0,0,0,.24.76c.07.26.09.4.14.6s0,.19,0,.31l-.27.13-.06-.34h0a.21.21,0,0,1-.21.22c-.14,0-.06.09-.1.15v-.12h-.1s-.12.18-.25.09-.14.06-.19,0a.75.75,0,0,1-.1-.2l-.13.18h.11s-.07.1-.11.1-.19,0-.11.18v.08h-.26V38.5h0v.11h-.14c-.06,0-.12,0-.15.08s-.13.09-.2.13l.06.26h0l-.1-.24-.2.11H32s-.1.07,0,.13l.17-.1a1.13,1.13,0,0,0,0,.26c0,.11-.1.1-.15.1s-.27-.16-.24-.25-.09-.17-.15-.25l-.2-.2c-.09-.07-.19-.13-.28-.21s0-.07,0-.12H31v.16H31a.8.8,0,0,0-.23-.48v-.24l.25.17h.19l.06-.17-.31-.15a.41.41,0,0,0-.22,0c-.1,0,0,.13,0,.2s-.12,0-.18,0-.09-.06-.11-.12l-.12.07v-.41c.12.08.14.19.24.23s.15,0,.16-.08.16,0,.17-.14H31V37l-.12.14-.36-.31c-.06.07.11.23-.07.27l-.2-.3-.12.16.09.21h0L29.69,37l-.13.12h.17v.23l-.23-.16h0c0-.15-.14-.09-.15-.22v.17h-.16v.14h0l-.14-.11-.34.21-.09-.22h0v.15c-.08-.13-.32-.07-.31-.3l.14.06c0-.1,0-.15-.09-.16s0,.14-.13.2a3.19,3.19,0,0,1-.38-.26.68.68,0,0,0-.67-.13c-.22.06-.39.18-.6.25l-.85.32c-.29.11-.45.18-.68.25s-.49.21-.75.28a4.33,4.33,0,0,0-.54.21,1.3,1.3,0,0,1-.44,0v.1c-.14,0-.24.22-.42,0a.32.32,0,0,1-.2.27,3.42,3.42,0,0,1-.75.29c-.07,0-.13.08-.2.11l-.64.25-.64.28a1.66,1.66,0,0,1-.31.12,2.32,2.32,0,0,0-.53.24,3.36,3.36,0,0,1-.91.35.55.55,0,0,0-.22.1c-.55.24-1.09.5-1.64.72s-.93.41-1.39.63a10.71,10.71,0,0,1-1.63.62c-.34.09-.67.2-1,.3a.92.92,0,0,0-.4.15h-.21v-.17l.13-.1c.08-.06.07-.12,0-.19L12.15,42,12,41.82H11.9v0l-.39-.2.11-.22.14.1.07-.17-.29-.16.1-.22h-.37c.08-.17,0-.28-.12-.39l-.07.06v-.15l-.16-.07a.09.09,0,0,1,0-.16l.24-.14a1.38,1.38,0,0,1,.29-.08c0-.12-.1-.26.06-.36a.24.24,0,0,0,0-.12c-.06-.08,0-.12.06-.12a.26.26,0,0,0,.28-.11H12a5.09,5.09,0,0,1,1-.4c.28-.1.56-.22.83-.34.75-.35,1.5-.7,2.27-1,.4-.19.8-.41,1.18-.64l.78-.42c.37-.2.75-.4,1.11-.61a3.18,3.18,0,0,0,.37-.27l.37-.22a2.7,2.7,0,0,0,.52-.3,1.35,1.35,0,0,1,.42-.2c.44-.2.88-.39,1.33-.57.24-.11.51-.19.74-.32a4.18,4.18,0,0,1,.91-.35l1.32-.4-.32-.39.2-.09.07.21.2-.26.19.1v-.15h-.12c-.05-.09-.11-.18-.17-.27h-.19l-.16.17-.28-.09c-.06.18-.08.19-.21.07l-.24-.24v-.12l.22.12h0a3.17,3.17,0,0,0-.16-.66.49.49,0,0,1,0-.17h0v-.1s0-.29-.23-.3h0V31l.13-.11L24,30.59c.14,0,.14.2.3.12L24,30.34l-.12.09.14.46h0l-.06-.09-.07.08-.21-.27a.61.61,0,0,1-.45.24c-.06-.09-.1-.23-.26-.18s-.07-.07-.06-.1a1.94,1.94,0,0,1,.07-.33h-.13a.11.11,0,0,1-.09-.06l-.3.22c0-.07,0-.08-.08-.1a1,1,0,0,0-.06-.49l-.11.22.17.27L22.1,30c0,.15.13.13.22.15l-.12.12c-.11-.14-.27-.24-.28-.45v-.06c-.25-.06-.11-.25-.1-.4l.12.14h0a.79.79,0,0,0-.06-.22.21.21,0,0,0-.1-.21c-.1-.06-.09-.16-.12-.25a.49.49,0,0,1,0-.17v-.17c-.07,0-.22.06-.23-.11h0c.07,0,.08-.18.2-.12L21.7,28c.23.06,0,.17.07.24l.1-.05a1,1,0,0,0,.07.15h.14l-.06.14h.12s0,.06.06.11l.09-.11.13.1v-.22c.14,0,.07.11.09.17s0,.14.11.15h0a1.67,1.67,0,0,1,0-.77.2.2,0,0,0-.16-.23l-.07.12V27.7c0-.06.09-.12,0-.18h0v-.1l.18-.06c-.08,0-.18-.07-.18.07a.28.28,0,0,0-.37.17v0a.64.64,0,0,1-.13.15c0-.17-.28-.21-.15-.45h0l-.07.11c-.16,0-.2-.16-.26-.29s-.15-.24-.36-.22l.15-.22c.07.16.14.3.32.28l.08.31c.21-.14.21-.14.22-.3H22a.86.86,0,0,1,.13-.2l.09.21h.2a.27.27,0,0,0,.08.22l.17-.14v.19c.08-.13,0-.15-.05-.18s-.06-.19-.19-.18l.15-.15.09.15.07.09a.27.27,0,0,1,.17.24h-.13c.07.06.12.09.15,0,.2,0,.27,0,.27-.3-.16-.06-.06.13-.15.14s0-.19,0-.29l-.19-.18L23,26.4l.07.21h.15c-.13-.27-.22-.54-.36-.78a2.8,2.8,0,0,1-.36-1l-.09-.17a1.08,1.08,0,0,1-.08-.19,1.94,1.94,0,0,0-.17-.42,1.38,1.38,0,0,1-.15-.4,1.3,1.3,0,0,0-.11-.37c-.1-.34-.21-.68-.32-1,0-.09-.09-.17-.12-.26L21,21c-.06-.16-.13-.32-.2-.48s-.13-.27,0-.42a.57.57,0,0,0,.12-.39c0-.13,0-.11-.07-.17l-.19.16a1.87,1.87,0,0,0,.08.32c0,.11,0,.06-.06.09a.54.54,0,0,1-.13-.75l0-.05.13.11.09-.35c.09,0,.11.12.21,0s.12,0,.14-.12.14,0,.17-.08.15-.07.24-.1l.3.06-.1,0h0l.06.05.08-.06.23-.14-.05.39h0l.21-.21a.65.65,0,0,1-.07.35l.19.06a.45.45,0,0,0-.07-.29c-.07-.1,0-.08-.05-.12s-.17-.1-.12-.23,0-.14,0-.22L22,18.6,22.1,18c.11.07.22.11.24.27l.25-.17.15.19a2,2,0,0,0,.15-.59V18c.2,0,.09-.14.11-.26l.11.09h0l.08.1.16.21.12.17h.09a.82.82,0,0,0,.15.57c.1.17.18.35.27.53a1.68,1.68,0,0,1,.11.3c.12.3.22.61.37.9s.36.66.54,1,.41.54.56.85a2.35,2.35,0,0,0,.26.29l.56.7a1.33,1.33,0,0,0,.27.26.63.63,0,0,0,0-.3,5.11,5.11,0,0,0-.27-1c-.07-.34-.18-.41-.07-.63a1.39,1.39,0,0,1-.1-1l.09.3h0l-.09.24h.21v-.15h.18L26.44,21c.17-.14.16-.26,0-.41,0-.06.14-.09,0-.18s0-.06,0-.08a2,2,0,0,0,.23-.72.92.92,0,0,0,.28.09.58.58,0,0,0,.25-.09l.13.24c.1-.17-.15-.21-.06-.39l.2-.14h0c.08-.05.15.15.23,0s-.17-.05-.15-.13l.26-.24a.1.1,0,0,1,.15,0h0l.21.16.14-.14h0a.76.76,0,0,0,.09.28c0-.07.21,0,.16-.19.1,0,.11.16.16.17s.11.08.18.15v-.14h.26c0-.12-.11-.24,0-.36h0l.12.22v-.22c.16.16.39.22.39.48h.18l-.12.29.26.38c.06-.1-.12-.23.07-.25.09.16.09.16,0,.31a.18.18,0,0,1,.24.11h0c.23.49.48,1,.71,1.46a4.88,4.88,0,0,1,.29.66.44.44,0,0,0,.11.24.68.68,0,0,1,.18.32,1.47,1.47,0,0,0,.14.28c.13.27.3.54.45.81V24l-.15.08c0-.35-.13-.5-.33-.57v.14l-.13-.28h-.27v.19a.25.25,0,0,1,.22.22v.35a.3.3,0,0,0,.3-.18.11.11,0,0,0,.08.13c.08,0,.07,0,.1.05v.37l.36-.26a2.6,2.6,0,0,1,.4.71,6,6,0,0,0,.25.58l.05.07c0,.07,0,.32.14.46a1.67,1.67,0,0,1,.23.44h0a9.53,9.53,0,0,0,.38.93,1.68,1.68,0,0,0,.2.34c.08.12.13.25.21.36a.55.55,0,0,1,.14.32.15.15,0,0,0,.15.15h0c0,.1.09.2.13.31a3.61,3.61,0,0,0,.16.42,2.78,2.78,0,0,0,.33.51.87.87,0,0,1,.14.42.08.08,0,0,1,.07.06h0s-.08.09,0,.15l.22.26c.12-.17.2-.32,0-.47l.26-.21a.76.76,0,0,0,0,.59l.14-.1h0v.11c.11-.08.18-.18.31-.17h0a.12.12,0,0,0,.11-.07c0-.07.18,0,.29,0l.1.19a1,1,0,0,0-.34,0c-.09,0-.24,0-.18.21-.18-.08-.2-.07-.22.07s0,.27-.23.35a1.83,1.83,0,0,0,.08.25c0,.1.11.19,0,.3h0l-.2-.08c0,.17.12.09.19.08l.19.19v-.19h.06v.11l.14-.09c0-.11-.14,0-.22-.08V31.6l.1.07a.48.48,0,0,1,.26-.3,1.33,1.33,0,0,0,.19-.14ZM30.33,36.6l.14-.07-.14-.05a.24.24,0,0,0,0,.12c-.06,0-.12,0-.15.06Zm5.43-5.66a.39.39,0,0,0-.09.29.22.22,0,0,0,.09-.29l.14.11a.09.09,0,0,0,0-.1ZM22.65,29c0-.16,0-.16-.16-.08l.16.07v.11h.17c-.15-.09.12-.22-.07-.32A.56.56,0,0,0,22.65,29Zm11-1.11c0,.07-.09.16,0,.24V27.8h-.33l.07.15Zm2.73,5.26.06-.31c.07,0,.2-.11.19-.14a.38.38,0,0,1,.18-.23l-.09-.23c-.07.08-.15.12-.17.19s-.07.28-.11.42L36.3,33l.08.15c.13.08.17,0,.23-.11l.14.11v-.34c-.1.08-.22.15-.21.18s-.11.1-.17.13ZM23.14,29.39a.2.2,0,0,0-.05-.21H23l.15.17v.11c-.07.12,0,.18.07.22s.1-.08.1-.12a.54.54,0,0,0,0-.18.09.09,0,0,0-.17,0Zm1.75,2,.22.15h.07l-.13-.21h-.18c0-.06.12-.12.11-.18a2.06,2.06,0,0,0-.12-.35.33.33,0,0,1,0,.14l-.1.08.16.16c-.11.08-.12.13,0,.18Zm-1.76-2.6V28.6h-.06l.09.17.05.17h.16s.07.07.12,0,.07,0,.1,0a.39.39,0,0,1-.06-.11v-.14Zm-.47-4.36-.11-.14h0v.14h.13a.26.26,0,0,0,0,.27c.08.11.1.21,0,.31h.15v.16c0-.14,0-.14,0-.16l.15-.3c.05-.1,0-.15-.08-.17a.25.25,0,0,1-.19-.14Zm13.39,8.68.16-.06v-.24l-.16.19,0-.4c-.06.11-.18.08-.2.2H36c-.11.15-.17.29,0,.42l-.15.2A.31.31,0,0,0,36.05,33.11Zm1.41,4.54h.08a.28.28,0,0,0,0,.18.66.66,0,0,0,.09.19l.14-.07.06.18.08-.25a1.88,1.88,0,0,1-.18-.24c-.08-.14-.11-.14-.23,0v-.13c-.09.09-.09.14,0,.19ZM24.29,30.12c-.08.15-.08.15,0,.21V30h.21a.63.63,0,0,0-.31-.27.24.24,0,0,0-.08-.21v.18h.11l.07.15-.07.05s0-.11-.06-.12a.09.09,0,0,0-.14.1C24.05,29.94,24.05,30.16,24.29,30.12Zm12.2,4.05h-.18V34l-.26-.39c-.07,0-.09.09,0,.15s0,.08,0,.12h-.11a.31.31,0,0,1-.06-.13l-.15.27-.1-.16a.3.3,0,0,0,0,.41,2.9,2.9,0,0,1,.19.29c.15.22.14.23.36.11h0a1,1,0,0,1,.09-.28l.35.26v-.06l-.2-.17Zm-1-1-.24.07a.87.87,0,0,0-.07.17.49.49,0,0,0,0,.17h0V33.4h.17v.13h0V33.3s.08,0,.09.07a.38.38,0,0,1,0,.15c.19-.08.11-.21.11-.31l.13-.06-.2-.31V33h0Zm.56,2.69c0-.1.17-.14.06-.25l-.13.17c0-.14,0-.23-.17-.22V36a.22.22,0,0,0,.1-.11H36l.08.1h.18Zm-11.3-4.13h.06c-.06-.14.06-.3-.08-.43,0,.07.06.21-.1.23l-.08-.23c-.14,0-.23,0-.24.17a1.17,1.17,0,0,1,.24.09Zm12,5.47v-.52c-.11.08-.18.22-.1.27S36.61,37.11,36.7,37.2Zm1.23.72c.1-.08.11.16.21,0-.14-.13-.13-.13,0-.29s0-.07,0-.1h-.23C37.93,37.69,38.05,37.78,37.93,37.92ZM22.71,29.77l.22.26h0l.12-.17Zm14,9.86v-.16c-.16-.11-.2-.1-.27.06ZM36.24,35c-.09.21-.09.21.13.35ZM22.61,29.9l-.23-.07V30c.06,0,.15.05.23-.08ZM11.16,40.39l.19.09-.1-.32Zm.91,1h0l-.07-.26-.11.11ZM32.81,26.15a.61.61,0,0,0,0,.19l0,.08h.06a.11.11,0,0,0,0-.08A1.18,1.18,0,0,0,32.81,26.15Zm-2.54,9.78H30.2v.36C30.3,36.16,30.23,36,30.27,35.93Zm4.51-4.1c0,.1-.06.19.06.24S34.8,31.91,34.78,31.83ZM22.84,27.91c-.08,0-.12.06-.07.13a.29.29,0,0,1,0,.13v.11h0ZM35,34.42v-.16h-.2Zm-.82-5.35.11-.16C34.11,28.91,34.11,28.91,34.13,29.07ZM11.53,39.94c.17-.14.17-.14,0-.22Zm26-.15c.06,0,.07-.11,0-.15h-.09C37.42,39.74,37.46,39.78,37.53,39.79Zm-13-9.62h0l.16.22h0Zm-.66-.73h0l.06.19A.24.24,0,0,0,23.87,29.44ZM38,37.27c-.07.13-.07.13,0,.23Zm-.38.11.08-.24C37.53,37.19,37.5,37.25,37.57,37.38ZM21.92,28.72c-.15.13,0,.17,0,.24h0Zm15,2.81h0c-.06,0-.16,0-.14.17Zm-.56,3.93h0l.17,0c0-.12-.13,0-.18,0Zm-1-1-.13-.05v.19Zm-.82,0v-.18c-.14.06-.17.11,0,.16Zm-1.69-4.77c-.07,0-.19.06-.09.19Zm-7.41,3.4c.12,0,.12,0,.09-.15Zm-2.87-4c-.05,0-.07-.07-.09-.07H22.4c-.08,0,0,.05.06.06Zm8.78,9.28h-.13l-.06.09ZM21,20.12l.15-.07C21.05,19.94,21,20,21,20.12Zm3.92,11.37c0,.16,0,.16.1.2Zm5.17,5.09h0v.19h0Zm1-6a.14.14,0,0,0,0,.2l0,0Zm-8.5-2.87.17-.19c-.12,0-.18,0-.16.17Zm8.74-5h0v-.06a0,0,0,0,0-.09,0c0,.06.08.05.1.08ZM21.9,28.65v0l-.12-.1h0Zm10.62,6.56c.15-.08,0-.11,0-.16Zm-9.4-9.53h0l.08.16h0Zm10.24,2.71H33.3v.1h0Zm1.4,6.39h.06c0-.07.11-.08,0-.2Zm.77-.25v0l.16.06h0Zm-3.32.86c0,.12,0,.12.08.11ZM30.93,22.5v.05H31s.1-.05.06-.07Zm-7.51,7h0v.19h.06Zm8.76-1.06h0v-.09h-.06ZM25.6,33c.07-.07.16-.1,0-.16Zm5.52-2.48h.06V30.4h0Zm.11,1.3c-.09.11-.09.11,0,.14Zm-.18,6.27V38l-.09.07h0Zm4.28-6.76h-.06v.13h0Zm-3.28,7.23h0v.11h0Zm-8.13-.82h0v-.09h-.05Zm8.7-12.49V25.2h0v.06Zm4,14.44h-.09l.06.06Zm-13.8-21.2h.08v0c0-.05,0,0-.06-.06ZM35.65,32.65h0l.06-.13h0ZM11.76,40.24h0Zm-.13.58h0v-.11h0A.54.54,0,0,0,11.63,40.82Zm11-16.09h-.06v.15h0Zm12,8.77h0l.1.08h0Zm-2.24,2.34h0v0Zm-.1-11.34,0,.07h0l0-.05C32.34,24.47,32.31,24.53,32.29,24.5Zm3.6,11h0l-.06-.17h0Zm-3-7.79h0v.11h0Zm-1.56-3.92c-.14,0-.13.07,0,.14Zm1.72,11.49v-.05l-.07-.1h0Zm3-.28h0a.18.18,0,0,0,0-.15h0Z"/><path d="M13.57,22.81l.11-.6h0l-.15.23a.54.54,0,0,0-.12-.44c.1-.25.2-.49.31-.72a.56.56,0,0,0,.09-.36.63.63,0,0,1,.06-.27c-.08,0-.19-.08-.31,0s-.07-.06-.11-.09H13.1v-.17H13v-.15h-.16v-.18h0l-.06.13c-.09,0-.07-.16,0-.26l.12-.09c0-.15-.14-.13-.29-.06l.14-.24h.1c0-.1-.06-.25.14-.3v.33H13v-.1h.09v-.32c-.14,0-.17-.06-.15-.21l-.28.17c0-.11,0-.11.14-.17l-.15-.27h.21a1.76,1.76,0,0,1,.12-.39c0-.13,0-.08,0-.13s.07-.07.06-.1.14,0,.15-.12a1.11,1.11,0,0,0,0-.2s.15-.12.16-.23.08-.11.17-.06.17.11.31,0a.39.39,0,0,1-.05.22l.17.24c.09-.09.2-.16.24-.26a.22.22,0,0,1,.29-.12h0c.22.09.43,0,.65,0,.06,0,.13-.1.21-.16.1.1.24.15.24.32l.1.07.13.07s.1-.1.13-.09.09,0,.16-.07l.15.18,0-.08.05.12-.2.05h0a.22.22,0,0,1,.18.15c.07.25.29.38.48.53h.1s.18,0,.19.14.14.11.24.09h0a1.72,1.72,0,0,0,.34.46c.1.11.17.25.29.32a.89.89,0,0,1,.31.38.6.6,0,0,0,.2.27A3,3,0,0,1,19,21l-.08.11h.09s-.07.07,0,.12a.79.79,0,0,1,.26.31l-.25.21.3.53v.39c0,.14,0,.05.06.08l.12.16c-.19.06-.28,0-.31-.23h0V23a.35.35,0,0,1,.22.14.64.64,0,0,0,.3.16v-.16a.38.38,0,0,1,.13.09,2.39,2.39,0,0,1,.13.21l-.16.25c.15.08.11-.12.22-.12v.28a.21.21,0,0,0-.06.21l.08-.14c0,.14,0,.14-.26.31l-.37-.39v-.26l-.18,0c-.06,0,0,.18,0,.28a.58.58,0,0,1,.08.18c0,.12-.07.18-.2.17H19c.13.16.32.27.16.49h.15l.11.12-.25.11c.2.12.15.29.16.44h0c-.11.1,0,.15,0,.21h.18s0,.15.1.19h0v.36h0a.47.47,0,0,0-.32-.21.15.15,0,0,1-.09-.06c-.06-.11-.1-.22-.24-.27s-.1-.16-.14-.25,0-.09,0-.12,0-.15.06-.2.09.17.21.14.06.07.07.07a.12.12,0,0,0-.07-.17s0,0,0,0l-.13.13c0-.14.1-.3,0-.43h0l.12-.25h-.12a1.42,1.42,0,0,0-.08-.18.48.48,0,0,0-.16-.08v-.31h.08v-.06a.36.36,0,0,0-.24-.34c-.16-.06-.08-.12-.14-.2a.12.12,0,0,1-.17.11h0a.33.33,0,0,0-.16.28h-.11v.12l.11.21h.06l.13.31c.05.11.06.18,0,.26h0v-.06h-.15c0-.15-.1-.16-.2-.17h0l-.15-.25c.25-.09,0-.26.12-.36h-.2l-.08.12-.12-.17h.1v0l-.27-.3-.16.14c0,.12.14,0,.22.06V24c0,.1-.14-.07-.15-.12a1,1,0,0,0-.22-.35c-.12-.17-.24-.33-.37-.49-.21.12-.19.43-.45.49l-.09-.2c-.13,0-.25.05-.38.06v.18l.2.06.13-.1a.44.44,0,0,1-.12.57.52.52,0,0,0-.11.19,2.49,2.49,0,0,1-.11.29c-.13.22-.27.43-.41.65h-.12v.24a3,3,0,0,1-.33.6.91.91,0,0,1-.21.18c-.22-.24-.24-.25-.54-.08l.15.18.18.16h.09a.21.21,0,0,1,.1.15s-.1.3-.14.45-.11,0-.11.1a1.61,1.61,0,0,1,0,.31,4.13,4.13,0,0,1-.3.92l-.08.07s-.06,0-.06.05-.13.3-.08.47a.36.36,0,0,1-.15.36c-.08.08-.11.15-.05.25a.17.17,0,0,1-.24,0h0a1.19,1.19,0,0,1,.22-.33.22.22,0,0,0,0-.3h.08a.63.63,0,0,0-.26-.44l.06.22V29h0l-.16-.09c-.19.17-.19.18,0,.35l-.26,0,.1.15a.76.76,0,0,0-.38.39c-.07,0-.22,0-.22.11a.26.26,0,0,0,.25.26c0,.15-.14.06-.22.07v.23h-.14c.12.15,0,.25-.07.38l.09.16h-.07a1.26,1.26,0,0,1-.13.26c-.08.07-.12.13-.07.22s0,.12,0,.15a1.14,1.14,0,0,1-.23.15l-.09-.23-.14.18-.15-.12.25-.23c-.19-.09-.19-.09-.33,0l-.06-.11h-.07c-.06.1-.11.21-.17.32h0l.13-.1h0l-.13.26.08.06h0l.1.29.1-.09h0s-.05.09,0,.1a.13.13,0,0,0,.11-.05.17.17,0,0,1,.07-.14c.07,0,.08,0,.12-.08s.07.2.13.24.15,0,.26,0l.16.13-.22.46-.14,0a.89.89,0,0,0,0-.23c0-.11-.08-.13-.2-.1s0,.18.17.33v.16c-.13,0-.21-.18-.33,0,0,0,.08-.11,0-.17v.17l.24.18L12,32.8a.57.57,0,0,1-.11.4c-.06.07,0,.2-.14.21v.15c-.1-.06-.19-.06-.24,0h-.07c.11-.14,0-.27,0-.45l-.3.29-.09.19c.13,0,.12-.11.08-.19h.19a.34.34,0,0,1-.21.34c-.16.07,0,.26-.09.26s-.05.17-.15.2,0-.14,0-.15a1.74,1.74,0,0,0,.08-.32l-.25.1.14-.33-.31.06.07-.14h.07v-.09h0v-.09s.08-.09.07-.14a.87.87,0,0,0-.07-.17c.08,0,.14,0,.11-.16a.28.28,0,0,1,0-.28v-.13c0,.13-.13.15-.16.23s-.12.18-.15.28a1.5,1.5,0,0,0,0,.3c-.05,0-.13,0-.1.07a.84.84,0,0,0,0,.17h0l-.19.12s-.1.06-.1.09a1.22,1.22,0,0,0,0,.27l.09.18.13-.1c.22,0,.08.26.28.26-.08.13,0,.33-.25.34v.21l.09-.08.07.08a1.1,1.1,0,0,1,.06-.26c0-.06,0-.16.15-.1v-.19l.11.17a.38.38,0,0,0,0,.15c0,.14-.18.16-.16.3h-.38v-.11h-.16a.67.67,0,0,0,.16-.66c-.14.14-.15.16-.11.36a.31.31,0,0,1-.17-.17c-.12,0-.13.08-.14.16s-.13.07,0,.2l-.2-.13v.08a.18.18,0,0,0,.27,0v.07l-.18.13s0,.18-.17.12c.14.26.15.3.13.48H9.59v.17c0-.11.22,0,.15-.15h.35l.06.06v-.12c.13.06.13.08,0,.25a.36.36,0,0,1,0,.41v-.26h0v.14L10,36c.25.15.07.32.05.48s0,.09.07.13c-.29.13-.06.3,0,.47H10a.21.21,0,0,1,0,.29.4.4,0,0,0-.18.41V37.5l-.24.17.13-.33a1.14,1.14,0,0,0-.19.19c0,.06-.08.14.06.14s-.19.2-.14.35.12-.13.19-.22c.09.1,0,.2,0,.3L9.88,38v-.21h0v.3L10,38a.19.19,0,0,1-.06.26c-.12,0,0,.12-.06.17h0c0,.13,0,.13-.17.1v.14l-.23-.11v.19h.15l-.26.43H9.18a1.43,1.43,0,0,1-.28.07v-.31h.15v-.13H9v-.18l-.2.3-.13,0v.07a.29.29,0,0,0,.08.14c.18.09.16.25.2.41h.16v.07s-.11.1-.08.2H8.84v.12a1.13,1.13,0,0,1-.26,0c-.06,0-.16,0-.17-.1s0,.2-.18.08l.09-.16v-.2l-.16.1a.78.78,0,0,0-.05-.32l.05.32c.09.09,0,.14-.06.19s-.09,0-.12,0H8a.33.33,0,0,1,0-.14.38.38,0,0,1,0-.15l-.35.32h0l-.1-.14v.19h0L7.41,40a.17.17,0,0,0-.1-.13s-.15-.1-.17-.08a.29.29,0,0,1-.25-.08c-.07-.08-.09.08-.07.15a1.58,1.58,0,0,1,0,.61,1.41,1.41,0,0,0,0,.41.57.57,0,0,1-.08.49l.26.07.06-.45c.18,0,.13-.14.15-.28l-.1.12h0a.74.74,0,0,1,0-.21c0-.08.1-.09.16,0l.27.22v.1l.2.17h0L7.64,41c-.2.15,0,.32,0,.51l.12-.08.16.29H7.86s-.06-.12-.14-.06,0,.11,0,.18a1.18,1.18,0,0,1,.07.2H7.61c0-.11-.11-.11-.19-.14s.07.17.2.14a1.5,1.5,0,0,0,0,.3c0,.08,0,.13-.06.16h0v-.1l-.16.15c0,.09.09.19,0,.27s-.06,0-.1,0V43l-.11-.12L7.05,43,7,42.69l-.13.22h0v-.28c0,.07-.14.12,0,.21-.18.15-.18.19,0,.31h0c0,.16-.15.22-.28.27H6.05c-.21,0-.3.09-.19.32-.1.09-.08,0-.11-.06H5.62v.15l-1.1.47H4.43l.05-.15H4.32l.12.14-.93.54a7.26,7.26,0,0,0-1.13.77,1.4,1.4,0,0,0-.43.64,5.74,5.74,0,0,0-.21,1c-.07.42-.16.85-.25,1.27a6.3,6.3,0,0,1-.23.79c-.05.13-.1.26-.16.39V49.6a1.1,1.1,0,0,1,0,.57.67.67,0,0,0,.16.54c-.05.14-.21.11-.3.19-.09-.12-.25.06-.34-.09a.74.74,0,0,0,0,.21.52.52,0,0,1,.07.21L.27,51v.08h0c-.05-.1-.06-.2-.15-.28A.47.47,0,0,1,0,50.45a1.32,1.32,0,0,1,.15-.78.31.31,0,0,0,0-.1c0-.12,0-.22,0-.33.14-.5.29-1,.44-1.52h.1a1.8,1.8,0,0,1-.05-.46c0-.16.1-.58.17-.87a3.77,3.77,0,0,1,.2-.54,1.21,1.21,0,0,1,.18-.44c.06-.08.1-.16.2-.2a.37.37,0,0,0,.13-.12c.08-.17.08-.17.25-.11v-.19h0l0,.14s.06-.07,0-.08A.26.26,0,0,1,2,44.57l.77-.48.12.12c.13,0,0-.15.06-.24l.49-.27a.49.49,0,0,1,.17,0s0,.11.06.09,0,0,.07-.06H3.65a.35.35,0,0,1,.1-.11h.17c0,.09-.12.2.06.3-.09-.16.12-.24.06-.38a1.2,1.2,0,0,1,.27-.16c.13-.06.28-.1.42-.15l.08.14.13,0c-.14-.16,0-.24.07-.34l0,0a.54.54,0,0,0,.11-.18c0-.16-.1-.23-.21-.31-.1.1,0,.12,0,.15l-.14.22-.21-.28H4.51v-.14h0a1,1,0,0,0,0,.24H4.39a2.17,2.17,0,0,1-.15-.35l-.06.13c-.21-.11,0-.31-.15-.48l-.2.22v.19H3.62l.1-.38-.17.06a1.86,1.86,0,0,1-.08-.41,6.7,6.7,0,0,0-.05-1c0-.11,0-.21.11-.26a.36.36,0,0,1-.13-.36,3.84,3.84,0,0,0,0-.83,9.55,9.55,0,0,1,0-1.07v-.38c0-.39-.07-.79-.1-1.18a1.46,1.46,0,0,1,.05-.2A.57.57,0,0,1,3.28,36c0-.15-.07-.29,0-.45a.42.42,0,0,1,.14-.28l.09-.1h0l-.24.13a2.5,2.5,0,0,1,0-.67,1.21,1.21,0,0,0,0-.42.81.81,0,0,1,0-.22v-.21a2.48,2.48,0,0,0-.07-.71c0-.09,0-.11.1-.12-.26-.23,0-.47,0-.72.08,0,.17.09.22,0s.08,0,.08-.08a.67.67,0,0,0,0-.2h.22l-.28-.09.07.14c-.09.08-.13.17,0,.28-.2-.09-.2-.09-.3-.07A2.69,2.69,0,0,1,3.05,31l.19.14h0l-.09-.23h-.1a2.15,2.15,0,0,1,0-1.18l.05.2c.17-.1.43,0,.47-.37l-.2-.17-.18.15a.19.19,0,0,1-.2-.17v-.66l0-.08.06.19c.13,0,0-.13.1-.18h.22a.43.43,0,0,0,.06-.41s-.1-.19-.24-.12v.12H3.11c-.19-.15-.15-.35-.1-.56l.12.06h0l.05.07.07-.2c.08.21,0,.3-.19.43l.33-.14v-.06a1.09,1.09,0,0,1,0-.36V27.4s-.18-.15-.28-.14A.88.88,0,0,1,3,27V26.7a1.4,1.4,0,0,0,.16-.26c-.12-.12.13-.13.05-.25a.28.28,0,0,0,.22,0l-.11-.11L3.47,26l-.11-.38H3.6l.09-.42.1.17-.07.19h0l.18-.19.11.07v-.07a.81.81,0,0,1,0-.22c0-.13.13,0,.17,0L4.35,25h0s.12-.06.13-.09a.36.36,0,0,1,.19-.17l.09.12c.14-.06,0-.18.08-.26s.07.23.13.35l.23-.09.08.14a.2.2,0,0,0,.2-.2c0-.13,0-.17.14-.17s0-.08.06-.16l.18.19c0-.07,0-.22.13-.23s0-.22.17-.18,0-.23.2-.2a.86.86,0,0,1,0,.59c.15,0,.15,0,.17-.39.13,0,0,.12.1.17s.06-.15.1-.15,0-.13.09-.15,0-.05,0-.05c.19,0,.22-.21.35-.28s.18-.09.16-.22a.35.35,0,0,1,.14-.06l.15,0v.23l.26.13c0,.15.16.14.2.26A.32.32,0,0,1,8.4,24v.23h0c.1.09.18,0,.26,0a1.63,1.63,0,0,0,.17-.2l.17.11c-.11.1-.11.2,0,.23s.14.1.16.2a.24.24,0,0,0,.26.22h0v-.23c.08.07.12.06.14,0s-.06-.14,0-.18l.09.37-.15-.06v.22l.44-.23v.21l.3-.16c0-.07-.11-.19.05-.26,0,.14.09.28,0,.42s0,0,0,.06c.12.18.07.39.11.58a3.69,3.69,0,0,1,0,.47,11.65,11.65,0,0,1,0,1.32c-.05.44-.09.71-.13,1.06a4.52,4.52,0,0,0,0,.82c.06-.12.12-.24.17-.36s.12-.36.18-.54l.15-.47a.14.14,0,0,1,0-.09c.15-.13.15-.33.21-.5a3.13,3.13,0,0,0,.21-.74c0-.09.12-.14.08-.25a1.64,1.64,0,0,0,.24-.56.22.22,0,0,1,.21-.22h0a1.42,1.42,0,0,1-.05.22c-.06.13,0,.29-.1.42s0,.1,0,.15l.12.19-.12.14c.15,0,.2,0,.18-.13a.29.29,0,0,1,.06-.22,2.34,2.34,0,0,0,.23-.51.41.41,0,0,0-.07-.25l.13-.13v.19c0-.11.21-.15.15-.3.14,0,.07-.18.17-.23s.09.12.05.15.05.14-.07.15-.08.09-.09.16,0,.25,0,.38,0,.11.06.16a.59.59,0,0,0,.18.13v.29h-.12a.38.38,0,0,0,.35.23c0-.12-.21-.2-.05-.34l.1.12.34-.14.08.09v.15l.09-.12.2.07-.07-.22h.26a.68.68,0,0,0,0-.15c-.19.11-.41.11-.49.32l.06-.21h0l-.1.13a.2.2,0,0,0-.11-.21.23.23,0,0,1,0-.2c0-.12.15-.2.11-.34s0-.05,0-.05a.61.61,0,0,0,.11-.22l.16.11a1.34,1.34,0,0,0-.12.24c.13-.06.13-.06.12-.24a.2.2,0,0,0-.07-.2l.17-.33h0c.12,0,.12.08.16.13a.43.43,0,0,1,0,.16,1.51,1.51,0,0,1-.12.38c0,.14.19.06.27-.07h-.16l.13-.09v-.21h.13a.23.23,0,0,0,.1-.07h0v.15h0c.09.06.1-.07.17-.07h.2a.14.14,0,0,0,.06-.19s0,0,0,0a.57.57,0,0,0-.16-.15c-.1-.07-.15-.15-.08-.22s0-.21,0-.32c-.14.05-.1.14-.08.22l-.24.17-.1-.22h.12l.14-.43a1.34,1.34,0,0,0,.12-.24s0-.06-.1-.08a1.09,1.09,0,0,1,0-.26c0-.1.16.06.2-.07l.06.27-.18.33h0l.24-.34c.07.15.23.23.26.4l.06-.14.12.14h0c-.1-.11,0-.19.06-.22a.34.34,0,0,0,.16-.29l0-.08-.16.09c0-.19-.11-.27-.29-.23l-.13.17c0-.12,0-.31-.19-.26v-.18h0a1.09,1.09,0,0,1-.38-.21.27.27,0,0,0-.28-.11Zm-2.09,3.51c.09,0,.09,0,0-.13v.14h-.06l.05.11h0ZM5.05,25.19c-.1,0-.1,0,0,.14s0-.06,0-.09a.06.06,0,0,0,0-.06h.06S5.05,25.16,5.05,25.19Zm3.72,4.37c.08.13.08.13.17,0H8.77v-.12c0,.08-.11.13-.1.18s.08.06.14.06-.06.12-.15.1,0-.19-.14-.21a.89.89,0,0,0,0,.23v.11s.1.28.16.44c.06-.06.14-.1.15-.16a1.33,1.33,0,0,0,0-.2l.22-.14-.2-.17-.07-.07Zm-.45.33c.11-.16.11-.16-.05-.34.09.11,0,.23.06.34l-.11.1h0ZM10,35.72V35.6c-.19.08-.19.08-.16.27-.06,0-.09,0-.12.07s0,.23-.15.28c0-.16,0-.17-.21-.13v.28l.2-.15a1.22,1.22,0,0,1-.12.4c-.05.13-.07.2.14.2v.29L9.73,37c-.12,0,0-.19-.15-.21v-.19l.12.17.12-.09-.08-.09c0-.07.06-.14,0-.19s0-.1.09-.11h.11c.05-.21-.08-.34-.17-.49l.13-.12v0Zm0-1.49h.1a2.44,2.44,0,0,0,.1-.28h0l-.08,0-.06.19v0Zm-.21-5.88c-.09.1,0,.17.06.23s.17-.12.12-.22-.12-.07-.22-.12v.12Zm3.08-1.18a.35.35,0,0,0-.16-.3,1,1,0,0,0,.11.3h.06v.27l.18-.18a.29.29,0,0,1,0-.13V27c-.11,0-.13-.2-.32-.16.14.07.14.16.08.25s0,.05,0,.08Zm5-4.31h.08a1.29,1.29,0,0,1,.21.19l-.12.08c.13,0,.2,0,.2-.12s0-.18-.12-.21H18c-.11-.06-.14-.05-.16.11-.08,0-.11,0-.09.13Zm-3.34-.31s-.06-.07-.08-.06a.36.36,0,0,0-.1.24c0,.12.09,0,.11-.06a.54.54,0,0,0,.07-.13c0,.24,0,.24.22.31a.27.27,0,0,1-.05-.33c.08-.15,0-.22-.09-.31a.33.33,0,0,0,0,.14v.18Zm-9,20.15c.11,0,.15,0,.13-.13a2,2,0,0,0-.1-.32c0-.1-.15.16-.31.12l.12.24.08-.14a.57.57,0,0,0,.09.24H5.41s-.1,0-.1.07a.57.57,0,0,0,.08.13ZM9.13,29.14l.2-.18.06.15c0-.13,0-.14-.06-.15a1.85,1.85,0,0,1,.24,0,.07.07,0,0,0,.09.07.38.38,0,0,1,.15,0l.12-.16-.19-.29-.23.23,0-.13a.44.44,0,0,0-.33.43l-.08-.05L9,29.17c-.1,0-.07-.07,0-.1l.16-.13c0-.12,0-.12.1-.24s.08-.13,0-.19a.2.2,0,0,1,0-.28l0,0H9.05L9,28H8.9c.08.15,0,.19-.06.17A1.09,1.09,0,0,1,8.62,28a.67.67,0,0,0,0,.2c.05.2.12.39.18.58l-.14.08c.07.11.06.11,0,.25a.38.38,0,0,0,.12.32c0-.11.17-.13.09-.26Zm9.2-6.79c.12,0,.14,0,.19.11-.11.24-.11.24.05.27v-.12l.27-.05c-.17-.09-.06-.2-.09-.3a1.82,1.82,0,0,1,0-.33l-.15-.09c-.05.08-.07.18-.13.2a.42.42,0,0,0-.14.32c0-.06-.12-.13-.1-.17s-.09-.26-.09-.41c0,.18,0,.33-.2.35l0,.3h0l.06-.2c.12.09.14.27.32.28Zm-7.28,8.1h0c-.06.11.07.13.1.19.11.25.11.25.27.36,0,0,.05-.15.08-.15s.13-.15.17-.24l.06-.18v.11h0l.07-.18-.14.06v-.16a.84.84,0,0,1,.15-.27c-.16-.1-.13.1-.24.1l-.1-.11c0,.15.16.23.06.34l-.23.29-.17-.36c-.09.14-.13,0-.18,0s0,.14,0,.2-.15-.16-.27-.21,0,.07,0,.09.12.13.12.19a.53.53,0,0,1-.11.21.27.27,0,0,1-.08.07c.13.15.17.14.41-.1,0-.05-.06-.11-.08-.17S11.05,30.48,11.05,30.45Zm-.63,1.86c-.1.12-.13.28-.31.2a.12.12,0,0,0-.11.07l-.18.31c.15,0,.3,0,.3-.23.2.05,0,.23.1.3s.09-.11.08-.19.06-.15.18-.16Zm.6-4.63h.08c.22.06.25.05.29-.15s0-.12.11-.15,0,0,.05-.11c-.15.06-.27-.09-.38,0Zm4.31-3.94c-.21.17-.12.36-.08.59.06-.09.05-.18.15-.18h0C15.42,24,15.49,23.84,15.33,23.74Zm-3.66,4.92c-.1.2-.1.2,0,.4h0l.12-.06-.09-.1h.18C11.91,28.79,11.79,28.74,11.67,28.66ZM9.55,34.18h.29l-.19-.37h0Zm4.22-6.6c.19-.13.2-.16.16-.31l.15-.11L13.91,27a1.07,1.07,0,0,1-.08.33C13.8,27.43,13.69,27.46,13.77,27.58Zm-2.32,2.79V29.7c-.12.13-.06.29-.19.34s0,.06,0,.08A2.33,2.33,0,0,0,11.45,30.37ZM9.51,34.72h0c0,.1-.06.24.11.35,0-.16.23-.17.12-.38l-.06.14Zm-.76-3.89c.11-.17-.06-.26-.08-.4l-.21.17h0l.07.1c.1,0,.06-.16.16-.09S8.72,30.76,8.75,30.83Zm2.3,1.33c.21-.1.21-.17,0-.42C10.92,31.88,11.11,32,11.05,32.16ZM8.68,28.58H8.51v-.09l-.07-.13c0,.26,0,.27.1.42Zm9.49-8.32h0l0,.15h-.17v.16l.33-.13Zm-9,9.85c.06-.08.11-.13.14-.18s0-.14-.05-.15l-.19.16Zm9-8.87c0,.09-.15.15,0,.23.12-.1.06.1.15.07s-.07-.19-.16-.3ZM8.48,30.82l-.22-.16-.12.23Zm4.07-2,.12-.3a.51.51,0,0,1-.16.09h-.13Zm-2.34,2.39c0,.13-.25.2-.11.36a.46.46,0,0,1,.18-.21Zm3.25-5.52-.21.16.27.14Zm-4,2.7h0l.15-.22H9.49Zm1.59,4.41c.07-.1.22.05.22-.16C11.24,32.73,11.05,32.55,11.05,32.8Zm1.55-4c-.07.13,0,.16.09.25.09-.21.09-.21-.07-.28Zm6.45-5.23c.12-.17.12-.17.09-.29l-.16.2Zm-6.33,4.89c0-.11.13-.21,0-.31C12.65,28.4,12.65,28.4,12.72,28.46ZM19,22.35v.31C19.16,22.52,19.05,22.43,19,22.35ZM11.25,32.41v.15l.29-.13Zm-.86.68a.36.36,0,0,0,0-.32A.36.36,0,0,0,10.39,33.09Zm-2.1-3.66.14-.22H8.2Zm2.17,2.13c-.07.19.1.17.16.22Zm7.48-8.93c0-.09,0-.22-.16-.26C17.74,22.51,17.88,22.55,17.94,22.63Zm-4,.16V22.5a.18.18,0,0,0-.06.25s0,0,0,0ZM12.7,29.58c.08-.24.08-.24-.06-.33Zm6.17-8.19-.15-.21.06.33ZM3.32,29.14h.06l-.09-.27h0Zm16.41-5.09v-.24C19.59,23.89,19.64,24,19.73,24.05ZM8.41,33.47l-.06.23C8.5,33.62,8.5,33.62,8.41,33.47ZM18.63,21.11c.1-.1.1-.1,0-.19Zm-.94,2h-.06l.09.21h0v-.17c0-.06,0,0,0,0ZM.44,49.72l-.16.11C.41,49.86.41,49.86.44,49.72Zm8-10.66h.05v-.19l-.13.06Zm3.13-9.39h.07v-.22h-.06Zm-1.47,4h.05l-.1-.2h0ZM7.25,42.29c0-.15,0-.15-.18-.13Zm2.44-12.1c.11-.1,0-.14,0-.18Zm5.13-7.7c-.12.1-.12.11,0,.2ZM3.28,27.07h.07a.23.23,0,0,0-.11-.22ZM6.12,43.26l.06-.19C6.05,43.11,6.05,43.16,6.12,43.26ZM2.19,44.63c.12,0,.17,0,.13-.17Zm.58-.23c-.08.06-.14.09-.14.11a.64.64,0,0,0,.1.13Zm15-22.68c.07.14.12.15.22.07Zm.76,0-.12-.13-.06.17ZM7.8,24.08v.28C7.89,24.23,7.93,24.16,7.8,24.08Zm.53,4.53a.28.28,0,0,0,.1.27Zm4.83-10.82v.05h.13Zm.52,0c-.07,0-.09-.06-.11-.05s-.06,0-.08,0h0ZM8.54,32.14h.05a.24.24,0,0,0-.09-.21ZM10,25.19h.08V25h0Zm3.36-6.05h0l-.08.11h0ZM11.2,33.2V33C11.1,33.05,11.05,33.09,11.2,33.2ZM8,30.86H8l-.1-.11h0Zm9.62-9.25h0V21.5h-.05Zm.45,1c.1-.09.1-.09,0-.18Zm-6.18,7.25-.06-.15-.1.12Zm3.4-5.36v-.07h-.15ZM.12,49.8h0a.1.1,0,0,0,0,.17ZM18.87,23.31l.06-.18C18.83,23.16,18.75,23.19,18.87,23.31ZM8.52,27.93c-.09.09-.09.09,0,.14Zm.29-3.72H8.76l-.07.14h0Zm4.37,4.16c-.11,0-.14,0-.12.12Zm-8.93.52h.06v-.15h0Zm3.28-4.51c.08-.06.08-.06,0-.12ZM3,44.43h.08v-.1H3Zm.38-.31c-.15,0-.19.08-.16.13ZM3.19,27.06c0,.07,0,.15.09.16Zm2.07,15h.12v-.13Zm-2-15.7v.06h.13Zm.22,6.47H3.33c.11.1.15.08.17,0ZM13.35,17.6h0l0,.1h0Zm.21,7.9a.88.88,0,0,0-.05.15h.05a.24.24,0,0,0,0-.17ZM9.5,38.5c.1-.11,0-.14,0-.19h0Zm-1-7.39L8.63,31h0s-.14-.11-.13,0Zm.31,7.46H8.76v.14h0ZM3.39,30.9H3.34V31h0Zm7,0h0v-.09h-.05ZM13,18.76c-.1,0-.14,0-.06.11ZM9.82,32.68h0l-.07.1h0Zm3.33-6.2ZM5.72,42.3s.1-.1,0-.16ZM18.59,21.19Zm-7.11,5.64h.06v-.12h0Zm-1.43.23h0v0Zm4-5.47c-.07-.05-.07-.05-.12,0ZM3.84,43.94h0l.08.08h0ZM3.53,33.86h0V34h0Zm-1,10.73h0v.14h0ZM1.25,45.94h0l-.06.1h.05ZM11.62,27.51h0l.06-.09h0ZM.7,48.26s.06-.12-.07-.13ZM18.74,23v-.13h-.07ZM9.32,29.34h0v-.08h0v.08ZM14.94,23h0l-.05.05h0ZM9.48,35.43c0-.1,0-.1-.05-.15Zm-.92-6.15h0v-.14h0ZM12.92,29h0l-.07.06h0Zm-.42-.76h.06A.06.06,0,0,0,12.5,28.24Z"/><path d="M47.89,13.34c.06.1.11.21,0,.31.14,0,.11-.09.15-.12l.23.06h0c0,.11,0,.15.11.19l.13.09h0l-.1-.08-.15.1-.07-.14-.09.34L48,14c-.17.07-.07.23-.11.36h-.18v.05c0,.05,0,.15-.15.12a.28.28,0,0,0-.3.09l-.2.06c.17.09.17.09.19-.07l.19.08-.34.21c0-.08,0-.08-.14,0h.15L47,15c-.18.07-.3.23-.5.27l.16-.19a.26.26,0,0,0-.23.28l-.12-.09v.06a.4.4,0,0,1-.15.25l-.81.61a2.17,2.17,0,0,1-.35.15l.1-.15L45,16.12c0,.06-.07.15,0,.22-.12.15-.12.15-.29,0,0,0-.07.11-.12.12a.27.27,0,0,0-.21.19.28.28,0,0,1-.3.17c0-.11.21-.11.15-.25.11-.08.11-.08,0-.15v.16c-.08,0-.17-.07-.22,0a.81.81,0,0,1,0,.22c0,.05-.11.06-.17.08l.11-.13-.11-.13h-.08v.14l-.1.07h.15c-.17.06-.35.12-.51.19a2.57,2.57,0,0,0-.41.26c-.25.22-.47.45-.71.68l-.1-.05h0v.2l-.28.35h0l.14-.24h0l-.41.36-.14-.33-.06.21-.25-.15v-.18c-.08.09-.08.09,0,.17v.25c-.17,0-.21.18-.26.33.18,0,.15.13.16.25l-.37.14v.22l-.09-.12-.11.09.13.07c-.06.07-.2.11-.08.22s0,.09-.08.12l-.39.35h0a.47.47,0,0,0-.12-.38c-.12-.12-.06-.21-.09-.36l.12.14.19-.17c.1.06.14.16.1.33.17-.23.05-.47.11-.68h.12a.58.58,0,0,1,0-.29.33.33,0,0,0-.3.33L40.05,19l-.11.06h0a6.67,6.67,0,0,1,.93-.91.49.49,0,0,0,0,.17h0c0-.06.16-.1,0-.18l.13-.22,0,.08c.09-.07.09-.07,0-.18l.31-.35v.12l.15-.08h-.16l.16-.25.06.25.12-.13c.09-.14.09-.18,0-.29l.16-.18.08.11c.11,0,.09-.16.14-.24l.18-.23.14.13V16.5h.08c0,.13.11.09.19.1s0,.17.16.2c0-.15,0-.15-.17-.2v-.1h0l.29-.12.09.25h0v-.39h-.1l.36-.15c.07.05.11.2.25.08L43.36,16l1-.45v.12l-.06.07c.18,0,.18,0,.15-.21l.62-.38a.48.48,0,0,1,.1-.09h.1c.09,0,.16,0,.14-.09s.07-.16.16-.21l-.09.18c.15,0,.07-.12.09-.18l.55-.39.25-.16.14.18.09-.19h-.1l.44-.31a.16.16,0,0,1,.22,0l0,0c0,.08-.07.18,0,.22s.08,0,.12,0a.14.14,0,0,1,0-.15h-.13c0-.25.17-.27.31-.34s-.12.08-.09.18.15-.08.09-.18.07-.05.11-.05h.23l-.08-.14c.08-.06.15-.14.25,0Zm-2.54,2.48V16c.17,0,.17-.12.12-.22.12,0,.08-.09.12-.14s0-.1,0-.16l-.11.06c0-.08.06-.18-.07-.22l.07.22C45.49,15.68,45.36,15.74,45.35,15.82Zm-3.63,1.94L42,18a.67.67,0,0,1,0-.2c0-.05,0-.12.07-.15s.1,0,.14.07.08.12.13,0l-.11-.23H42a.27.27,0,0,0-.3.24v.06c-.07,0-.12,0-.16.06s0,.17,0,.27a.43.43,0,0,1,0-.16A.75.75,0,0,1,41.72,17.76Zm6-4c-.27,0-.2.31-.35.43s0,.13,0,.25c.08-.09.11-.19.23-.15s.09-.12.13-.19.09-.16.13-.24c-.15.14-.17,0-.18-.06Zm-3.51,2.08V16l-.2-.1.08.18h.15l-.08.15h.21s-.11-.2,0-.32-.1-.09-.2-.06ZM40.5,19.27c0-.19.34-.21.32-.45h-.11c-.17.07-.1.29-.23.38Zm3.07-2.86s-.1,0-.1-.07a.33.33,0,0,1,0-.14c-.1.1-.17.2-.12.33s.08,0,.11,0h0l-.06-.08Zm2.28-1c-.1-.06-.15,0-.21.07s.11,0,.17,0Zm-4.3,2.82c.06-.12,0-.14-.08-.22h0Zm5-3.57v.16s.11-.06,0-.16ZM44.49,15.9h0a.11.11,0,0,0,0,.08v.08h0Zm-2.56,1.49v-.23C41.89,17.22,41.82,17.28,41.93,17.39Zm2.64-1.19h0V16h0ZM40.9,18.53h0l.07-.09h0Zm4.44-2.92c-.14-.06-.13,0-.15.09Zm.11-.37v.06h.12Zm1.5-1.3h0l-.08.08h0Z"/><path d="M6.7,50.84c0,.06-.09,0-.18.12s-.16-.07-.25-.08L6.18,51,6.1,50.7a.14.14,0,0,0,.14-.21l-.22.1.07-.11L6,50.29c0,.14-.16.16-.07.29L6,50.47v.12a.44.44,0,0,1,.08.11h0v.17a.28.28,0,0,1-.31-.18h.1v-.38a4.29,4.29,0,0,0,.19-.5,1.21,1.21,0,0,1,.16-.42c.06-.14,0-.19.18-.15a.18.18,0,0,0,.1-.09.37.37,0,0,1,.12-.24v-.1L6.47,49h0l.27-.63s0-.11.09-.12a1.11,1.11,0,0,0,.27-.27c-.1,0-.09-.12,0-.22.32-.49.63-1,1-1.49l.15.09a.47.47,0,0,1,.16-.59c0-.27.23-.45.29-.7a.12.12,0,0,1,.07-.1.16.16,0,0,0,.16.12c.06,0,.09.13.2,0s.13.07.19.07.09.11.14.16h.08l.12.18-.18.39-.07-.12c-.07.1-.07.1,0,.19s-.16.21-.17.36a.91.91,0,0,1-.19.38,3,3,0,0,1-.24.38L8.67,47c-.05.14-.23.21-.18.41l.13-.14h0l-.23.38-.1-.16h0v.29l-.12-.07a.82.82,0,0,0-.21.44L8.11,48h0c-.2.37-.41.74-.59,1.13s-.31.77-.48,1.19l-.11-.19s0,.1,0,.12c.13.22,0,.39-.11.56v0A.16.16,0,0,0,6.7,50.84Zm1.88-5.32.07.24.23-.13Zm-2.14,5,.09-.25h0C6.47,50.34,6.33,50.39,6.44,50.52Zm-.3-.41v.22h0l.05-.23Zm2.13-3.94v.08a.17.17,0,0,0,0,.1C8.31,46.28,8.31,46.28,8.27,46.17ZM6.79,49.65a.08.08,0,0,0,0-.14l0,.07Zm.5-1.51c-.07.06-.07.06,0,.17Zm.34,0h0V48h0ZM8.9,46h0L9,45.86H9Zm-.43-.51H8.42v.13h0ZM9,45.2l-.07-.06h0v.07Zm-.35,0c.07-.14,0-.16-.08-.18Zm-.09,1c0,.08,0,.08.08.13ZM7.05,48.88V48.8H7Zm-.38,1.35,0-.07v-.1a.36.36,0,0,0,0,.09Z"/><path d="M23,8.54l.06-.14h.12l-.12-.1a.43.43,0,0,0,0-.41V7.81c.13-.27.25-.55.38-.82l.18-.37.29-.54L24,5.89h.08c0,.07.12.08.11.17a.2.2,0,0,0,.11,0,.38.38,0,0,0,.15,0l.15.13h0V6l-.11.08L24.16,6c-.06-.21.1-.34.19-.51l.09.08s.07-.07.07-.09c-.08-.23.07-.4.17-.57a8.79,8.79,0,0,1,.41-.79c.17-.24.17-.42.31-.61v0c.14.08.14.08.19.24l.08-.28c.11.17.1.29-.06.39s0,.08-.08.11a3.15,3.15,0,0,1-.29.22l.22.06V4.14l.11.07V4l.1.15.11-.1h0a.34.34,0,0,1-.13.39V4.26c-.06.11-.07.15,0,.15l.13.17.08-.07h0l-.11.22c-.2,0-.2-.17-.33-.25a2,2,0,0,1-.19.22h-.08a.22.22,0,0,0-.24.2v0c.06,0,.12-.13.2,0s.15,0,.23,0h0a.61.61,0,0,0,0,.19.43.43,0,0,1,0,.16l-.13-.09v.19c-.1,0,0,.16-.08.23l-.67,1.11-.07-.14h0v.24l-.34.24V7.2h-.23L23.7,7v.14a.67.67,0,0,0,.37.24.43.43,0,0,1-.14.41V7.57h0l-.08.17H24a1.21,1.21,0,0,1-.16.42c-.06.14-.13.34-.2.51a.41.41,0,0,1-.07.11c0-.2-.09-.25-.23-.2a.15.15,0,0,1-.09-.06.76.76,0,0,1-.09-.18.41.41,0,0,0-.21.32l-.12-.22Zm1.19-1.77a.14.14,0,0,0,.09.13s.26-.17.24-.26a.81.81,0,0,1,0-.22l-.16-.09-.14.13V6.23c-.2.19,0,.31,0,.45l.19.08h-.22Zm-.57.57-.26.25h0l.37-.24Zm.12.62c0-.17-.15,0-.17-.14v.12Zm-.12.32.1-.25C23.52,8.06,23.6,8.19,23.61,8.28Zm.19-.73h0l.1-.22h-.12ZM24,6.25c-.17.13,0,.18,0,.24h0Zm-.15.34c0,.1,0,.17.11.19ZM25,5.45h0l.07.22h0Zm.09-.31.07.15.08-.14Zm-1,1.68h0V6.63h0Zm.56-1h0l-.08-.11h0Z"/><path d="M25.42,3.5v0c.23-.51.39-1,.6-1.56.08-.18.14-.36.22-.54a.1.1,0,0,0,.09-.07c0-.07,0,.13,0,.22.16-.06,0-.2.1-.29l-.08.07c0-.22,0-.22.33-.23a.38.38,0,0,0,0,.36c0,.09-.06.18.09.17s-.05-.12-.1-.17,0-.12.11-.12H27L26.92.88c.06.06.11.08.13.12a.72.72,0,0,0,.14.24V1.1h0s.12-.08.12-.12a1,1,0,0,0-.06-.25s-.1-.07-.16-.12l-.23.25c-.13,0-.1-.12-.1-.23l-.1.11V.55l-.1.09h0A.19.19,0,0,1,26.67.5a.36.36,0,0,0,.16-.14.5.5,0,0,0,0-.36s.08.06.07.07A2.48,2.48,0,0,0,27,.38a.16.16,0,0,0,.18.14.29.29,0,0,1,.23.09V.27h0l.16-.08-.52,1.59h-.12c-.06.1,0,.15.08.18s0,.19-.16.2,0,.06-.06.1H26.7c0,.07,0,.14.09.11s0,.1,0,.15,0,0-.07,0-.25.08-.24.2a1.64,1.64,0,0,1-.13.54c0,.08-.11.15,0,.29V3.31h.1a3,3,0,0,1-.32.65.68.68,0,0,0,.06-.4c-.13,0-.16.06-.14.16H25.9V3.9h-.07a1.55,1.55,0,0,0-.06-.43c-.06-.16-.16,0-.24.08S25.51,3.55,25.42,3.5Zm1-1.13.11-.15h0l-.18.11.09.06.1.15c0-.16,0-.16-.15-.17Zm.79-1h-.05L27,1.58a.06.06,0,0,0,0,.06h.08s.06-.21.1-.29Zm-.67,1.4-.23-.06h0l.19.16Zm-.49-.55h0L26.1,2a.31.31,0,0,0-.1.15S26.05,2.21,26.05,2.22ZM26.82.39V.62c.07-.1,0-.17,0-.23ZM25.69,3c-.08,0-.1.11,0,.19Zm.24.21h.12v0ZM26.15,3V3Z"/><path d="M22.1,11.14V11c-.07-.14-.08-.17,0-.26l.16-.45,0,.24.11-.19h0s.06.09,0,.12c-.09.19.06.25.19.35v-.13s-.1-.27-.17-.43c.12,0,.15.19.27.12l-.29-.4-.12.2h0l.27-.79.13.06.17-.41H23l-.09.1-.06.1a.18.18,0,0,0,0,.24c0,.06.06.17,0,.22s-.12-.11-.27-.08l.27.19-.13.14c.23,0,.17-.18.24-.28l.12.06m.06,0V9.69a.13.13,0,0,1-.11-.16h0c-.14,0-.11-.15-.12-.24s.2,0,.22-.12h-.07l.25-.08-.11.26.11.43V9.69l.16.08c-.11.33-.2.66-.31,1a3.24,3.24,0,0,1-.17.32.54.54,0,0,1-.07.43v.55h0l-.14-.34c0,.26-.12.47,0,.69v.09s0,.31.22.38.09.11.11.18.12.43.19.68l-.17-.14a.43.43,0,0,0,.06.28c.06.08,0,.09,0,.19L23,13.73l-.08.18a3.83,3.83,0,0,1-.28-.29.67.67,0,0,1,0-.2c.14.1.25.08.3,0s-.08-.07-.11-.12.11-.24-.09-.33l.22-.06-.15-.13c-.11,0-.09-.14,0-.18s0-.09,0-.16a.71.71,0,0,1-.13-.5c.1,0,.12,0,.12-.12a.13.13,0,0,0-.07-.06v.18c-.09.05-.17.05-.2-.09l-.06.09,0-.22h0s.09,0,.09-.06a1.06,1.06,0,0,0-.09-.35l.14-.05.12.14v-.26c-.18,0-.16-.2-.3-.18v.1L22.32,11c0,.13.23.15.19.3l-.46-.18Zm-.27.46L23,10l-.26.15ZM23,13.1c0-.23,0-.23-.12-.18Zm.13-3.1c.08,0,.16,0,.12-.14S23.05,9.85,23.11,10Zm-.42,1.19c-.15.15-.15.15,0,.19Zm0-.06h0V11h0Z"/><path d="M37.1,22.33v-.26h.07v-.16h0a.41.41,0,0,1,.26-.44v.29l.29-.27-.15-.08c.16-.1.23.12.36.07l-.06-.26h.18V21l-.2-.17a.14.14,0,0,1,.19-.14c.19,0,0,0,0-.07h0c-.1.06-.1,0-.09-.06s0,0-.07-.06l.16-.1.11.12h0c.07-.14.15-.05.24,0s.14,0,.23,0c-.16-.14,0-.28,0-.43l.23.26H38.7l.11.25.13-.05-.1-.17.11-.06.07.27c.21,0,.21,0,.38-.45l.14.09a.56.56,0,0,0,.09-.17v-.24a.22.22,0,0,1,0-.16,1.74,1.74,0,0,0,.3.61h0l-.6.41a.17.17,0,0,1-.24,0v0c0,.13,0,.31-.17.28,0-.06-.09-.11-.14,0h.14l-.3.23-.48.32L38,21.35v.16c-.14.17-.29.32-.41.49s-.22.35-.34.56v-.15l-.13.14c-.1-.09.18-.18,0-.27l-.07.15Zm1.24-1.68-.16.45A.41.41,0,0,0,38.34,20.65Zm-1,1.36h.06l-.1-.28c0,.12.05.2.08.27Zm.71-1.17c0,.09,0,.16.11.05Z"/><path d="M25.82,48.36a.45.45,0,0,0-.13-.38h.2v.17c.09-.12.16-.22.07-.35a.17.17,0,0,1,0-.14V47.4c0-.09.09.14,0,.22l.12.07-.08.23h0a.11.11,0,0,1,.07-.1h.13V47.6l.32-.39h0l.16.07c0-.26,0-.27-.2-.26h0c0-.07-.08-.15,0-.2s.15,0,.2.09.06.06.06.09.1.11.17.17l.14-.17.19.13c-.14.2-.27.39-.41.56s-.06.05-.07.12,0,.44-.21.58c0,.14-.18.18-.15.34s-.07.16-.13.28v-.14h0c.14,0,.09-.15.1-.23h0v-.11l-.07-.07-.06.08h0l-.19-.28H26v.16h-.13Zm.31-.1h0v-.15h-.08Z"/><path d="M23.05,17.66,23,17.8c.06-.22-.1-.48.13-.65-.11-.09-.11-.09-.1-.29l.06.14c.11-.11-.13-.16,0-.26l.13.06c.06-.08,0-.11,0-.14s-.18-.13-.13-.3,0-.07,0-.09c-.15-.2,0-.45-.12-.61s0-.2.08-.27l.08-.07v.11h0v.18s-.09.05-.1.1a.31.31,0,0,0,0,.19h0v-.15c.21-.11.13.16.25.16h0l-.19.09.09.25.21-.23c.1.11-.1.25,0,.38l.06-.19a.42.42,0,0,1,0,.38l-.16-.1c0,.11.07.13.16.09v.2s-.17,0-.09.11a.9.9,0,0,0,.2.19h.08c-.08,0-.13,0-.18.1l.12.06h.07c0,.22,0,.23.2.17v.1s-.12.14-.22.13-.15,0-.13.15h.2l-.21.07-.26-.36h0c0-.08,0-.22-.17-.23s0,.25,0,.37Zm.54-.27-.24-.24c-.08-.07-.06,0-.1,0s0,.33.3.24Zm-.42-1h0v.1h0a.56.56,0,0,0,0-.12Z"/><path d="M38.05,31.68a.14.14,0,0,0,.14.13c.14,0,.13.08.21.12s.07-.16.16-.08-.06.15,0,.26c-.12,0-.25-.13-.31.07a.25.25,0,0,1-.2.07.65.65,0,0,0-.45.11h-.1l-.32.3,0,.11h0s-.1-.07-.09-.08-.06-.32.07-.45,0,0,0-.07h.21c-.12-.08-.13-.28-.3-.16h0c0-.06,0-.13.06-.14h.16v-.14h.33c.2,0,.3,0,.37.17.11,0,0-.19.1-.22Zm-.7.38c.15-.08.15-.08.1-.15Z"/><path d="M22.2,26.29c0,.08.07.18-.06.23s0,.11,0,.16l-.06.12-.16-.4-.13.1h0a.4.4,0,0,0-.09-.07s-.11,0-.11-.16l.1.12h0v-.16a3.94,3.94,0,0,1-.23-.63c.14.16.32,0,.43.16h0L22,26l.21-.4.59.76-.13.11-.13-.29a.22.22,0,0,1-.08.16h-.16L22.1,26a.28.28,0,0,0,.07.3h0Z"/><path d="M36.42,22.56a.45.45,0,0,0,.1.21.8.8,0,0,0,.17.15l-.17.16-.09-.1v.1c.15.08.14.25.22.37h0s0-.23.2-.13c-.09.14,0,.26,0,.39s0,.11-.07.25v-.17l-.07-.07s-.09.06-.09.09a.79.79,0,0,0,.06.22l-.15-.1.14.45a.14.14,0,0,0-.15.17h0c-.12,0-.18.08-.2.2-.1-.15-.1-.15.1-.27-.1-.14,0-.27,0-.4L36.37,24l.32-.43-.24-.07v.21c-.1,0-.19,0-.16.17-.06-.12-.22-.13-.17-.31l-.17.11.13-.44.14.08c-.13-.28-.09-.44.12-.53-.11-.11,0-.17.06-.22Zm-.2,1h0l.2-.21h-.13Zm.28.7h0v-.09h0Z"/><path d="M20.73,24.1v-.24c-.14,0-.16-.16-.24-.25a.58.58,0,0,1-.19-.34l-.08.13-.1-.26-.07.12h0V23h.13s0-.07.07-.12a6.17,6.17,0,0,1,1,1.42l-.19-.19c-.06-.07-.11-.11-.21,0h-.12Z"/><path d="M12.53,31.8l-.12-.14.08-.2c-.1,0-.15.15-.22,0s0-.1,0-.1h.15v-.21h.13a.5.5,0,0,1,.24-.48c.06,0,.08-.15.13-.24a.22.22,0,0,1,.11.29v0a3.88,3.88,0,0,1-.22.46Z"/><path d="M38.05,30.41V30.3h0l-.11.43-.11-.09c0,.16-.21.17-.33.19A1.42,1.42,0,0,0,37,31h-.15l.35-.29a.16.16,0,0,0,.08.06h.18s.2-.09.17-.23,0-.07,0-.11a.34.34,0,0,1,.07-.36.27.27,0,0,0,.32,0,.23.23,0,0,1,.2,0,.34.34,0,0,0,.05.18h-.11Zm-.19,0h.06V30.3h-.08Z"/><path d="M23.22,15c-.06.12-.12,0-.19,0l-.07.14-.21-.1a3.31,3.31,0,0,0-.12-.42c-.09-.17,0-.3,0-.44h.1V14h.07c0,.1.07.09.13.1s-.19.1-.2.21-.09.22,0,.35l.16-.27c.08,0,0,.27.18.2l-.08.17-.19-.12.06.22a.58.58,0,0,0,.51-.43c.06.14,0,.22,0,.3a.32.32,0,0,1-.13.24Z"/><path d="M44.29,35.1v-.16l.23.18c.15.12.22.11.31,0l.05-.09c0,.13.25.13.15.29l.31.17a.24.24,0,0,1-.27.2h0a.49.49,0,0,1,0,.17l-.2-.38v-.13c-.12.21-.29.13-.45.12l-.09-.26Z"/><path d="M44.29,35.1v.07s-.14,0,0,.12-.08.06-.1.06a.48.48,0,0,1-.22-.12c-.07-.07-.12,0-.18,0h0a.49.49,0,0,1,0-.17c0-.13,0-.2-.13-.24s-.07.3-.24.36c0-.09,0-.25-.23-.23h-.08c-.12.07-.15,0-.19-.12h.27c0-.19-.15,0-.25-.12h.53l-.15,0V35h.16l.25-.3a1.43,1.43,0,0,1,.16.24c.06.12.21.21.13.39C44.05,35.15,44.16,35.07,44.29,35.1Z"/><path d="M19.57,22.66a0,0,0,0,0,0-.05c-.14-.12-.14-.12-.09-.29s0-.1-.07-.17l.09-.1V22a.2.2,0,0,1,.25.1,2,2,0,0,1,.1.21c0,.11,0,.24.21.23,0,.13-.11.16-.2.15A.93.93,0,0,0,19.57,22.66Z"/><path d="M20.46,26.45l.1-.32v.11l.25-.08c-.1.24.11.38.15.6,0,0-.09-.1-.14-.1a.25.25,0,0,0-.19.07c-.07-.14-.19-.07-.32,0l.05-.09Z"/><path d="M37.53,36h.11l.17.21s.08.1,0,.16,0,.1,0,.11v.2l-.15-.28a.24.24,0,0,1-.19.26h0v-.15l-.14.1h0l.08-.16h-.16l.19-.39h0v.15h.15V36Z"/><path d="M22.24,11.86l.05.09c-.12.08-.06.15,0,.23s0,.07,0,.11a.22.22,0,0,1-.09-.07c-.06-.12-.06-.12-.18,0v-.4c0-.13,0-.2.11-.26s.07-.17.11-.3l-.2.11v-.23h0a1.11,1.11,0,0,1,.23.46h-.07a.64.64,0,0,0-.2.2.65.65,0,0,0,0,.2C22.12,12,22.12,12,22.24,11.86Z"/><path d="M39,31.41l-.08.23H39a.92.92,0,0,1,.24-.13h.23a.62.62,0,0,1-.28.17,1.13,1.13,0,0,0-.39.17c-.09-.06-.09-.06-.11-.2l.14.05c0-.14,0-.13-.1-.22a.11.11,0,0,1,0-.08l.08-.17.22.13Z"/><path d="M21.41,28.4l-.19.14a3.1,3.1,0,0,1-.46-.73h0A.24.24,0,0,1,21,28c0,.13.06.08.09.11l.16.17c.14-.1,0-.12-.06-.17h0l.22-.07v.37Z"/><path d="M20.76,27.81l-.12.08h0a.52.52,0,0,0-.05-.23l-.14-.18a.2.2,0,0,1,0-.21l.43.33H21c.05.14,0,.19-.13.24Z"/><path d="M23.22,15h0c-.06.19.09.31.19.43a.87.87,0,0,0,.21.17v.12h-.13l-.06-.11a.17.17,0,0,1-.17-.13c0-.05-.17,0-.23-.11h0l.16-.09C23.18,15.19,23.1,15.1,23.22,15Z"/><path d="M9.82,38.4h0l.13-.07.09.11.05-.17c.15.09.17-.09.27-.14a1.82,1.82,0,0,1,0,.33,1.47,1.47,0,0,1-.14.28l-.17-.17h0Z"/><path d="M21.87,25.75v-.32c-.07-.06-.21.06-.21-.13l.13-.17c.23,0,.21.25.33.37-.12.05-.12.22-.26.24Z"/><path d="M29.75,37.77l-.2.08v-.12a.16.16,0,0,0,.14-.18h0c.14,0,.09.16.14.2s.14.07.19.11l-.15.27C29.72,38,29.69,38,29.75,37.77Z"/><path d="M43.74,35.22l.09.25-.6.06c-.08-.13,0-.2.11-.25l0,.2.19-.36.17.1Zm-.11.22h0Z"/><path d="M23.61,17.07a.15.15,0,0,0,0-.21.51.51,0,0,1-.07-.17h0l.06.12h0a.66.66,0,0,0,.06-.34s0-.12.13-.14-.09.25,0,.35c-.09.1,0,.21,0,.37l-.1-.2v.31l-.12.08h0V17.1Z"/><path d="M45.75,36v-.13h-.19c-.08,0-.08,0-.15-.09h.18l.09-.28c.12,0,.13.11.14.19s.08.24,0,.35-.07,0-.11,0Z"/><path d="M17.9,24.62a.1.1,0,0,1-.16.08.62.62,0,0,1-.15-.21.89.89,0,0,1,0-.23h.13l.07.22.06-.19.1.06h0s.08.11,0,.16,0,.06,0,.1Z"/><path d="M20.46,26.45l-.06.16a.33.33,0,0,1-.14,0c-.08,0-.14-.05-.21,0h0a.55.55,0,0,0-.06-.4c.15.11.27.25.49.11Z"/><path d="M52.7,38.48l.31.06,0-.14.09.2c.06,0,.13-.12.17,0a.61.61,0,0,1,0,.19c-.17.08-.17-.13-.28-.14h-.26l-.1-.11Z"/><path d="M20.72,24.1v.12l-.1-.06c-.11.13.09.19.09.31l.1-.18c.07.08.07.08,0,.24h-.2l-.16-.28.13-.25.19.08Z"/><path d="M2.93,25.24l.31.07c0,.26,0,.32-.31.43C3.05,25.56,2.93,25.39,2.93,25.24Z"/><path d="M20.66,25l.08.15v.11c-.07,0-.13.13-.24,0v.14l-.08-.11.14-.21L20.37,25c.11-.15.18,0,.26,0Z"/><path d="M21.17,28.74V29H21c-.06,0,0-.12-.1-.15s0-.19,0-.24l.2.22Z"/><path d="M23.71,31l.08.09.16-.24h0a1,1,0,0,0,.07.23v.17a.57.57,0,0,1-.31.1V31Z"/><path d="M39.12,35.71c.15.06.36,0,.5.15l-.07-.23c.07.09.24.11.16.3H39.3Z"/><path d="M23.57,9.3l-.08.3c-.31-.19-.31-.19-.17-.61l.12.42Z"/><path d="M43.05,35.4v-.24h-.31l-.06.16a.16.16,0,0,1,.11-.27h.09c.27,0,.29,0,.27.24v.09H43Z"/><path d="M19.62,24.7c-.2,0-.12-.16-.23-.21s-.12-.16-.18-.24l.31-.05a.81.81,0,0,1,0,.22A.3.3,0,0,0,19.62,24.7Z"/><path d="M25.85,49.78c-.18-.08,0-.19,0-.29s.23,0,.22-.14.09-.08.15-.11c0,.16,0,.33-.25.39C25.91,49.64,25.9,49.71,25.85,49.78Z"/><path d="M23.4,15.13c.1-.09.1-.09.19-.05v-.25h.05l.09.45h-.19C23.61,15.19,23.47,15.18,23.4,15.13Z"/><path d="M36.8,30.64v-.18H37v-.25l.14.06a.1.1,0,0,1,.1.09c0,.09,0,.08-.06.1Z"/><path d="M19.92,24.21c.11.07.23.11.27.19s.23,0,.21.13h-.35s0-.19-.18-.07Z"/><path d="M20.05,23.84c.07-.07.1-.13.14-.13a.27.27,0,0,1,.17.06.5.5,0,0,1,.08.2l-.27.12C20.28,23.87,20.27,23.84,20.05,23.84Z"/><path d="M19.39,25.33l-.05-.24c.09.06.17.08.22.14a1,1,0,0,1,.14.24v.1h0c-.1,0-.11.06-.09.14h0v-.3l-.17-.07Z"/><path d="M20.72,25.26v-.11l.13-.15c.12.11.08.24.1.35h-.21Z"/><path d="M13.25,29.54h0s.12.13.11.19a1,1,0,0,1-.13.3c-.12-.13.07-.22,0-.33h-.14v-.26h.11Z"/><path d="M11.13,34.78l.27.26-.06.13C11.14,35.09,11.14,35.09,11.13,34.78Z"/><path d="M17.9,24.62H18a.57.57,0,0,1,.08.13l.07.29h-.07s0,0,0,0,0-.12-.17-.18Z"/><path d="M39.33,19.67h.22l.07.24L39.4,20C39.42,19.84,39.24,19.78,39.33,19.67Z"/><path d="M11.72,25.39a.49.49,0,0,1,0-.17,1.6,1.6,0,0,1,.1-.23c.16.05,0,.24.19.31l-.27.08Z"/><path d="M38.31,30.23c-.13-.17-.12-.22,0-.26h.19A.7.7,0,0,1,38.31,30.23Z"/><path d="M36.8,31.36h-.23l.1-.07.07-.11H37l-.08-.07Z"/><path d="M35.51,27.22l-.16-.17H35.2V27l.19-.09h0a.11.11,0,0,1,.11.11v.21Z"/><path d="M39.8,35.35h-.21l.08.17h-.25l.11-.28Z"/><path d="M38.51,20.11v.25h-.19l-.09-.17Z"/><path d="M45.3,36.68v.15a.55.55,0,0,1,0-.4l.1.11V36.4c.06,0,.09.11.05.18l-.07.11Z"/><path d="M35.52,26c.06-.21-.17-.27-.2-.45.12,0,.14.2.27.12C35.62,25.79,35.68,25.89,35.52,26Z"/><path d="M42.47,34.84l-.09.22L42.27,35a.44.44,0,0,1,.08-.11C42.45,34.73,42.47,34.74,42.47,34.84Z"/><path d="M10.27,37.23l-.19.14c0-.06-.08-.12-.06-.17a1.06,1.06,0,0,1,.16-.19l.06.13Z"/><path d="M18.05,25.06h.07l.05-.17h0l.19.14C18.25,25.21,18.18,25.21,18.05,25.06Z"/><path d="M6.25,51.85l-.2-.42h0l.24.18Z"/><path d="M30.36,38.6c.06,0,.12.08.19.11s.1.13,0,.21C30.39,38.8,30.39,38.8,30.36,38.6Z"/><path d="M35.15,27.15h-.21V27h-.16v-.09c0-.11.13-.11.22-.08h0c0,.1-.06.2.09.25Z"/><path d="M37.14,33.92v.32a.2.2,0,0,1,0,.15A.44.44,0,0,1,37.14,33.92Z"/><path d="M36,40.05v.18l-.23.19V40.3Z"/><path d="M37.83,31h0c.06-.1.14-.12.21-.06a.39.39,0,0,1,.09.26.22.22,0,0,1-.25-.19h0a.15.15,0,0,0,.21.07Z"/><path d="M22.23,12.71l.08-.18.14.15c0,.07,0,.09-.09.11s-.08.05-.12.09V12.7Z"/><path d="M29.32,37.55h.34c0,.16-.16.09-.19.25Z"/><path d="M10.44,35.42l.15-.12.11.13-.12.17Z"/><path d="M12.47,25.73l.17-.06.06.21-.11.07-.12-.23Z"/><path d="M35.94,24.29c.12.24.12.24,0,.43Z"/><path d="M40.05,35.65l.2.11-.35.12Z"/><path d="M41.83,35.38l.06.24c-.1,0-.19,0-.21-.13Z"/><path d="M26.11,48.91a.08.08,0,0,0,0-.12l0,0c-.09,0-.05-.09,0-.14h0c.07,0,.16.09.19,0h0c.07,0,.09,0,.1.1h0s-.08.06-.09.1a.29.29,0,0,0,0,.13h-.07Z"/><path d="M21.48,24.79c.06,0,.15.1.13-.06.13,0,.14.12.16.22C21.68,24.89,21.5,25,21.48,24.79Z"/><path d="M22.92,12.65l-.08-.43c.15.11.12.27.14.42Z"/><path d="M25.49,5h0l-.11-.11h0l.1-.12.14.06C25.49,4.81,25.64,4.94,25.49,5Z"/><path d="M38.88,38c.06-.09-.18-.21,0-.31C39.05,37.91,39.05,37.91,38.88,38Z"/><path d="M42,35l-.19.14h0c.16,0,.1-.29.34-.24l-.12.15Z"/><path d="M21.05,25.2l-.12-.29C21.2,25,21.23,25.06,21.05,25.2Z"/><path d="M35.5,27.23h.08c0,.16-.12.21-.27.26v-.22h.17v-.08Z"/><path d="M19.11,26.45h.24v.22Z"/><path d="M48.05,37.56v-.19c.08,0,.17,0,.13.15s0,0,.07.08l-.15.09h0l-.1-.15Z"/><path d="M25.85,4V3.87c.13,0,.15.09.23.12L26,4.21Z"/><path d="M38.05,31.69l.28-.19c.07.07,0,.15,0,.24Z"/><path d="M39,31.41h0c-.05-.13-.05-.13.16-.22a.22.22,0,0,1-.08.21C39,31.46,39,31.42,39,31.41Z"/><path d="M35.42,26.9h0a.67.67,0,0,1,.08-.46c0,.12.14.2,0,.3s0,.12,0,.18Z"/><path d="M21.75,26.5c0,.07,0,.2.18.07l-.1.27c0-.07,0-.14-.1-.14v-.2Z"/><path d="M13.57,22.81v.42c-.1,0-.14,0-.12-.1s.06-.21.09-.32Z"/><path d="M19.7,26.3l-.19-.21h0l.15-.12a.29.29,0,0,1,0,.33Z"/><path d="M23.11,18.07v-.22h0V18l.12-.1v.17Z"/><path d="M38,34.59a.39.39,0,0,0-.1.08c-.07,0-.12,0-.13-.08l.23-.14Z"/><path d="M36.45,31.17c-.09-.15-.12-.25.07-.33Z"/><path d="M35.15,27.15l.07.12a.23.23,0,0,1-.29.07Z"/><path d="M11.6,33.68h0c.12,0,.13.11.15.22h-.26Z"/><path d="M38.47,40.05c-.09.07-.09.2-.24.15l.06-.16Z"/><path d="M18.3,25.31l.09.15v-.13h.06s.05.05,0,.07l-.12.15-.14-.17Z"/><path d="M39.46,35.19v.09l-.31-.09v-.13h0l.31.12Z"/><path d="M48.32,37.6h.19a.11.11,0,0,1,.14.06v0h0a.54.54,0,0,0-.33.13h0Z"/><path d="M40.37,35h.23l-.08.24Z"/><path d="M19.7,24.85l-.08.14.08.14h-.06C19.54,25,19.54,25,19.7,24.85Z"/><path d="M38.64,34.68h-.16v-.25h0Z"/><path d="M11.24,31.87h0l.07-.16.16.23h0Z"/><path d="M22.49,18c0,.1.09.21-.08.34V18Z"/><path d="M23.55,18.25c0-.12,0-.22-.09-.22s0-.06,0-.08h.07C23.63,18,23.64,18.07,23.55,18.25Z"/><path d="M34.84,28.41h-.22l.27-.14v.2Z"/><path d="M18.19,24.48h.07v.09a.23.23,0,0,0-.06.28h0l-.15-.11Z"/><path d="M22.46,12.16l.05.11v.12C22.34,12.34,22.34,12.32,22.46,12.16Z"/><path d="M37.1,22.33v.05l-.06.18h0v-.28l.05-.06Z"/><path d="M21.05,27.81c-.1-.12,0-.25,0-.35Z"/><path d="M47.41,38.57c.13,0,.18.08.29.18h-.31v-.14Z"/><path d="M17.25,18.87c-.08-.08-.08-.17,0-.28a.19.19,0,0,1,0,.27Z"/><path d="M23.2,17.52v.29l-.15-.15h0a.2.2,0,0,1,.19-.14Z"/><path d="M22.24,12.7c-.14-.11-.15-.19,0-.34v.35Z"/><path d="M35.8,26.28v-.21h0l.13.15v.1h-.09Z"/><path d="M6.74,42.93l.07.08.09-.09V43l-.15.19v-.26Z"/><path d="M43.05,35.4a.25.25,0,0,1-.28.2c0-.09.21-.08.17-.21Z"/><path d="M35.38,30.46h.1a2.39,2.39,0,0,1,.13.21A.47.47,0,0,1,35.38,30.46Z"/><path d="M23.57,9.3a.54.54,0,0,1,.16-.45A1.06,1.06,0,0,1,23.57,9.3Z"/><path d="M39.05,38l.1.33h0A.25.25,0,0,1,39.05,38Z"/><path d="M7.89,39.73h0L7.82,40l-.1-.23Z"/><path d="M6.47,51.42c0-.1-.22-.17-.07-.33Z"/><path d="M36.82,23c0,.16-.06.2-.19.2C36.58,23,36.82,23.12,36.82,23Z"/><path d="M37.05,23.19a.38.38,0,0,1-.11.31.76.76,0,0,1,.12-.32Z"/><path d="M42.16,35.24l-.11.16C42,35.22,42,35.2,42.16,35.24Z"/><path d="M38,35.26l-.13.24-.09-.2h0l.24,0Z"/><path d="M29.52,37.27a.15.15,0,0,1,0,.21l0,0-.07-.18h.1Z"/><path d="M48.1,13.37c-.07-.07,0-.11,0-.17l.09.2H48.1Z"/><path d="M40.4,35.37h-.23l.07-.16Z"/><path d="M35.05,26.91c-.06-.16,0-.21.15-.26h0l-.2.22Z"/><path d="M26.65,47.2l-.22-.07c0-.12.11-.1.17-.1h0v.19Z"/><path d="M6.6,42.84v.23H6.49c0-.11,0-.18.09-.24Z"/><path d="M38.81,35.38h.26l-.07.11Z"/><path d="M13.51,28.91l-.12.15c-.16,0,0-.13,0-.19h0c.07-.06.11,0,.14,0Z"/><path d="M35.71,25.48c-.12,0-.14,0-.12-.13S35.68,25.37,35.71,25.48Z"/><path d="M36.45,40.67l-.11-.16.19-.06v.19Z"/><path d="M38.05,35.12c.11.07.14.15.06.3,0-.08,0-.18-.16-.16h0l.09-.14Z"/><path d="M39.27,20.18l-.06-.2C39.33,20,39.33,20,39.27,20.18Z"/><path d="M43.81,34.72H44v.19Z"/><path d="M36.05,30.2c.18,0,.11.13.1.22Z"/><path d="M12.66,25.21v.27C12.55,25.38,12.55,25.3,12.66,25.21Z"/><path d="M37.16,21.44l.22-.07C37.3,21.55,37.3,21.55,37.16,21.44Z"/><path d="M27.32,51.84l.09-.11.1.23c-.15,0-.07-.17-.19-.13Z"/><path d="M35.28,26.43c-.17,0-.19-.07-.13-.21Z"/><path d="M13.51,21l.13-.11.07.13h-.18Z"/><path d="M35.05,26.4l-.1.27h-.06A.55.55,0,0,1,35,26.4Z"/><path d="M35.23,27.6l-.08.21c-.13-.13,0-.16,0-.23Z"/><path d="M37,22l-.16.11S36.78,22.07,37,22Z"/><path d="M36.05,26v-.26C36.21,25.83,36.21,25.83,36.05,26Z"/><path d="M7.52,39.76c0,.12,0,.25-.12.32a.2.2,0,0,0,0-.27h0l.1-.05Z"/><path d="M51.59,38.08h0c-.15,0-.1-.09,0-.18Z"/><path d="M35.71,38.57c0,.11-.1.08-.16.09s-.06-.06-.12-.11h.28Z"/><path d="M10.05,38.57v.19s-.1,0-.1-.06,0-.16.13-.13Z"/><path d="M46.37,38c.11.1.16.17.07.32Z"/><path d="M15.57,17.6v-.18C15.67,17.47,15.66,17.53,15.57,17.6Z"/><path d="M20.66,25h0v-.17l.14.16Z"/><path d="M27.45.29l-.07.06V.11c.17,0,0,.15.12.19Z"/><path d="M35.8,26.28h0c-.13.09-.19.06-.24-.12Z"/><path d="M22.26,28c-.16,0-.1-.14-.13-.21h0Z"/><path d="M36.43,22.57v-.13c.07.06.18,0,.19.18l-.17-.06Z"/><path d="M45.45,35.45v-.21s.08,0,.08.07S45.6,35.46,45.45,35.45Z"/><path d="M37.05,23.19h0s-.08,0-.08-.05a.16.16,0,0,1,.08-.14Z"/><path d="M18.22,23.36c0,.11.09.23-.08.32Z"/><path d="M19.38,25.52h-.09v-.21h.13Z"/><path d="M37.4,35.06a.27.27,0,0,1,0-.32Z"/><path d="M36.52,24.56l.16-.09-.07.24h0l0-.16Z"/><path d="M20.05,24.91h-.16l.05-.22Z"/><path d="M27.79,55.69c0,.06.09.1.08.12a.19.19,0,0,1-.17.11Z"/><path d="M19.66,23.18l-.15-.09v-.15Z"/><path d="M39.47,35.19,39.33,35h.23l-.1.15Z"/><path d="M40.87,35h.18C41.05,35.11,40.93,35.05,40.87,35Z"/><path d="M17.37,24.32V24.1C17.45,24.19,17.45,24.19,17.37,24.32Z"/><path d="M10.05,37.65c.18,0,.18,0,.14.12Z"/><path d="M42,35l.22-.06-.06.17Z"/><path d="M43.11,34.91h.08l.11.16h0C43.2,35.06,43.1,35,43.11,34.91Z"/><path d="M21.19,28.11l-.07-.21C21.25,28,21.25,28,21.19,28.11Z"/><path d="M35.05,27.78v.15C34.88,27.87,35.05,27.83,35.05,27.78Z"/><path d="M38.61,38.53h0c.08-.05.15-.07.19,0S38.68,38.55,38.61,38.53Z"/><path d="M10.24,36.73q-.09-.12,0-.18c.06,0,.1.15,0,.17Z"/><path d="M39.23,35.65l.07-.22C39.35,35.59,39.35,35.59,39.23,35.65Z"/><path d="M21.36,24.6l-.05.22C21.23,24.69,21.23,24.69,21.36,24.6Z"/><path d="M37.17,22.07a.23.23,0,0,1-.07-.25l.12.07h0l0,.19Z"/><path d="M63.92,43.77c.09-.11.13,0,.18.06l-.11.09v-.06l-.06-.1Z"/><path d="M20.05,26.61l-.11.06-.08-.19C20,26.48,20,26.57,20.05,26.61Z"/><path d="M5.24,24.7l.07-.16C5.34,24.63,5.34,24.63,5.24,24.7Z"/><path d="M38.66,35.8v-.18l.18.05Z"/><path d="M35.67,26.79h.09l-.11.22V26.8Z"/><path d="M20.51,27l.18-.13c0,.14-.08.14-.15.17Z"/><path d="M42.4,35.66h0Z"/><path d="M21.05,26.33s.06,0,.06.05v.09h-.06Z"/><path d="M48.27,13.59l.06-.21c0,.12,0,.12-.07.2Z"/><path d="M18.53,24.61c0,.06.14.11,0,.19l-.05-.17Z"/><path d="M7.21,40.24l.08-.12h0l-.08.12Z"/><path d="M37.05,21.68,37,21.9C36.94,21.71,36.94,21.71,37.05,21.68Z"/><path d="M18.38,24l.13-.12h0l-.13.12Z"/><path d="M35.26,26.17l.08-.12c.1.11,0,.11,0,.16Z"/><path d="M6.53,24.12c0-.09,0-.14.09-.17Z"/><path d="M20.85,24.15h.2l-.12.19v-.19Z"/><path d="M19.65,25.57c.11,0,.07.08.1.15h-.19v0h0a.1.1,0,0,0,.09-.14Z"/><path d="M34.84,28.41l.17-.2C35,28.37,35,28.39,34.84,28.41Z"/><path d="M35.84,25.47v.12s0,.06-.09.14a.49.49,0,0,1,0-.17Z"/><path d="M12.47,25.72c0-.06-.15-.1,0-.2a.2.2,0,0,1,0,.21Z"/><path d="M3.49,25.36V25.2h.06v.16Z"/><path d="M44.7,37.5l.16-.08v.13Z"/><path d="M36.21,25.17V25h0Z"/><path d="M42.46,16.47l.12-.14.06.14Z"/><path d="M26.17,20.89v-.15C26.21,20.79,26.21,20.79,26.17,20.89Z"/><path d="M36.15,24.79l-.09.14c0-.11,0-.13,0-.17Z"/><path d="M23.6,16.4l-.06-.15h0l.09.14Z"/><path d="M37.87,21.21h-.14l.13-.19Z"/><path d="M36.14,39.93v.12h-.06l0,0h.08Z"/><path d="M22.61,14.09l-.06-.19h.06Z"/><path d="M36.52,40.13c.12,0,0,.15.07.22h0v-.24Z"/><path d="M13.5,24.73h-.12c0-.11.09-.1.15-.12v.09Z"/><path d="M36.85,34.05l-.06-.1h0l.08.1Z"/><path d="M37.38,30.3v.12h0v-.13Z"/><path d="M22.72,9.07l-.08.11h0l.06-.13Z"/><path d="M36.84,30.08v-.17l.08.15Z"/><path d="M6.14,43.39c.13.07.13.07,0,.18Z"/><path d="M36.77,34.4c0-.07,0-.14,0-.18s0,.14-.06.17Z"/><path d="M63.92,43.76c0,.07,0,.1-.09.06l-.12-.09h.22Z"/><path d="M34.72,27.6v.11h0V27.6Z"/><path d="M19.63,24.46l.11.09C19.64,24.6,19.64,24.6,19.63,24.46Z"/><path d="M10.19,34.76l0-.22h0l.07.22Z"/><path d="M20,22.82l.07-.21.12.13Z"/><path d="M36.75,22.75l.07.17c-.06-.05-.09-.06-.1-.08s0-.05,0-.08Z"/><path d="M36.23,23.88l-.18.12c0-.14,0-.17.07-.18Z"/><path d="M8.39,24.2h0l.1-.13C8.51,24.17,8.51,24.17,8.39,24.2Z"/><path d="M25.27,50.66h0v.25C25.16,50.74,25.24,50.71,25.27,50.66Z"/><path d="M27.18,1.1V.82h0Z"/><path d="M41.05,35.29c-.09,0-.11-.1,0-.19Z"/><path d="M22,28.31l.06-.09h.09s0,.07-.06.08Z"/><path d="M26.13,3.7c0,.07.05.14,0,.2S26.13,3.76,26.13,3.7Z"/><path d="M24.34,7.38V7.19h0Z"/><path d="M21.36,24.6l.06-.07.12.13Z"/><path d="M11.45,34h.1v.06h-.11Z"/><path d="M18.29,24.57c.13,0,.13.05.11.17l-.1-.17Z"/><path d="M10.4,36v.11h0L10.35,36Z"/><path d="M18.93,24.7v.1h0l-.05-.11Z"/><path d="M13.19,30.1v.13h-.06v-.12Z"/><path d="M4.14,42.79l-.06.1h0v-.1Z"/><path d="M7.39,42.43l0,.17C7.34,42.47,7.34,42.47,7.39,42.43Z"/><path d="M14.05,24.92l-.1-.16c.13.1.13.1.09.16Z"/><path d="M37.2,33l-.08-.06h0l.06.07Z"/><path d="M10.86,36.67l.05.15C10.84,36.77,10.84,36.77,10.86,36.67Z"/><path d="M10.24,36.72v.15h-.08c0-.1.07-.08.1-.11Z"/><path d="M13.33,20.9V21h-.05V20.9Z"/><path d="M36.3,41.25h.14c0,.12-.09,0-.13.07Z"/><path d="M22.3,30.4v-.11h.05Z"/><path d="M7.74,41.07v.06H7.67v-.05Z"/><path d="M35.59,25l.14.06h0L35.57,25Z"/><path d="M36.78,40.63h.06v.07Z"/><path d="M48.23,13.22l.14-.11h0S48.35,13.25,48.23,13.22Z"/><path d="M30.33,37.29v.05h-.08v-.05h.08Z"/><path d="M47.89,13.34h0s0-.09.07-.05l.12.08h0Z"/><path d="M7.66,40.38l-.1.1h0l.09-.1Z"/><path d="M38.05,40.27l-.11-.06v-.05l.12.05Z"/><path d="M35.86,25.09l.06.11h0l-.08-.08Z"/><path d="M35.94,30.68v-.15C36.07,30.6,35.94,30.63,35.94,30.68Z"/><path d="M7.15,40h-.1v-.06h.11Z"/><path d="M16.46,18.19h-.1v-.08l.09.06Z"/><path d="M38.74,37.67v.18C38.62,37.79,38.66,37.74,38.74,37.67Z"/><path d="M19.93,26.35c-.06-.08-.11-.13,0-.2Z"/><path d="M18.49,25.73v-.07s0,0,.05,0h0Z"/><path d="M12.93,26h0Z"/><path d="M30.13,38.25l.08-.07h0l-.07.08Z"/><path d="M46.69,38.24v.12h0Z"/><path d="M36.53,31.11V31h0v.11Z"/><path d="M39.1,38.57a.13.13,0,0,1,0-.1h0v.11Z"/><path d="M11.88,25.49v.12h0V25.5Z"/><path d="M20.3,26.2h0a0,0,0,0,1,0-.05h0Z"/><path d="M21.59,25.46h0Z"/><path d="M23.71,31c-.12,0-.11,0-.08-.14l.08.15Z"/><path d="M23.74,18.12v.12h0Z"/><path d="M47.92,38.76h0Z"/><path d="M48.61,38.75h0Z"/><path d="M22.75,30.86v.07h0v-.08Z"/><path d="M36.05,26.3v-.13h0Z"/><path d="M23.29,30.74h.05l-.05.06Z"/><path d="M23.24,14.26v.13h0Z"/><path d="M41.21,18.73v-.1h.06v.11Z"/><path d="M38.05,30.4v.19h0a.54.54,0,0,1,0-.18Z"/><path d="M19.69,26.31c.06,0,.13,0,.14.06s-.1,0-.13-.07Z"/><path d="M41.44,18.62l-.08.08h0l.07-.1Z"/><path d="M36.24,40.35l-.07-.06h0l.08.05Z"/><path d="M29.24,19h-.1v-.17l.07.12Z"/><path d="M27.22,19.56h0Z"/><path d="M45,37.19v.13h0V37.2Z"/><path d="M30.34,37.29a.06.06,0,0,1,0-.06l.06-.06h.05a.09.09,0,0,1,0,.07H30.4Z"/><path d="M37.78,32.73l-.09.13h0V32.8C37.69,32.74,37.71,32.77,37.78,32.73Z"/><path d="M37.36,32.76v.07l-.07.07a.06.06,0,0,1,0-.06A.31.31,0,0,0,37.36,32.76Z"/><path d="M20.79,24.74l.09.07v.05l-.08-.08Z"/><path d="M35.67,26.78c0-.05-.1-.1,0-.17a.15.15,0,0,1,0,.18Z"/><path d="M23.32,8.79l-.08.09h0l.08-.1Z"/><path d="M21.16,27.36l-.06-.1h0l.08.09Z"/><path d="M19.27,21.81v.11h0v-.1Z"/><path d="M41.61,35.76h.16C41.74,35.84,41.67,35.79,41.61,35.76Z"/><path d="M23,8.53v0Z"/><path d="M37,34.41v.17C36.9,34.51,36.89,34.47,37,34.41Z"/><path d="M13.13,24.59v-.11h0l0,.1Z"/><path d="M26.23,47.44l-.06-.1h0l0,.09Z"/><path d="M3.05,27.71v-.22C3.17,27.56,3.05,27.64,3.05,27.71Z"/><path d="M19.87,27.64H20v.1Z"/><path d="M22.32,27.58c0,.06,0,.12-.11.1s.06-.1.12-.09Z"/><path d="M13.26,23.22h0a.21.21,0,0,1,0-.11h0Z"/><path d="M13.22,24.35v-.11h0v.1Z"/><path d="M14.73,23.85v-.06l.06-.06v.06Z"/><path d="M34.92,28.15l-.06-.1h0l.06.09Z"/><path d="M10.05,35.19v.1h0V35.2Z"/><path d="M27.7,55.52h.05l-.06.06h0Z"/><path d="M41.65,34.9h.13V35h-.13Z"/><path d="M10.55,33.16l.23.16h0c-.09,0-.14,0-.12.14h0l-.14.1c-.08-.05,0-.1,0-.15h0Z"/><path d="M36.05,34.47v-.09h0l.07.09Z"/><path d="M8.94,28.41c.14.07.14.08,0,.28Z"/><path d="M9.73,28.36l.08.08h0v-.12Z"/></g></g></g></svg>