<svg xmlns="http://www.w3.org/2000/svg" viewBox="0 0 74.12 68.95"><g id="Layer_2" data-name="Layer 2"><g id="Layer_1-2" data-name="Layer 1"><g id="crack3"><path d="M16.59,43.34c-.1-.12-.18-.25-.05-.38s0-.13.05-.17a.66.66,0,0,0,.17-.12l.14.1.16-.19h0l-.14.07c-.08-.08,0-.15,0-.23A1.49,1.49,0,0,1,17,42.1h.18V42c0-.2.07-.3.27-.23h.08l.12.08v-.08h0a.21.21,0,0,0,.11-.08.87.87,0,0,0,.18-.62h.21L18,40.94c.15-.07,0-.25.15-.33a.27.27,0,0,1,.06.31c-.08.18-.07.19.13.26,0,.09.1.18,0,.26,0-.1,0-.23-.18-.22,0,.13.12.25,0,.39l-.1-.14a.28.28,0,0,0,0,.25h-.18c0,.11-.15.19-.05.33l.17-.18c.1,0,.05.24.23.15v-.28c.06-.1.23-.15.15-.3.08,0,.15,0,.16-.1a.14.14,0,0,0-.12-.16h0c0-.12-.11-.27.07-.37l.15.11a.38.38,0,0,0,0,.36c.06.09,0,.23-.13.31l.15.1a1.28,1.28,0,0,0,.11-.2c.05-.16.05-.16.23-.14.06-.14,0-.24-.13-.34.13,0,.23,0,.26.1a.32.32,0,0,0,.25-.17,7.84,7.84,0,0,1,.5-.64l.19-.2c.21-.2.15-.19.06-.41s-.32-.64-.48-1l-.21-.4a2.58,2.58,0,0,1-.19-.37A5.58,5.58,0,0,1,18.8,37c0-.07-.09-.12-.14-.19v-.11a1.27,1.27,0,0,1-.31-.42.36.36,0,0,0-.13-.19.59.59,0,0,1-.25-.37.35.35,0,0,0-.14-.2c-.12-.06-.13-.16-.16-.25s-.06-.23-.23-.2h-.05a1.66,1.66,0,0,1-.26-.39c0-.12-.13-.12-.18-.19s-.11,0-.16,0l-.35.3h-.05l-.15.22h-.06c.09-.11,0-.18,0-.28l-.12.29h-.14l.07.28.17-.11h0a.61.61,0,0,1-.32.41h0l-.58.73c-.13.17-.25.35-.38.51l-.19.22c-.06.07-.26.31-.38.47a1.13,1.13,0,0,0-.08.24l-.17.07c0,.11.06.25-.11.31a.59.59,0,0,0,0,.37l.05-.12h.19v.09l.14-.22h.05l-.06.11v.33c.11-.16.11-.16,0-.2l.14-.21v.25l.17-.09.17.15h0a.44.44,0,0,1-.08.15h-.13c-.11.2-.11.2.1.36-.2-.07,0,.16-.14.17s0-.16-.08-.22-.09,0-.11,0a2.36,2.36,0,0,0-.41.19.44.44,0,0,0,.1.11s.25.1.28.22l.24-.16a.22.22,0,0,0,.16-.27v0h.2v.08a1.21,1.21,0,0,1-.05.18l-.09-.11-.06.23h0l.28,0c.06,0,.1.13.2,0-.13-.12,0-.27,0-.46a.76.76,0,0,1,.11.14v.1h.07V39h0c0,.05.11.12.18,0s0-.14-.06-.18h-.12c0-.09.19,0,.2-.13a1.17,1.17,0,0,1,.09-.24v-.15c0-.08.07-.07.15-.05l-.06.16h.06a.9.9,0,0,1,.11-.28l.16.12.15-.1c0,.24-.25.25-.32.43a.55.55,0,0,0,.4-.35l.14.15.06-.16c.06.14.23.11.23.3l.14-.19c.09.17.22,0,.35.07v.76l-.15-.07v.06a1.64,1.64,0,0,0,.19.29c.08.09,0,.23-.07.34s0-.06,0-.08a.35.35,0,0,0-.08-.21l.07.51-.11-.08h0L17,39.7l-.09.08c-.07,0-.15,0-.14.12v.16l-.13-.1c.07-.12-.15-.12-.15-.24s-.1,0-.12,0a1.47,1.47,0,0,0-.1.22l-.21-.3-.23.11a.49.49,0,0,1-.34.15s-.06.1-.08.1-.14.1-.22,0-.09,0-.08,0-.15.23-.25.32a1.9,1.9,0,0,1-.37.26v-.14h0l-.08.17c-.08-.16,0-.37-.22-.4a.27.27,0,0,0-.17.06c.13.06.19.15.17.26l-.24.23c-.06-.12.2-.23,0-.36l-.08.16h-.18l-.19.07.08-.17h-.15v-.13h-.22a1.28,1.28,0,0,0,.11.2c.12.16.12.2,0,.35a.3.3,0,0,1-.08.08c.13.13.09.37.31.44h0l-.12.07-.32-.05v.08l-.35.32h0v-.1l-.11-.2-.13.1c.08-.12,0-.19-.07-.27l.07.26a.33.33,0,0,1-.11.25v-.17c-.06.09-.22.08-.17.23l.13-.09c-.07.2-.08.2-.18.29a.31.31,0,0,0,0,.12H12v.23h.2v.2l-1.41,1.14,0-.14-.08.18h-.1V44l-.38.32a2,2,0,0,0-.48.4H9.5c-.07,0-.05.17-.18.24a5.8,5.8,0,0,0-.52.34c-.11.07-.22.11-.32.18a2.48,2.48,0,0,0-.48.59,7.15,7.15,0,0,0-.49.73,2.3,2.3,0,0,1-.35.41,2.56,2.56,0,0,1-.2.26c-.1.08-.08.27-.27.26a.56.56,0,0,1-.13.17v-.23h0v.22h0l-.08-.21a.17.17,0,0,0,0,.24l0,0c-.09,0-.2.07-.15.19a.11.11,0,0,1,0,.08c-.17.16-.24.39-.4.56s-.2.26-.29.4l-.24.41-.08.06s-.1.05-.1.07a.28.28,0,0,1-.15.13L5,49.93c0-.15-.06-.28.08-.41v.12a.36.36,0,0,0,.07.1c0-.19.2-.26.21-.43h.13l-.15-.09v.12s-.1,0-.1-.07-.1,0-.17-.07a.34.34,0,0,1-.21.33.38.38,0,0,0-.22.15c0,.06.12.12,0,.19s-.09,0-.14,0L4.33,50a1.86,1.86,0,0,0-.1.25H4a1.28,1.28,0,0,1-.26.35c-.11.08-.09.16-.09.31l-.07-.14h0a.6.6,0,0,1-.32.22l-.09.11c-.07-.14-.13,0-.21,0a.33.33,0,0,0-.24,0l-.25.13L2.54,51h0v.12c-.1,0,0-.14-.08-.22L2.33,51,2,50.7V51l-.13-.12L1.81,51c-.08-.27-.17-.32-.41-.25v-.13c.09,0,.16,0,.16-.12s-.16,0-.15.13l-.09-.18H1.16l-.06-.19-.17.18.06-.3-.1.15H.75s-.07,0-.06-.06-.09-.34.08-.47,0-.06.07-.1l-.23-.32s.08-.09.07-.13A2.33,2.33,0,0,0,.57,49l-.15.11v-.14h0a.33.33,0,0,0,.06-.12s0-.09-.11-.07h0c-.08-.1,0-.2,0-.3a3.26,3.26,0,0,1,.18-.52l.21-.68c.05-.14.11-.27.17-.4.14-.36.28-.73.44-1.09.06-.12,0-.28.17-.35a.11.11,0,0,0,0-.08.17.17,0,0,0-.1,0l-.17.21v-.17a4.62,4.62,0,0,1,.08-.65c0-.21,0-.17.18-.27a.59.59,0,0,1-.05-.19.37.37,0,0,1,.08-.18.61.61,0,0,0,.15-.41,2.1,2.1,0,0,1,.3-.8,1.06,1.06,0,0,0,.1-.3.18.18,0,0,1,.16-.18v.2c0,.06-.09.15,0,.28v-.23a.61.61,0,0,0,.19,0c.08,0,0-.1,0-.15h0s.12-.09.14-.16,0-.21.16-.18c0-.12.11-.13.14-.21a2.13,2.13,0,0,0,.09-.3.76.76,0,0,0,0-.15l.14-.06h0a.27.27,0,0,1,0-.32,2.33,2.33,0,0,1,.17-.26c.17-.2.17-.24,0-.4v-.22h0l.17,0-.13-.32H3.26a.8.8,0,0,1,.27-.4l.2.11c.07,0-.12-.1,0-.15s0-.11,0-.16a.29.29,0,0,1,0-.33A.63.63,0,0,0,4,38.7a.59.59,0,0,1,0-.23,3.67,3.67,0,0,0,.36-.6,8.08,8.08,0,0,1,.52-.9c.18-.31.3-.65.51-1a2.07,2.07,0,0,1,.28-.38c.1-.07.1-.25.16-.38s.19-.36.28-.55l.15-.19.51-1c.07-.13.11-.29.19-.41s.29-.57.47-.84A1.54,1.54,0,0,1,7.74,32a.67.67,0,0,1,0-.2l.15-.15A.77.77,0,0,1,8,31.13c.12-.27.27-.52.41-.78s.06-.29.17-.42a2.74,2.74,0,0,0,.29-.46c.05-.1.1-.2.17-.32l-.26-.07-.93-.29c-.3-.1-.59-.22-.89-.31a.54.54,0,0,1-.3-.21L6.82,28a.17.17,0,0,0,.24.16v.19s.07-.05.07-.07v-.17c0-.06,0-.06.07-.09L7,27.69c.09-.07,0-.2.12-.25v.22a.14.14,0,0,0,0-.2s0,0,0,0L7,27.2l.15.05v-.38H7l.18-.22s-.12-.09,0-.18a.33.33,0,0,0,0-.14,1.62,1.62,0,0,0-.1-.18l.14-.1L7,25.62H7v-.15h.24v-.13h.24v-.29c.14,0,.24-.12.42-.08a.47.47,0,0,0,.43,0,.17.17,0,0,1,.17,0c.16.08.36,0,.51.09s0,.05,0,.09l.1-.12.08.12v-.08a4.86,4.86,0,0,1,1.1.41,2.47,2.47,0,0,0,.84.21c.43,0,.86.06,1.29.1a8.08,8.08,0,0,1,.86.1,2.26,2.26,0,0,0,.52,0,6,6,0,0,1,.85.09c.34.05.69.06,1,.08.1,0,.18,0,.19.15a.29.29,0,0,1,.35-.1c.07,0,.15.07.24,0l.09.09h.1c-.06.15-.08.15-.19,0a.53.53,0,0,0-.17-.08l.19.27h-.15a.67.67,0,0,0,0,.2h.19l-.08-.2h.14c0,.13,0,.26.19.29,0-.16,0-.15-.13-.2s0-.06-.05-.09.11-.12,0-.2,0-.06.05-.07a.81.81,0,0,1,.31,0,4.1,4.1,0,0,0,.49.06,3,3,0,0,1,.57.1h.4a.95.95,0,0,1-.14.24c.06.15.16.28,0,.45.06,0,.11.11.16,0s.12-.08.17,0,.13.08.21.12l.05-.15h.06c.08.06.1.26.27.15.11.13.34.13.36.4v-.15c.11.05.11.05.17.22l.26-.09c.13.09.13.23.16.35h0l.19.1h0a.33.33,0,0,1,.16.36.2.2,0,0,0,.13.25h0a.24.24,0,0,1,0,.12H20.5l-.06.36.14-.08v.19l-.07.08h.16l-.11-.09.1-.06.09.1c.22-.07,0-.25.08-.37a1,1,0,0,0,0-.42h-.17v-.1h.08a1.15,1.15,0,0,0,.12-.25v-.38a2.57,2.57,0,0,0-.06-.55V25.51a3,3,0,0,0-.05-.6.4.4,0,0,1,.15-.38l.18-.11v.18h.17L21,24.37l-.29.17c.06-.26-.06-.5,0-.75a1.61,1.61,0,0,0,0-.31c0-.14,0-.2.19-.21l-.08-.07c-.14-.13-.14-.12-.06-.32s0-.13,0-.21h.09a1.24,1.24,0,0,1-.15-.92,1.29,1.29,0,0,0,0-.48.81.81,0,0,1,0-.31,1,1,0,0,1,.09-.26c.08.13.26.22.25.44a.4.4,0,0,0,.17-.28h.18s0-.07-.05-.08a.12.12,0,0,1-.1-.16l.1.06v-.45l.16.13v-.1c.2.09.29,0,.32-.19h0c.08-.05.17-.11.25,0l.34-.21h.22a3.28,3.28,0,0,1,.5-.1h.18c.08.15.08.15-.06.27l.05.07.06.06.16-.35a.25.25,0,0,0,.25.23c.13,0,.2.14.31.1l.21.33.14-.1h.05v.12c-.19.16-.13.36-.1.56s0,.15-.07.31a.41.41,0,0,1,.11-.07h.15c.06,0,.07-.24,0-.35l.14-.24s.06,0,.07.05l.32.75c0,.09.09.18.14.27q.42.77.87,1.53c.05.1,0,.25.16.3,0,.12.08.26-.06.37s0,.06,0,.1-.08.06-.12.06S26,23.9,26,23.76c-.11.17,0,.25.08.37a.47.47,0,0,0,0,.33.38.38,0,0,1,0,.15c0,.07,0,.09.08.09s-.06.18.07.23.13-.16,0-.22c.22,0,.22,0,.28-.13h0l.15-.24.2.4a1.43,1.43,0,0,0,.09-.27v-.56A4.41,4.41,0,0,1,27,23a.54.54,0,0,1,0-.18c0-.08,0-.21.07-.24s.1-.19,0-.3a.06.06,0,0,1,0-.06c.05.09.1.17.14.26a2.29,2.29,0,0,1,.09.28c.29-.19.15-.41.11-.64,0-.06.19-.07.1-.2.13-.08,0-.15,0-.23a.33.33,0,0,1,0-.14,1.21,1.21,0,0,1,.05-.18l-.29-.14c.07.29-.17.52-.11.81-.16,0-.12-.14-.12-.21a2.72,2.72,0,0,1,.09-.69c-.15-.14,0-.32,0-.5a.79.79,0,0,0,0-.43v-.14a1.09,1.09,0,0,1,.07-.42,1.37,1.37,0,0,1,.16-.32v.19s0,0,.07.06h0l-.08-.11c.12,0,.12-.09.13-.17a.25.25,0,0,1,.1-.23l.12.2c.1-.12.09-.15-.16-.32.11-.08.11-.12,0-.29v.22l-.23-.07h0l.12-.24.3-.09h0l.08.11a.76.76,0,0,0,.13-.39c0-.11,0-.19.14-.22l.24.16h0l-.18-.2.12-.23.23.18-.06-.3c.07-.05.22-.08.14-.25.21.06.37-.1.56,0h0l.16.14c.1-.14,0-.19-.05-.26h0c.17.15.18.19.09.33s-.13,0-.19,0v.11h-.15l.19.28c.12-.13,0-.18-.05-.26l.21.08v-.23l.24.21c.05-.09.12-.07.19,0,0-.12.14,0,.2,0,.18-.29.21-.29-.14-.63v.17h-.19c.05,0,.13-.07,0-.13h.05c.15,0,.3-.05.45-.06s.17,0,.18.06.21.24.34.34v-.13c.12,0,.11.1.14.19l.18-.1v.13c.09,0,.13,0,.15-.22l.09.18v.11h.06v-.1l.07.07c.09.1.07.15-.06.2h0c0,.34.11.42.39.26h0a.65.65,0,0,1,.41.33.44.44,0,0,0,.08.11h.15c.05,0,.07-.09.11-.14h.14V18.3h0a2.11,2.11,0,0,1,.26.4,1.51,1.51,0,0,0,.18.26v.2c0,.06.11.08.11.09a1.24,1.24,0,0,1-.2,0v.07l.12.13v.05L33,19.2l-.12.1.25.23s.1.09.1.14a1.07,1.07,0,0,0,.28.37c.12.1.19.12.24.24s.1.08.15.12h0l.11.27s-.17,0,0,.17l.25-.27.11.08c-.13.13-.13.13,0,.26.14-.09.14-.09.21.08a.61.61,0,0,1,.07.1c-.13,0-.15-.07-.19-.13a.17.17,0,0,0-.19.15h0c0,.09,0,.16.07.21s0,.07,0,.11l.1.05c0,.1,0,.25-.23.19l-.18.15h.26c0,.09-.18.14,0,.25.09-.13.19-.26.29-.38s.07-.15.18,0v-.22h.07l-.07-.11v-.17l.08.13h.25v-.11s-.11-.1,0-.16,0-.11,0-.17.08-.38.13-.59h.11v-.06a.21.21,0,0,1,0-.28,1.5,1.5,0,0,0,0-.3c.06-.21.11-.41.18-.61a10.37,10.37,0,0,0,.31-1,2,2,0,0,0,.08-.72.29.29,0,0,1,0-.13.76.76,0,0,1,.11-.14.24.24,0,0,1-.15-.28,4.18,4.18,0,0,0,0-1v-.51c.06-.22-.07-.42-.06-.64s0-.44,0-.66V12.81a1.68,1.68,0,0,1,.15-.73,1.64,1.64,0,0,0,.1-.38,3.07,3.07,0,0,1,.42-.92l.1.13h0v-.23a2.56,2.56,0,0,1,.71-.79,4.15,4.15,0,0,1,.43-.3,5.72,5.72,0,0,0,1.15-.93c.26-.26.48-.55.73-.81a3.91,3.91,0,0,1,.41-.3v.16l.11-.08L40,7.47h.34a.32.32,0,0,1,.08-.27,1.86,1.86,0,0,0,.27-.29c-.38-.3-.84-.48-1.1-.9l.14-.08c-.13,0-.13,0-.13.09-.13-.08,0-.16,0-.27h-.19a1.53,1.53,0,0,1-.06-1.15,4.54,4.54,0,0,1,.3-.68c.17-.33.35-.67.5-1a3.13,3.13,0,0,0,.25-1A4,4,0,0,0,40.19.54,2.5,2.5,0,0,1,40.06,0H41.4l.12.51a4,4,0,0,1,.15,1.28,4.79,4.79,0,0,1-.1.76,2.94,2.94,0,0,1-.22.76l-.14-.16v.14s.08.19,0,.28a7.45,7.45,0,0,0-.37.72l-.12-.08-.06.12h.13l-.11.2a1.65,1.65,0,0,0-.2.52.52.52,0,0,0,.29.56l.41.26a.12.12,0,0,1,.1.16c0,.09,0,.09.1.09s.19,0,.18.21a5.23,5.23,0,0,0,0,.56.61.61,0,0,1,0,.19v.3l-.1-.14a1.59,1.59,0,0,1-.39.63h.16V8l-.54.39A3.37,3.37,0,0,0,40,9v.35l.1-.18h0v.21L40,9.47c0,.1,0,.17.13.19l.58.09h.14c.17.12.38.07.57.12A3.82,3.82,0,0,0,42,10a2.91,2.91,0,0,0,.59,0A.84.84,0,0,0,43,9.82a2,2,0,0,1,.79-.34,4.08,4.08,0,0,0,1.67-.88c.23-.19.47-.37.72-.56l1.06-.79h.07l.13.13v0c0-.09,0-.08.11-.07a.65.65,0,0,0,.2,0,.85.85,0,0,0-.25.56l.15-.17c.09.12,0,.21,0,.34l.29-.15.11.12-.14.2.25-.06c0,.09,0,.13-.08.17l-.81.6-1.1.81-.85.62-.09-.15-.08.17a.11.11,0,0,0-.16.07c0,.13-.17.1-.26.14a1.08,1.08,0,0,1-.5.12l-.07-.16c0,.14,0,.14.07.16L43,11a1.5,1.5,0,0,1-.42.09L42.5,11v.08a23.38,23.38,0,0,1-2.63-.35c-.18.36-.34.71-.52,1s-.21.32-.32.49V12h0v.25c0,.16-.12.19-.17.35l-.06-.13-.21.23.17.06-.25.22v-.17h0l-.2.2s-.07.12-.06.16c0,.26-.14.36-.28.5-.06-.15.13-.16.19-.29H38a.23.23,0,0,1-.06.19c-.06.06,0,.09.09.09-.09.11-.16.26-.36.16v-.24l.15-.06-.13-.43h0v.32l-.15-.14c-.07.05-.18.08-.21.15a.48.48,0,0,1-.12.22c-.07-.16,0-.25.15-.38s.12-.09,0-.18l.2.07v-.08c.19,0,.19,0,.19-.18l-.13.07a.32.32,0,0,1,.1-.18c.07,0,0-.09,0-.13a1.1,1.1,0,0,1,.13-.28c.18-.28.36-.55.55-.81a2.73,2.73,0,0,1,.23-.25l.1-.1h.14v.27l.06-.18.09-.15c-.13,0-.23-.1-.31,0s-.1-.09-.07-.16l.2-.5c.07-.17.06-.18.1-.27h0c-.15.09-.32.17-.47.28a5.27,5.27,0,0,0-.57.49.84.84,0,0,0-.16.33c-.09.33-.16.67-.24,1l-.06-.12c-.06.13-.06.13,0,.26s-.24.17-.35.27a1,1,0,0,0,0,.25c0,.13,0,.15-.12.2L36.89,13h0a.87.87,0,0,0,.07.45c-.1.16,0,.32,0,.48a3.38,3.38,0,0,0,0,.45l0,.06s-.07-.07-.06-.09a.13.13,0,0,1,.16-.07h0c0,.21.06.44-.16.6A.13.13,0,0,0,37,15v.43h-.06a1.58,1.58,0,0,1,.15,1h0l-.06-.17h0l.09.35h0l-.08.07c0,.1,0,.26.09.3s.06.2.06.28,0,.16,0,.25,0,.11-.13.12A.4.4,0,0,1,37,18c-.06.25-.12.5-.19.75s0,.21-.21.18-.07.08-.13.15h.18v.17l-.17-.06c-.08.13,0,.15.1.21v.21h-.19l.13.11-.07.28s-.16-.07-.12.08c-.09,0-.07-.08-.08-.14v-.15a.38.38,0,0,0,.08-.09v-.21h0v.3c-.09.08-.11.28,0,.34s.06,0,.1,0,.09.12,0,.26h-.15l.19.12-.12.39-.19-.07.13-.13h-.13l-.34-.2c-.05.11-.1.21,0,.34,0-.1,0-.15.14-.12s0,.09,0,.14l.14.11a.23.23,0,0,0,0,.14h-.06V21l-.17.05v-.15c-.06,0-.14,0-.13.08l.14.06v.06s0,.18-.1.22h0c0-.13-.14-.1-.22-.18l-.08.41c.12.09.22.16.31.24s0,.09,0,.16c-.06-.09,0-.23-.18-.17v.08h0c-.11.11-.12-.05-.23-.1l.09.29h0c-.09.06-.21.1-.09.24s0,.08,0,.14l-.18-.33c0,.28,0,.44.23.52l-.25.22v-.15c-.29.15-.35.28-.24.51a.32.32,0,0,0,0,.45l0,0-.25-.06-.07.09c0-.06,0-.2-.15-.13l.06-.17-.18-.07v.1l.16.13c-.12.13-.12.13,0,.27a.24.24,0,0,1,0,.12l.14.51-.17-.13-.12-.08V24l-.13.09a.56.56,0,0,1-.1-.36h.13c.05-.11,0-.13-.1-.15a.53.53,0,0,0-.54.06.3.3,0,0,1,0,.42h0a1.46,1.46,0,0,0-.1-.46l.22-.11c-.12-.06-.12-.06-.23,0v.11H33.4a.41.41,0,0,0,.09.42c.09.13.06,0,.1,0l-.07.33c.26-.15.29-.21.22-.4.09,0,.09,0,.16.17l-.3.33-.19-.18a.16.16,0,0,1,0-.11.56.56,0,0,0-.17-.4l0,.12-.29-.4h-.13c0-.11.17-.12.15-.25a.45.45,0,0,0-.15-.34v.19h-.17l.06.17c-.1,0-.19,0-.29.06a1.12,1.12,0,0,1-.28-.51l-.17.09c-.07-.17-.24-.17-.37-.16s-.1,0-.13-.09.12-.08.32.05c0-.13.24-.1.21-.28s-.17.13-.3.07a.92.92,0,0,0-.33,0h0a.35.35,0,0,0,0-.41v-.15h0l.14.2a.33.33,0,0,1,.22-.33l.33.31a.14.14,0,0,1,0,.09.44.44,0,0,0,.33.26c0,.08,0,.11.11.11v-.16l-.08.06a1.28,1.28,0,0,1-.07-.28.37.37,0,0,0-.24-.31h-.08s0-.29-.08-.43,0-.18,0-.29.29,0,.41-.06.05,0,.08.06c0-.23,0-.24.27-.15l-.11-.19.17.06.06-.11h.12l-.1-.52-.11.08-.09-.22.23.08h0l-.32-.28V19.7l.22-.1-.09-.32h0v.23a2,2,0,0,0-.15-.59l-.08.07-.14-.13-.09.27a.24.24,0,0,1,0-.23c.1-.14,0-.22,0-.31l-.17.2a.6.6,0,0,0-.05-.31c-.05-.09.07-.19,0-.28a4.57,4.57,0,0,0-.05.52c0,.11,0,.21-.12.27s0,.12,0,.14.18.34.35.44a.4.4,0,0,1,.19.28l.18-.34a.26.26,0,0,1,.16.18c-.22.07-.22.07-.25.35h-.06c-.06,0,0,0-.05.05s.05,0,.06,0V20l.16.07h0c0,.09,0,.2-.19.14s-.16.05-.23.07c0-.18-.27-.13-.39-.26l-.16.18h.23l-.13.27H31.5v-.25h-.06l-.05.2h0l-.1.16-.06.13h0a.36.36,0,0,1,0-.32v-.14H31.1l-.09.08h0l-.13-.54-.09.16h-.07l-.13.26h0c0,.1-.05.21-.07.31l-.1.33a1.1,1.1,0,0,1,.06.26,1.36,1.36,0,0,1-.11.28c-.06-.11-.06-.11,0-.19l-.23-.34h.13c-.09-.12.08-.3-.09-.45,0,.08,0,.19-.08.2s0,.11,0,.17V21H30v-.22h0s-.08.07-.08.11a.67.67,0,0,1-.18.3.72.72,0,0,0-.08.32c-.07-.09-.13-.19-.19-.28.11-.06.06-.17.05-.26l-.09.17c-.16-.07,0-.19-.05-.29a1.76,1.76,0,0,0-.13.5l.23-.12a.61.61,0,0,0,0,.27c0,.09.12.15.18.23h.06l-.05-.2c.11-.05.14,0,.13.1V22h-.05l.32.26h.19v-.11c.12.05.05.13,0,.19l-.27.08.18.17c.13.09.1.09.12.27a1,1,0,0,1,0,.42,1.62,1.62,0,0,0,0,.44,4.12,4.12,0,0,1,0,.86v.18a1.63,1.63,0,0,0,0,.54,1.67,1.67,0,0,1,0,.63c-.21.1-.21.1-.2.33a.23.23,0,0,1-.06.15l0,0a.18.18,0,0,1-.05.07c-.05-.19-.16,0-.23,0l-.07.11c.12,0,.21.1.29,0a.51.51,0,0,1-.43.17v.06a3,3,0,0,1,.1.52c0,.05.07.1.11.16a.4.4,0,0,0-.09.44l-.16.17c-.1.09,0,.19,0,.29s.18,0,.1.16.06.12.1.19l.08-.08c0,.09,0,.19.06.24s.15,0,.24,0,0,.06,0,.09c-.14.22,0,.44,0,.66a6.26,6.26,0,0,0,0,.75,11.3,11.3,0,0,0,1.15-.92l.08.11.06.06c-.13,0-.1.17-.12.26C31,30,31,30,31,30.18s.11-.09.14-.08.07-.1.13-.1l.06.1a2.66,2.66,0,0,1,.11-.47.49.49,0,0,0,0-.17l-.23.21c0-.21.18-.23.24-.38l.13.12h.06v.06c-.12,0-.06.14-.11.2h.05l.08-.2c.09.07.15,0,.2-.08v.23a1.71,1.71,0,0,1,.25-.22c.11-.07.14-.12.07-.23s0-.06.05-.12v.17l.34-.21h.08s0-.1-.06-.11v-.09c.2,0,.24-.06.28-.31h.21l.07-.17h.11c0-.09,0-.19.08-.22s.12-.17.2-.26l-.38-.08h0c.06-.14.12-.28.31-.26l.09-.09a1.34,1.34,0,0,0,.22-.31c0-.11.24,0,.22-.21a2.25,2.25,0,0,1,.06-.36,1.44,1.44,0,0,1-.15-.61c.17-.07.3.17.46,0V26l-.12.09.12.25c-.07,0-.09,0-.09.09h-.17l.2.18v-.24c.15.08.15.08.23-.05h-.13a.35.35,0,0,0,.21-.22h0l.16.17v-.15a4.46,4.46,0,0,0-.22-.5c-.11-.18-.11-.28.07-.48.1.19.32.12.47.24l-.07-.1.29-.31a.13.13,0,0,0,0-.18c-.07-.1-.15-.21,0-.37l.19.48h.23c.08-.23-.15-.4-.13-.63l.12.06v-.15c.23.12.27.26.15.44v.07s-.06,0-.06.05A2,2,0,0,0,36,25a.51.51,0,0,0-.06-.32l.14-.05v.31l.13.1c.06,0,.07,0,.08.1s.07.17.19.08l.26-.21-.08.35a.17.17,0,0,0-.17.2l.12-.06.07.16h0v-.19a.22.22,0,0,1,.05-.16l.16.32c.1-.14,0-.41.3-.47A.44.44,0,0,0,37,25c-.14-.07-.16-.19,0-.28l.12-.06.09-.09c.05.13,0,.3.13.36h0v.09l.19.09.11-.31h.12c.1-.11,0-.18,0-.28a.44.44,0,0,0,.15.05.34.34,0,0,0,.14-.05l0,.09h.06c.06,0,.11-.14.2,0s.18.23,0,.45L38.14,25h0l.06-.17c.07.08.13.05.2,0h0l-.1-.12-.1.16c-.08.06-.1.19-.23.16l-.12.28-.14-.15c0,.12-.1.22,0,.3l.11-.16a1.13,1.13,0,0,1,0,.26.11.11,0,0,1,0,.09c-.22.1-.17.31-.24.51l.21-.07h0v.06l.09.22c.11-.18,0-.18-.1-.21s.06-.07.06-.09a.28.28,0,0,1,.13-.18c.08,0,0-.21.15-.11a.65.65,0,0,0,.11-.22.26.26,0,0,1,.11-.24c0,.1,0,.21.12.23a.3.3,0,0,1,.21-.17c.15,0,0-.16,0-.26a.35.35,0,0,0,.43-.16.18.18,0,0,1,.21-.14c.12,0,.12-.1.13-.17a1.34,1.34,0,0,0,0-.4l-.06.17-.19-.26h0l.15-.11a1.46,1.46,0,0,1,.16.19.76.76,0,0,1,0,.3c.12,0,.23,0,.3-.14s0-.06.12,0,.17,0,.27-.07L40,24.2l0-.12c.13,0,.15.09.19.16a2.62,2.62,0,0,1,1-.6h0a2.64,2.64,0,0,1,.86-.37c.29-.12.6-.08.9-.21v.19h-.14l.1.13h0s.15,0,.14-.12l.13.13.08-.05c.16.15.26.17.38.07s0-.15,0-.23l-.21.06c0-.22,0-.26.21-.3H44l.61-.08a1.41,1.41,0,0,1,.41,0V23h0v-.1c0,.07,0,.07,0,.27h.27a1.68,1.68,0,0,1-.09-.32c0-.12,0-.13.15-.14v.16h0l.09-.18h1.67a.18.18,0,0,0,.25,0l0-.06c.09.16.21.12.33.1v-.26l.26.24c.12-.1.2,0,.33.09l.1-.17.16.17c.12.05.23-.06.37-.1l.11.16h.55l-.06-.18c.06,0,.11,0,.12.08a.33.33,0,0,0,.24.24,1.71,1.71,0,0,1,.39.17h.15a2.12,2.12,0,0,1,.4.25l-.18.24.23.29.1-.09.06.08c-.1.1-.1.1,0,.15V24l.06.09c.13-.11,0-.23,0-.34h.11v.07l.09.22v.06l.09.22a.34.34,0,0,0,.06.12h.26a.64.64,0,0,0,.18-.06l-.13.22a.13.13,0,0,1,0,.2h0a.73.73,0,0,1-.15.32.31.31,0,0,0-.07.21c.14-.14.31-.25.35-.46a.33.33,0,0,1,.11-.21c.17-.06.17-.21.19-.29l.24-.22a1.29,1.29,0,0,0,.28-.38.19.19,0,0,1,.2-.12h0l.09-.17h0l.09-.11L53,23.28h0a9,9,0,0,1,.79-.85,12.27,12.27,0,0,1,1.13-.92A2.9,2.9,0,0,1,56.15,21a3.53,3.53,0,0,0,.9-.36,1.73,1.73,0,0,0,.73-.76c.16-.33.33-.65.49-1a2.82,2.82,0,0,1,1-1,1.47,1.47,0,0,1,.89-.2,2.68,2.68,0,0,0,1.45-.19c.49-.21,1-.38,1.49-.58.24-.1.48-.22.72-.33l.78-.36a1.94,1.94,0,0,1,.33-.07H65c0-.15.21-.12.31-.2V15.8c.07-.07.25-.07.17-.22s.12.06.19,0a.38.38,0,0,0,0-.15.15.15,0,0,1,.12-.16h.06l.1.2h-.07s0,.1.07.1v.19l.1-.06-.11-.13v-.11l.13-.1.05.33.71-.27,1.21-.5.39-.18c.44-.2.88-.39,1.3-.63.18-.1.34-.24.53-.34l1.67-.86a3.93,3.93,0,0,1,.66-.3,4.43,4.43,0,0,0,.67-.3h.13c.07.19.24.13.39.14l-.09.08.14.1c0,.22,0,.22.12.22V13a.52.52,0,0,0-.43.11v-.24l.15-.06-.1-.17h-.28l.1-.06-.13-.15v.1h.06l.06,0c.09,0,.07.13.06.21a.54.54,0,0,0,0,.18v.11h.1v-.07a.33.33,0,0,1,0,.14c-.12.08-.13.21-.2.3s-.15.2-.21.18-.15.08-.21.12a4.52,4.52,0,0,1-.51.34l-2,1.15-1.11.62c-.22.11-.45.19-.67.28s-.62.27-.93.39c-.55.21-1.09.42-1.65.6a13.36,13.36,0,0,0-2.2.94,4.09,4.09,0,0,1-.49.18l-1.18.46a3.13,3.13,0,0,1-1,.3h-.73a.6.6,0,0,0-.48.21,3.46,3.46,0,0,0-.58.93,3.22,3.22,0,0,1-1.22,1.46c-.14.08-.26.22-.45.2s-.23.14-.36.2c-.33.14-.7.17-1,.32a5.19,5.19,0,0,0-.81.5c-.14.09-.28.2-.41.3s-.12.14-.19.2a2.22,2.22,0,0,0-.38.37,8.34,8.34,0,0,0-.82,1.06.65.65,0,0,1-.18.15h0v.37c0-.06-.1-.08-.14,0s0,.13.09.21v.09l.22-.21H53.5l.07-.23v.09c.24,0,.36.21.5.36a.56.56,0,0,1,.09.17c.07.13.15.16.26.05s.32-.3.47-.46a7.93,7.93,0,0,1,.82-.82c.18-.13.31-.34.49-.49s.41-.28.6-.45.2,0,.24-.14.22-.17.31-.27.2-.1.27-.21.11,0,.15,0a.8.8,0,0,1,.21.15,1,1,0,0,1,.15.21s.07-.16.15-.07,0,.18,0,.29l.33.1h0V24h.13q-.09.14,0,.21a.19.19,0,0,0,.1.05.3.3,0,0,1,.26.24c.06,0,.12-.13.16,0h.12c.11.11.2.28.38.34v-.12l.21.06-.14.29h0l.21-.18a.4.4,0,0,1,0,.56l-.05,0c-.13,0-.15.1-.22.15a.14.14,0,0,1-.09,0,1.6,1.6,0,0,1-.51.67,2.15,2.15,0,0,1-.52.48,5,5,0,0,0-.59.53c-.2.19-.39.4-.58.61s-.37.4-.55.61l-.33.39h0a5.7,5.7,0,0,0-.78.85c-.33.32-.63.66-.94,1a1.3,1.3,0,0,0-.41.75v.06c-.16.46-.33.91-.5,1.36a2.19,2.19,0,0,1-.25.48,1.51,1.51,0,0,0-.2.45,4.45,4.45,0,0,1-.39.86,2.87,2.87,0,0,0-.29.7,1.63,1.63,0,0,0,0,.54,3.44,3.44,0,0,0,.12.64,1.06,1.06,0,0,1,0,.36c-.17,0-.09-.22-.25-.19a.43.43,0,0,1-.28.32l.07.32h0l-.18.06v-.32a.4.4,0,0,1-.13.09s-.07,0-.13-.05l.07.25h.23a1.63,1.63,0,0,0-.11.23.09.09,0,0,0,0,.1c.14.14.08.26,0,.39v.09L52.1,38c-.1.09,0,.19,0,.27s-.11,0-.11-.22l-.3.23-.18-.16v.15c-.07,0-.16.07-.16.1a.54.54,0,0,0,.06.25h.19l.17.14h-.25a.82.82,0,0,0,0,.44.1.1,0,0,1,.08.06h0v.12h0l-.18.32v-.23l-.16.09v-.14h0v.2a.42.42,0,0,0,.51.05l.16.2.22-.26c.21,0,.13.19.15.3l.32.09.12-.28c.13.08.23,0,.37-.07L53,39.8h0s.11-.09.15-.08a5.34,5.34,0,0,1,.8,0h.25l.06.2c.2.1.13-.18.27-.17v.17h.26c.06,0,.24-.06.36,0l.19.09c0,.06,0,.18.1.18v-.14c.55.31.56.84.55,1.37a1.29,1.29,0,0,0,.48,0c.52-.07,1-.16,1.56-.21q.61,0,1.23,0a5.24,5.24,0,0,1,1.47.28,15.47,15.47,0,0,1,1.7.8l.21.08a5.73,5.73,0,0,0,1.7.19A9.48,9.48,0,0,0,66,42.19c.3-.06.6-.16.9-.25a3.35,3.35,0,0,1,.62-.17,1.05,1.05,0,0,1,.68,0V42h.2l.17.25h.17c0,.33,0,.33.17.39h-.16l.1.29h-.09c.13.24-.06.4-.17.56-.22.31-.48.61-.71.92a3.33,3.33,0,0,0-.48,1.09,3.9,3.9,0,0,0-.18,1,1.77,1.77,0,0,0,.41,1.27,1.75,1.75,0,0,0,.55.38,1.2,1.2,0,0,1,.21.17v.18l.23.07c-.07-.09-.2-.08-.12-.21l.25.19v.25h0l.07-.24.11.31h0l-.07.12-.12-.1c0,.2-.09.41.07.59H68.6l-.13.12-.84-.32c-.18-.07-.35-.18-.53-.25a1.55,1.55,0,0,1-.45-.36,2.86,2.86,0,0,1-.71-1.24,2.39,2.39,0,0,1-.1-.84v-.37a3.42,3.42,0,0,1,.16-.72,6,6,0,0,1,.25-.92,5.17,5.17,0,0,1,.28-.64c.07-.15.15-.29.24-.46a.62.62,0,0,0-.47,0,3.71,3.71,0,0,1-.71.14,8.55,8.55,0,0,1-1.34.11A6.53,6.53,0,0,1,63,43.64a4.78,4.78,0,0,1-1.17-.35,2.13,2.13,0,0,1-.42-.23,5.14,5.14,0,0,0-2-.73,5.24,5.24,0,0,0-1.37,0l-1.39.14a3.47,3.47,0,0,1-.45.06c-.14,0-.3,0-.29-.23-.15,0,0,.13,0,.2s-.14,0-.15-.11c-.13.13-.17.13-.31,0h.17c-.27-.21-.27-.21-.4-.07s-.07-.1,0-.17a.92.92,0,0,0,.09-.23h-.15l.1-.57-.08-.09h0A.88.88,0,0,1,55,41a.31.31,0,0,0-.22-.18,3,3,0,0,0-.84-.06H53.5c-.08,0-.19,0-.2.12a.34.34,0,0,1-.2,0h.07c-.08-.14-.15-.06-.22,0v.2c-.13-.08-.21-.13-.23-.26l-.62.1a.66.66,0,0,1-.12.41l.24-.06h0l-.17.06-.11.32-.17-.08h0v-.12l.21.1-.21-.47c0,.34-.13.47-.36.44h-.08c.08-.16-.06-.26-.12-.38a.12.12,0,0,0-.14.1v0l-.14-.18c0,.15,0,.15.13.17h.13a.26.26,0,0,0-.07.3c-.06.08-.18,0-.21.1h0s-.07,0-.08,0l-.12-.6-.25.11.16.09-.5.19v.32l.17-.05c-.14.23-.23.26-.45.18s0,.17-.14.14-.29,0-.37-.17l-.14-.27c-.06.16-.17.25-.12.4a.15.15,0,0,1,0,.13H49c0-.17-.11-.06-.15,0a3.46,3.46,0,0,0-.22.31,3.67,3.67,0,0,1-.67.75,5.47,5.47,0,0,0-.45.51.38.38,0,0,1-.06.2c-.18-.1-.27.09-.39.18a.66.66,0,0,0-.12.17s0,.09-.08.1c-.28.1-.43.36-.68.49a.06.06,0,0,1-.06.06.83.83,0,0,0-.35.23l.06-.22h-.56L45,44.53c-.06.1,0,.14,0,.2a.51.51,0,0,1,.1.21c-.08-.11-.23-.1-.29-.25s-.07-.1,0-.15h0l-.1-.31-.13.1c0,.13-.05.25-.07.38v.19l-.24-.12a.63.63,0,0,0-.38.06h-.22v-.23h0l-.11.16c-.06,0-.12-.07,0-.15v-.23c-.09.08-.12.14,0,.23l-.21-.06.07-.2-.15-.08-.1.11-.13-.25c-.08.23-.28.29-.4.43l-.24-.17v-.13l.26.1-.16-.24a.1.1,0,0,0-.09.15l-.2.18.24.16-.06.19h0c0-.17-.24-.17-.29-.33l-.17.09v.13H41.7c0-.07,0-.17.06-.2s.11-.21.12-.33a.6.6,0,0,1,.24-.48.31.31,0,0,0,.06-.13,2.38,2.38,0,0,0,.06-.37v-.44l-.11.07c-.08-.16,0-.23.19-.28,0-.13.13-.28-.06-.4.21,0,.14-.32.37-.3a.61.61,0,0,1,0-.19.2.2,0,0,0,.15-.08v-.09l.12-.11c-.08,0-.14,0-.11.11h-.23a.85.85,0,0,0,.16-.17.74.74,0,0,0,0-.21.36.36,0,0,0,.36-.18.27.27,0,0,0-.09-.23c-.09-.1-.09.15-.21.07s-.16.08-.16.13-.11.1-.15.18c-.1-.15,0-.23,0-.33a.91.91,0,0,1,.12-.31l.2-.25A1.45,1.45,0,0,1,43,40a1.92,1.92,0,0,1,.31-.18h.08a.5.5,0,0,0,.07-.5l-.08.09-.07-.07-.06.13-.26,0,.67-.85.29.3L44,38.8l.07.13h0v-.21c.25,0,.29-.21.35-.37s0-.12.09-.14.06-.09.09-.14h0v.08a.71.71,0,0,1,0-.29l.15-.11.09.12.28-.42h0l-.14.17c0-.15-.09-.26.07-.33v-.08c0-.08.1-.07.15-.11s0-.09,0-.1h.16l.17-.07-.19-.18c.06-.06.13.11.18,0a.87.87,0,0,1,.07-.17.17.17,0,0,1,.09-.13l-.32-.16a.31.31,0,0,0,0-.44c.13,0,.24,0,.29-.12l-.19-.36.14-.34-.17.06c.08-.17-.22-.24-.06-.42l-.16-.2a.14.14,0,0,1-.07-.18,0,0,0,0,1,0,0,.53.53,0,0,0,0-.39,1.21,1.21,0,0,1,0-.38v-.32l-.11.14a.7.7,0,0,0-.31-.39c-.1,0-.11-.1,0-.19s0-.07,0-.1,0-.13.14-.12c-.09.21-.09.21,0,.36l.33-.23c0-.23-.17-.46,0-.7h-.16v-.5s-.07,0-.07.07.07.24-.13.18c0,0-.08,0-.08.07a2.41,2.41,0,0,0,0,.38.35.35,0,0,0-.07.45.16.16,0,0,1-.12-.19s0,0,0,0a3.21,3.21,0,0,1,.1-.62,1,1,0,0,0,0-.25.56.56,0,0,1,.09-.17h-.08c0-.27,0-.28.25-.43a.26.26,0,0,0-.1-.24h0c.08-.08.18-.15.07-.27h0a1.59,1.59,0,0,0,.1-.57v-.2a6.74,6.74,0,0,1,.17-1l.16.2c.13-.12.09-.25,0-.38l0,.18c0-.08-.12-.16-.11-.16s-.06-.35.11-.48,0-.09,0-.14a3.74,3.74,0,0,1,.13-.65c.07-.4.13-.8.2-1.23h-.65a3.48,3.48,0,0,0-.79,0c0,.1-.08-.14-.12,0S44,26,44,26a.61.61,0,0,0-.19,0,.22.22,0,0,1-.3,0,.08.08,0,0,0,0,0c0,.1,0,.21-.19.16s-.07,0-.1,0a1.24,1.24,0,0,1-.38.09.57.57,0,0,0-.38.22c-.06.09-.1.25-.27.19v.06s-.29.35-.51.32-.21.06-.32.08v.21h0l-.08-.14a.31.31,0,0,1-.06.13l-.14.05.06.1-.28.4-.16-.09h0l.07.17-.09.06-.06-.49h0c0,.08,0,.19-.14.23s-.13.12-.21.2,0,.21.15.25h0s-.1.05-.13,0a.13.13,0,0,0-.21,0L39.9,28c0,.13.08.28,0,.29s-.1.1-.14.16h0l-.06.07h.05v-.13h.07c.18.07.18.08.29-.07v-.07h0v.09l.31-.17-.08.21h-.07l-.08.35h0L40,28.48l-.05.27.15-.06h0l-.06.07a4.37,4.37,0,0,1-.23.49,5.84,5.84,0,0,1-.56.84,5.41,5.41,0,0,0-.42.74,8.88,8.88,0,0,0-.49,1.24,1.06,1.06,0,0,0,0,.56V33h-.2a3.09,3.09,0,0,1-.14.32h0a1,1,0,0,1-.08.39.32.32,0,0,0,.11.33.21.21,0,0,1,0,.11c-.12.11,0,.2,0,.31l-.24.21v-.22h0v.22l.31.11c0,.14-.13,0-.17,0a1.25,1.25,0,0,0,.06.56c.06.18,0,.35.13.5l-.12.27c.06,0,.14,0,.17.09s0,.11,0,.17v.33l.11-.17.19.08h0c0,.07.07.13,0,.2a.36.36,0,0,0-.18.12c-.08-.19-.08-.19-.21-.1l.11.19c-.09,0-.13-.1-.2,0s-.06.16,0,.29l.06,0,.08.24H38v.24c0,.14,0,.16.19.15s0,.14.07.16a.15.15,0,0,1,0,.13,2,2,0,0,1-.11.45l-.1-.12c0,.18,0,.39.18.49a.43.43,0,0,1-.12.31.36.36,0,0,1-.08.25l.15.09v.73l.33-.35a2.79,2.79,0,0,1,.1.39v.56c0,.19,0,.15-.17.19,0-.19-.21-.29-.12-.52l.1.16h0l-.17-.41-.19.07h0v.24a.17.17,0,0,1,.14.24l-.17.12c.11.19,0,.43.17.62h0c.2,0,.2,0,.27-.2h.07V42h-.22l.11.25.06-.2a.38.38,0,0,1,0,.49v-.08h-.2l.07.17-.08.09-.1-.07c-.05.11-.07.27-.27.22v-.41c-.08,0-.12.17-.18,0s-.16.07-.17-.08-.08-.11-.13-.18-.21-.08-.32-.19c0,.12,0,.26.07.3s-.05.2,0,.28h0a.5.5,0,0,0-.08.2.22.22,0,0,1-.16.22v-.28l-.18-.11-.08.13h0l-.26-.14-.07.27h.1a.13.13,0,0,1,0,.18l0,0a.12.12,0,0,1-.16,0h-.12L36,43l-.1.2-.16-.1-.31.07-.17-.36h.09v-.21c-.18.08-.06.16,0,.23-.16,0,0,.17-.12.21l-.15.06-.2.05v.18h0c0-.11-.1-.21,0-.35a.48.48,0,0,0,0-.56c-.11,0,0,.23-.19.22V42.3h-.17c0-.07,0-.16-.07-.17s-.06-.12,0-.2c-.21,0-.21.17-.31.25-.1-.11-.19,0-.31,0l.11.09.1.1-.14.12c0-.14-.09-.17-.26-.25l.09-.05h0s-.2-.13-.18-.27a1.7,1.7,0,0,0,0-.32.85.85,0,0,0-.09-.22.22.22,0,0,1-.13-.05v.18h0L33,41.09a1.61,1.61,0,0,1,.21-.3c.12-.1.15-.16.09-.3s0,0,0-.07v-.2c-.12.1-.12.1,0,.2H33l.15.24a2.73,2.73,0,0,1-.34.34c-.12.08-.18.24-.35.32,0-.08.07-.12.07-.16,0-.28.24-.49.24-.77v-.06c.18,0,.13-.2.16-.32a1.93,1.93,0,0,1,.11-.34c.07-.19.16-.36.23-.54a.88.88,0,0,0,.07-.23c-.25.17-.46.29-.64.44l-.69.59a.23.23,0,0,0-.08.28c.08.29.15.58.23.88a1.86,1.86,0,0,0,.12.43h.06l.06-.15.1.08c.1-.09.2,0,.31,0l-.13.26h-.1c0-.06.08-.13,0-.21a.66.66,0,0,0-.06.2h.06v.21c.18,0,.14-.13.12-.22h.14v-.15l.12.08h0v.28l.25-.09c-.18.14.15.25,0,.4L33,42c-.14.07-.11.17,0,.27l-.22.13v.24l.23.2.1.2H33l-.15-.11c0,.16.07.12.15.11v.21c-.15,0-.17.07-.16.3l.15-.08-.06.34h0l.14-.42c.13.07.1.16,0,.23s-.07.12,0,.2l.16-.27h0a5.6,5.6,0,0,0-.12.59.38.38,0,0,0,.07.31l-.07.13h0l.38-.11c-.08-.17-.08-.17,0-.25h0c.08.1.16,0,.24,0s0,.16.08.22q0-.16-.09-.21a.49.49,0,0,0,.34-.39.27.27,0,0,1,.08-.07h0a.75.75,0,0,1-.07.39c-.07.12,0,.06.06.11a.37.37,0,0,0,0,.11c0,.11,0,.21-.13.25s0,.06,0,.09h0a.23.23,0,0,0-.07.1v.1a1.37,1.37,0,0,0-.08.26.45.45,0,0,0-.14.1.13.13,0,0,0,0,.12c.07.11.16.21.24.32.07,0,0-.13.07-.16a.17.17,0,0,0,0-.14v-.23c-.08.11.11.11.16.2l.1-.08v.07c-.17.4-.34.79-.5,1.19a.83.83,0,0,0,0,.81v.2c.08.28.17.56.26.86l.5-.27a.43.43,0,0,1,.12.11.33.33,0,0,0,.41.2h.09c0,.11,0,.2-.1.17s-.15,0-.18.12l-.07.2.21.09V48.8l.17-.1c.13.11.13.11.37-.06v.16a1.81,1.81,0,0,1-.34.28.4.4,0,0,0-.18.39s-.06-.14-.15-.09,0,.06-.05.11H35a.13.13,0,0,1,0,.18l0,0h0s-.06.07-.06.1a.29.29,0,0,1-.15.18c-.09,0-.26.09-.25.29l.09-.06.17.15-.11.29h.17v-.17l.16.12h.2v-.12H35c0-.17-.14-.16-.26-.13a.49.49,0,0,1,0-.17l.07-.07h0c.09,0,.07-.15.18-.09a.72.72,0,0,0,.2.09h0c0-.07-.16-.14-.09-.29l.19.14.2-.18v.11a1.44,1.44,0,0,1,0,.4c-.05.13,0,.08-.12.17a.14.14,0,0,0-.06.15c0,.11,0,.17-.09.23s-.08-.18-.23-.11l.09.1c-.08.12-.21.22-.09.38a1.09,1.09,0,0,1,0,.26.55.55,0,0,0-.19.68v.05l-.33-.2-.19.11c.15.2-.12.27-.15.44L34,52.47c-.06.13-.07.28-.19.39s-.05.15-.08.25h.21c-.09.11-.16.2-.11.34-.12,0-.28.11-.35-.13a.29.29,0,0,1,0,.13h-.07l-.07-.24h0v.18a.29.29,0,0,1-.07.16v-.18h0l-.27.1h-.22l.1.18h0l-.18-.13c-.13,0-.25.1-.22.28-.12,0-.15-.08-.14-.29a.68.68,0,0,0-.43.21l-.2-.25H31.5l-.07.2c-.13-.14-.24-.24-.34-.36a.34.34,0,0,1,0-.28c0-.18,0-.2-.21-.13a2.42,2.42,0,0,0-.25-.31c-.1-.08-.1-.16,0-.28l-.14.06v-.15l-.11.1v-.08h0c0-.08.06-.11.12-.17L30.38,52l-.15.16L30,52c.08-.08.22-.13.11-.28a.14.14,0,0,1,0-.09c.07-.16-.07-.24-.13-.36l.13-.19-.09-.2L30,51h0l0-.2c-.18,0-.18,0-.17-.2a.66.66,0,0,0-.12-.41c-.15.11,0,.22,0,.31l-.27,0c-.07,0,.06-.18-.11-.2v-.11l.15.08c.06-.21,0-.43.06-.64h0a.61.61,0,0,0-.07.14.43.43,0,0,0,0,.16c-.29-.11-.29-.11-.33-.26l.11-.08c0-.08-.21,0-.09-.15h0L28.93,49h.17v.16c0,.07,0,.07.1.07L29.13,49v-.1a.24.24,0,0,0,.06-.23s0,0,.07-.07a2.27,2.27,0,0,1,0,.41.77.77,0,0,0,.07-.16.27.27,0,0,0-.09-.25c-.09-.08,0-.26-.22-.33v-.36h.22c.06.1.16.18.12.33s0,.12.08.2l-.07.12c.16,0,.13-.15.19-.25h-.12a.41.41,0,0,0-.06-.34.21.21,0,0,1,0-.26v-.23h-.16a.62.62,0,0,1,.22-.47h.28l-.16-.28c.07,0,.06-.16.18-.13s.05-.06.07-.09v-.23a.15.15,0,0,0,0,.23c.06.07-.14,0-.17-.11a1.35,1.35,0,0,0-.15-.26h-.08c-.05-.06-.06-.16-.18-.13s-.07-.1-.12-.16h.21v-.31a.76.76,0,0,1,0-.3.15.15,0,0,0,0-.16l.25,0c0,.08,0,.13.1.14a.1.1,0,0,0,0-.12l0,0h-.12a.43.43,0,0,0-.25.06.71.71,0,0,1-.5-.58c-.08.11-.12.21-.19.25a1.35,1.35,0,0,1-.29.05l.08.3c-.15,0-.16-.13-.18-.24a.35.35,0,0,0-.37-.32s.09,0,.11.07,0,.06.06.09c-.26.19-.24.31,0,.56v-.18c.11.07.06.26.25.23v-.22l.09.06c-.07.14,0,.22.1.35l-.12.07c.07.05.17.08,0,.18,0-.12-.22-.11-.16-.27l-.25-.17-.12.38a.75.75,0,0,1-.26-.52,7.43,7.43,0,0,0-.16-.82,2,2,0,0,1-.05-.49l.16.1c.09-.11.09-.11,0-.24-.05.13-.05.13-.19.14l-.15-.11a.47.47,0,0,1-.09.12H27l-.21.21-.26.22a.16.16,0,0,1-.22,0c-.1.13-.14.31-.34.32,0,.14-.17.15-.21.26a.5.5,0,0,0,0,.34,6.93,6.93,0,0,0,.34,1,8.88,8.88,0,0,1,.62,1.28,4.93,4.93,0,0,0,.27.73c.1.31.2.62.29.93a4.63,4.63,0,0,1,.07.52v.43s.12.22.18.32a1.86,1.86,0,0,1,.1.39c.06.24.11.49.16.73s0,.29.07.47l-.19.13V52c-.1.11-.09.14.14.35l.13-.12a.24.24,0,0,1,0,.12.74.74,0,0,0,0,.21.42.42,0,0,1-.18.51h0l-.25-.29c-.05.07-.14.13-.14.2s-.11.17-.22.2,0,0-.08,0-.08,0-.1-.06,0,0,0-.1l-.13.12-.11-.09-.08.23-.18-.13-.13.09v-.09a.24.24,0,0,1-.33-.07l0,0-.15.19c0-.14-.23.13-.23-.11-.24,0-.28.24-.35.43-.06-.17-.08-.35-.28-.45h-.15l-.08-.19V53a.41.41,0,0,1-.05-.37h0c0-.08-.07-.2-.21-.2s0-.07-.08-.12.1.26-.1.36a.73.73,0,0,0-.13-.5.4.4,0,0,0-.05-.23c-.14-.55-.29-1.1-.44-1.65-.05-.21-.09-.43-.14-.64l-.18-.79c-.09-.38-.17-.76-.26-1.14l-.27-1c-.06-.24-.14-.48-.21-.71s-.13-.33-.18-.49-.11-.25-.32-.17l.15-.24-.23,0h0a.09.09,0,0,0,.09-.13c0-.13-.15-.16-.29-.15v.28l-.16-.07-.05.13-.19-.09v-.2l-.07.11s-.09-.07-.1-.11a1.33,1.33,0,0,0-.07-.42,1,1,0,0,0-.16-.24h.12c0-.08-.07-.12-.13-.06a.63.63,0,0,1,.14-.4v-.13a8.71,8.71,0,0,1-1.36,1.06h-.08v-.22h0l.13.11c.12-.06,0-.12,0-.19h0v-.13l.2.07c-.13-.13,0-.27,0-.41l-.37.14v.25h-.18v.25a.08.08,0,0,0-.07.06h0c0-.26-.21-.32-.38-.44a.33.33,0,0,1-.14.33v-.15h-.12l0,.06-.07-.24-.11.15h0v-.21H18.4v.17a.53.53,0,0,0,.36.25.35.35,0,0,0-.18.31c0,.15-.14.23-.22.36l-.07-.09-.1.08c-.12,0-.18-.21-.35-.14,0-.19.24-.19.22-.4l-.23.13a.47.47,0,0,1,.36-.21l-.06-.27a3.76,3.76,0,0,0-.25.31.43.43,0,0,0-.05.16l-.12-.14h0V44.5a.41.41,0,0,1,.07-.25l-.29.13h0l-.06-.24-.16.06V44a.28.28,0,0,1-.21.18c0-.1,0-.22-.12-.25h0l.29-.1c.07-.12.07-.12,0-.26-.06.07.06.23-.09.23L17,43.66a.13.13,0,0,1-.15-.11c0-.11-.12-.08-.18-.12ZM44.41,23.26c.06,0,.1,0,.15-.1h.13c0-.09,0-.14-.14-.12a.54.54,0,0,0,.05.11c-.13-.07-.14.05-.19.12s.12-.18-.1-.19ZM21,24l.14.07c0,.1.08.1.12.15l.1-.11h-.22L21.08,24H21v.09c-.09,0-.1.07-.05.15ZM14.05,38.67v-.11a.07.07,0,0,0-.07.08C14,38.72,14,38.66,14.05,38.67ZM29.18,20.32v-.21l-.17.14.16.07.07.18-.15,0,.05.18.12-.1h0l.07.08C29.32,20.36,29.32,20.36,29.18,20.32Zm10.31-15c-.12.07-.12.07,0,.22a.21.21,0,0,0,0-.11.22.22,0,0,0-.05-.11V5h-.06ZM37.36,39s.07-.06.07-.08l-.09-.2h-.06l.09.26h0C37.44,39,37.36,39,37.36,39Zm-32,9.74v0h0c0-.14-.1-.16-.16-.26C5.15,48.7,5.24,48.75,5.36,48.77Zm60.28-33h-.21l.08.15.13-.15c0,.08.08.06.13,0s.09-.09,0-.16ZM25.84,43.31c.1-.06.2-.13.2-.26l.17.14c0-.08.08-.16,0-.27l-.16.14-.21.08v.17h-.16l.11.06Zm7.51-6.51-.08-.13c-.08.11,0,.16,0,.25v-.13a.15.15,0,0,0,.2-.07s0,0,0,0h-.14ZM19.57,27.59V27.4H19.5v.09a.49.49,0,0,0,.12.13c0,.09-.15.21,0,.27v-.16C19.62,27.68,19.64,27.6,19.57,27.59Zm-8,8.54a.23.23,0,0,0-.19.23c.08-.13.14,0,.2,0s0-.15,0-.23h.13c0-.07,0-.14-.08-.14a.1.1,0,0,0-.09.14Zm8.63-7.27.12.06h0l-.19-.28c0,.07-.09.11,0,.16a.27.27,0,0,1,.07.08c-.06,0-.15.05-.08.16Zm17.44,7.61h.11v-.32a.15.15,0,0,0,0,.2c0,.07,0,.09-.07.1v.17C37.69,36.53,37.71,36.47,37.64,36.47Zm-.27-10.34c0,.06-.09.1,0,.21l.19-.18h-.14l.11-.14h0l-.12.16Zm8.18,7,.16.08c0-.14-.08-.12-.16-.08v-.4l-.18.16ZM27.24,43.34h-.07c0,.14-.1,0-.15,0v.13h.19v-.19c0-.06.11,0,0-.12ZM28.9,23.53c-.12,0-.12,0-.09.22v.08L29,24v-.15h.11c0-.33,0-.33-.21-.38v.11Zm4.57,12.74v.19c-.14,0-.14,0-.15.15l.21-.1v-.24c0-.15.13-.19.16-.32a.58.58,0,0,0-.19.16.69.69,0,0,0-.11.13l-.07-.07-.09-.25h.29v-.37a.1.1,0,0,1,.09-.11h0l.08.1.41-.1a5.9,5.9,0,0,1,.2-.72c.08-.14.06-.3.16-.45a1.64,1.64,0,0,0,.1-.49,2.64,2.64,0,0,1,.13-.52c0-.18.08-.38.13-.57s.12-.51.19-.77a.29.29,0,0,0,0-.13c-.06-.26-.13-.52-.19-.77a.4.4,0,0,0-.08-.28l-.8.62-.77.63c-.11.09-.23.17-.33.27a2.89,2.89,0,0,1-.66.54v-.13c0-.16.18-.31,0-.51,0,0-.13,0-.16.09s-.23.24-.12.45c-.11,0-.18-.1-.24,0l.07.23c.1-.1.16-.26.32-.13-.15,0-.15.16-.23.24s-.47.41-.68.64a7.27,7.27,0,0,1-.79.68.39.39,0,0,0-.12.46c.11.38.22.76.34,1.13a3,3,0,0,0,.18.41L31,36.3h0v.17l-.13.06.13.18.21-.12c0-.12-.08-.22,0-.31l.1.27.2-.12c.14-.09.29-.16.42-.26a2.37,2.37,0,0,1,.5-.32.15.15,0,0,1,.13,0v.09a.3.3,0,0,0,0,.26h.18l.18-.32a.53.53,0,0,1,.27.22.13.13,0,0,1,.1.06l-.13.2a.49.49,0,0,0,0,.17c.09-.13.21-.18.18-.31ZM25.18,25.81l.09-.29-.32.24.05.12c0,.12.07.25-.09.39l.22-.06c-.06.06,0,.12,0,.22a.46.46,0,0,1,.26-.15s.16,0,.12-.11.06-.05.06-.07a.18.18,0,0,1,.08-.2l.07.15c.1,0,.1,0,.14.09s.15.16.21.26.12.08.23,0l-.12-.33-.22.05c0-.12-.16-.2-.12-.36l.18.13c-.06-.15-.11-.25-.15-.36a.28.28,0,0,1,0-.28c0,.07,0,.11.07.11l.08-.28h0v.18c.13-.19.1-.32-.08-.49-.12.08-.18.17-.1.32s0,.11,0,.16l-.17-.13-.08.12h-.15v.37c.07,0,.14-.1.19,0s-.11,0-.13,0,.09.13.09.18l-.12.25-.16-.25-.08.19v-.2ZM20.66,36.52h.13v.14c.09-.1.22-.14.15-.33l-.08.17-.07-.06h-.11v.18H20.5C20.59,36.62,20.59,36.62,20.66,36.52ZM44.91,23.2c0,.11,0,.11.15,0h-.15V23a.66.66,0,0,0-.2.34ZM33.66,44.47c-.14,0-.12.09-.13.14s0,.12.14.13a1.31,1.31,0,0,0,0-.28c.07-.19.06-.22-.11-.2ZM22.29,29v-.24c-.17.11-.18.21-.05.4L22.3,29l.05.26.19-.16-.13-.18Zm6.83,13.73c.07-.11.06-.16-.06-.27a.33.33,0,0,0,.07.26c.07.07,0,.18.18.1v-.22ZM25.63,29.88v.35c.17,0,0-.15.07-.21h.16c-.12-.06-.06-.2-.2-.18l-.16-.17C25.5,29.78,25.52,29.86,25.63,29.88Zm7.65,23c.14,0,.17.13.23.21.14-.11.11-.08,0-.19s-.15-.09-.24,0V53h0Zm-20.23-13c-.21.1-.21.11-.19.42l.1-.25.09.09V40l.21.14c0-.08-.06-.13,0-.18s0-.14-.05-.21c0,.12-.16,0-.11.14ZM29.58,25.52v-.13s-.18.11,0,.12l.11.37c.1-.22.15-.4,0-.58a.13.13,0,0,0,.2-.08,2,2,0,0,0,.09-.33l-.27-.17a.66.66,0,0,1,0,.28,1.35,1.35,0,0,1-.15.26h.15v.28Zm3.49,3.57h.11c.16,0,.18,0,.19-.16v-.1h0l-.14.17-.07-.07h0v.19L33,29l-.17.19.18.07s0-.16.12-.09ZM1.63,44.81l-.15.4h.15c.12-.08.05-.23.14-.34H1.62v-.16H1.45ZM33.4,37.13c-.08,0-.17,0-.15.12s-.11.17,0,.32c0-.12.06-.14.14-.12s.07,0,.1,0l.07.17h0c0-.07,0-.13-.11-.15C33.55,37.21,33.55,37.21,33.4,37.13Zm.49-15.06h-.17l.06.34a.28.28,0,0,0,.23-.23c0-.09,0-.16-.17-.24v.11Zm-2.22,8.31h-.09c-.09.1-.21.05-.32.08l.11-.14h-.11a.21.21,0,0,0,0,.11c.1.19.11.31,0,.36l-.1-.09c-.12.15.18.19.08.34l-.1-.13-.09.21.19.26.07-.25.22.11v-.11c.12-.08.07-.23.14-.33s0-.07,0-.11h.08c0-.1-.07-.21,0-.3s0,.24.19.24c.08-.18-.1-.25-.14-.38Zm.75.8.11-.18a.12.12,0,0,0-.18.06c0,.06,0,.08.07.12s0,.2,0,.29l.14.14a2,2,0,0,0,.13-.16c0-.06.12-.14.06-.19Zm-21.67,6.6a1,1,0,0,0-.32.5c.09-.05.17-.11.19-.09s.12-.07.18-.06v-.36c.15.06.09-.1.16-.12h-.27S10.79,37.66,10.75,37.78ZM29.89,23.13c0,.08,0,.19-.18.13l.12-.11-.23-.08v.07c0,.07-.06.24.13.25,0,.1.17.14.08.27l-.22.16.27.08-.06-.25a.66.66,0,0,0,.1-.53.29.29,0,0,1,.12.29h.13a.31.31,0,0,1-.07-.09C30,23.19,30,23.11,29.89,23.13ZM18,35.3c0,.19.17.06.31.09l-.1-.29h0v.11L18,35.3V35h-.13l.06-.08v-.08h-.28l.15.28c0,.07-.16.09-.11.22S17.88,35.18,18,35.3Zm6.74-7.83h.06l.09.06v-.09a.35.35,0,0,0-.1-.38l-.31.21Zm7-7.83c-.14-.06-.07-.21-.12-.3l-.16.26v.29c.1-.06.24.08.35-.09h-.17l.07-.15c0-.07.08-.14,0-.22Zm-6.88,5.43L24.77,25h-.05v.15l.1-.06-.07.25h-.17l.24.18c.05-.1.07-.1.15-.06.07-.14.06-.2-.07-.51v.14ZM13.36,39.58c0-.14-.12-.09-.22-.12,0,.16.17.07.23.12a.85.85,0,0,1,.12.38c.18-.06.21-.15.23-.54l-.26.19Zm20-9.34v-.3l-.37.37.29.21c0-.12.08-.2.12-.28s.11,0,.11-.07,0,0-.07-.07ZM28.1,23.47v-.1s-.11-.19,0-.3a.34.34,0,0,0,0-.2h0V23L28,22.91h0l.11.22-.07.13c-.07-.13-.1,0-.15,0l.14.21.06-.12v.11h.11a2,2,0,0,0,.19-.2h.07v-.5H28.3v.4h-.17Zm15.28,2.08v-.11h0v.1h.12l-.13.12c-.1-.07-.1-.07-.18.09l.16.12.17.09c.1-.11,0-.28.2-.32l-.12-.13ZM25.1,24.47h.17v-.11l-.16.07c.07-.1.11-.19,0-.29.15-.1.18.08.3.09l.06-.33h0l-.07.1c0-.08-.06-.19-.19-.19s-.09.16-.31.14c.08.07,0,.19.16.25S25.07,24.41,25.1,24.47Zm3.48,0-.15-.12a1.12,1.12,0,0,1-.18-.2h0l.07.25c-.15.12-.14.27-.11.45h.21a.43.43,0,0,1,0-.16V24.6a.83.83,0,0,1,.12-.15v.37l.1-.09.1.14c.07-.25.07-.25.21-.19v-.16c-.08,0-.16.05-.18-.07s0,0,0-.05-.12,0-.18,0S28.59,24.47,28.58,24.47Zm10.76,3.3-.12-.12h-.1a.19.19,0,0,0-.07.24l-.19-.06-.08.16.27-.1L39,28c0,.18.12.1.19.08s0,.12-.15.11-.11.06-.16.1c.11.13.23.2.37.15l.09-.3s.05-.09,0-.1,0-.14,0-.22a.18.18,0,0,0,.07-.05l.25-.52h-.16a.48.48,0,0,1-.17-.05,1.09,1.09,0,0,1,.1.25c0,.12-.1.1-.15.12ZM33.72,40.88s.06.06.06.09-.05.17-.07.26c.18.08.18.1.09.25a.21.21,0,0,0,0,.11c-.15,0-.07.13-.08.18l-.14.07v-.12h0v.18c0,.05.1,0,.16,0a.17.17,0,0,0,.14-.2v-.13a.52.52,0,0,0,.17-.39.23.23,0,0,1,.19-.25l-.05-.16H34v-.23h0l-.06.23h-.13l.09-.16c-.16,0-.2,0-.21.07v.15l-.28.09C33.59,41,33.62,41,33.72,40.88ZM28.91,22.12c-.21,0-.26,0-.23.19v.08s0,.14.06.18h.17l-.15.12v.57l.1-.27.08.22h.11l.11.12v-.22l-.07.05V23c.09,0,.11,0,.1-.09s0-.16-.05-.19a.25.25,0,0,1-.09-.31c0-.11,0-.13-.13-.18l.06.14-.26-.13.12-.1H29v-.25h0V22l-.12-.1h0Zm4.5-.65v.12a1.51,1.51,0,0,0,.18.26h.11a.32.32,0,0,0,0-.3c-.07-.07-.14-.15-.25-.06l.11-.26-.06-.13c.18-.11.19-.14.06-.24l-.12.1-.09-.25-.28.18.09.27H33v.19l-.26-.29v.14c.12,0,.13.09.13.17a.39.39,0,0,0,.24.35v.19L33,21.84c-.06.11-.12.2-.17.3l-.12-.09v.17l.14-.09v.2c.14,0,.14,0,.21.14,0-.16.13-.13.21-.11l.1.26h.3c-.09-.14,0-.21.14-.26l-.12-.08-.11-.2-.07.16h.17c-.06.11-.14.12-.2.09s-.1-.31-.15-.44a.13.13,0,0,1,0-.18h0l.06.13V21.7h-.1c0-.11-.19-.21,0-.35ZM6.68,41.8A4.07,4.07,0,0,0,7.35,41c.15-.2.29-.41.42-.62s.49-.62.71-1a3.88,3.88,0,0,1,.61-.79.06.06,0,0,0,0-.06.54.54,0,0,1,.23-.32,3.27,3.27,0,0,0,.7-.87,8.59,8.59,0,0,1,.59-.76l.14.08,0-.17.24-.15v.17h-.14a.22.22,0,0,1,0,.32l0,0L11,37l.13-.15c-.1-.08-.1-.12,0-.34.09.06.15,0,.22,0l-.23-.23.06-.14-.12.07v-.1c.16-.07.14-.24.23-.35a4.29,4.29,0,0,1,.4-.55,7,7,0,0,1,.72-.82.16.16,0,0,0,.07-.09,4.25,4.25,0,0,1,.62-.78c.14-.14.28-.28.41-.43s.46-.54.68-.82c.1-.12.2-.24.31-.39a8.44,8.44,0,0,0-1.93-1.42,3.11,3.11,0,0,0-.23.28c-.24.32-.49.64-.71,1a8.44,8.44,0,0,0-.47.83,2.21,2.21,0,0,1-.18.34,3.62,3.62,0,0,0-.42.74c-.16.26-.27.55-.42.82s-.41.65-.6,1a5.93,5.93,0,0,0-.29.56l-.41.87a3.24,3.24,0,0,0-.31.8v.09a1.17,1.17,0,0,0-.23.46c-.1.28-.21.56-.32.83s-.28.55-.39.85-.38.72-.5,1.11h0l-.31.61A.61.61,0,0,0,6.68,41.8ZM24.27,27.07v.59a5.23,5.23,0,0,0,0,.56,11.07,11.07,0,0,1,.06,1.15q0,.64.06,1.29a5.45,5.45,0,0,0,.07,1.07,4.51,4.51,0,0,1,0,.52l.06.77c0,.32.05.65.08,1s0,.65.08,1a.54.54,0,0,0,0,.18c.61-.59,1.24-1.1,1.8-1.67-.06-.25-.11-.48-.17-.7s-.23-.67-.32-1-.2-.53-.28-.81a2.81,2.81,0,0,0-.19-.43c-.05-.15-.05-.19-.08-.28a.46.46,0,0,0-.1-.25.84.84,0,0,1-.21-.42c0-.12-.1-.23-.15-.35a.87.87,0,0,0-.18-.36h0l-.33-1A3.38,3.38,0,0,0,24.27,27.07Zm-3.05,7.66h.06l-.06-.65v-.95a5.26,5.26,0,0,0-.07-.63c0-.21,0-.43,0-.65a3.53,3.53,0,0,1,0-.65,7.22,7.22,0,0,1,0-.93,1.53,1.53,0,0,0-.11-.48l-.27.48c0,.07-.08.16-.13.23l-.82.93c-.12.14-.24.27-.37.4s-.13.13,0,.29l.1.15a12.78,12.78,0,0,0,.84,1.1c.18.24.36.48.53.73A5.18,5.18,0,0,1,21.22,34.73ZM48.1,32.14h0c.19-.18.38-.38.57-.55a.32.32,0,0,0,.08-.36,1.14,1.14,0,0,0-.08-.51.67.67,0,0,0,0-.2,1,1,0,0,1-.06-.42.21.21,0,0,0-.09-.15C48.32,30.72,48.25,31.47,48.1,32.14ZM29.55,44.35c.07,0,.09-.08.05-.1s-.06-.12-.06-.2,0-.28-.17-.33-.07-.09-.1-.14a1,1,0,0,1-.11-.17l-.1.17a.27.27,0,0,1,.12.32.41.41,0,0,0,.07.27c.07.09.12,0,.17,0A.59.59,0,0,1,29.55,44.35Zm-.87-22.6c0-.11,0-.26.17-.28a.33.33,0,0,0,0-.14c-.07-.1-.15-.19-.22-.28l-.19.06v.13l.16-.07c0,.09,0,.17-.09.18a.2.2,0,0,0-.13.21Zm-.72-3c0,.24,0,.24.28.33l.1-.19.12.06v-.74h0v.13l-.08-.07v.13h-.09v.36l.1-.13v.23l-.13.18c0,.06-.26-.12-.26-.25Zm-4.84,10.8c.14-.11.14-.11.06-.19v.08l-.08-.28-.12.11-.11-.18-.17.09.14.15s.06.07.05.09a.5.5,0,0,0,.06.28c.06.09.12-.05.27,0Zm4.18-6.08.16.18c.13-.11.25-.2.15-.39a.89.89,0,0,1,0-.23L27.42,23Zm1.63,3.43a.27.27,0,0,0-.36-.14l-.06,0a.44.44,0,0,1,.11.12.61.61,0,0,1,0,.19l.09-.12.08.08.16-.13a1,1,0,0,1,0,.35s0,.05.07.09a.59.59,0,0,0,0-.55Zm.59-3.23a.86.86,0,0,1,0-.63v-.18h-.05a1.73,1.73,0,0,0-.07.6h-.2l.1.47Zm20.55,16.6v.06l.46-.14c-.05-.15,0-.31-.13-.42ZM32.69,30H32.5a.75.75,0,0,0-.07.12l-.08.12.3.1v.25c.17,0,.2-.12.1-.23s-.08-.09,0-.17S32.71,30.12,32.69,30Zm-4.31-7.94-.13.18c-.13,0-.15-.23-.32-.13l.35.3-.33.11.07.21.07-.16a.22.22,0,0,0,.28-.14.19.19,0,0,0,0-.08Zm16.2,3.25.2-.13h0c-.15,0-.18-.06-.24-.15a.21.21,0,0,1,0-.29l-.17-.16v.25a.19.19,0,0,1,0,.27h0v.16l.06-.09ZM23.87,31.07l.2.54h0v-.42l.11.18h.13L24.17,31C24,31.17,24,31.17,23.87,31.07Zm27.59-3.55a1,1,0,0,0,.19.83C51.6,28.07,51.67,27.78,51.46,27.52ZM27.22,24.47c.18-.08.2-.27.29-.4-.11-.14-.16,0-.23,0l-.07-.1a.26.26,0,0,0,0,.31H27.1Zm16.93-.11.1-.31.09.09h0L44.28,24l-.26.12-.23.17Zm7.35.71c0-.14-.16-.08-.18-.14s-.17,0-.21-.07c-.08.25-.08.26.12.38a.17.17,0,0,0,0-.1v-.09c.08.2.09.2.22.22l-.08-.22ZM28,43.72a.51.51,0,0,0-.16.09c.05.11-.14.24,0,.35l.24-.15Zm.9-15.91h0c-.06.09-.11.14-.21.08s-.1,0-.15.05h-.07c.22,0,.12.13.15.21h.26ZM36.65,19l.08-.29a.25.25,0,0,0-.12.11l-.08.13-.08-.1c-.1,0,0,.19-.15.15s-.1.12-.16.19h.21l.14-.23ZM28.75,43.1c0,.19-.07.37,0,.49s0,.18,0,.31l.21-.12a1.71,1.71,0,0,1,0-.32.68.68,0,0,1,.08-.24ZM19.59,28.39h.23v.05l-.15.06c.15,0,.2.11.18.27.17-.14,0-.26,0-.37s-.15-.11-.23-.12l-.06-.15h0ZM29,25.69l.16.19.06-.11.09.13h0v-.3l-.16-.13v.16Zm-7.07,2.7h-.05v.49L22,29v-.17s.08-.08,0-.15l-.11.07ZM33.76,39.47v-.4h0a3.12,3.12,0,0,0-.15.39v.06Zm-7.92-2.74h-.06c-.11.13-.27.22-.32.38l.34-.06v-.13a1.77,1.77,0,0,1,0-.2ZM33.5,29l-.26.29-.09-.05h0l.12.16.11-.19.15.17c0-.13,0-.25,0-.39Zm-7.3,1.64h-.05c0,.09-.09.19-.13.29a2.28,2.28,0,0,0-.08.33l.23-.15a1,1,0,0,1,0-.48Zm18.33-5.14.09.2v-.1H45v-.16c-.15.14-.24,0-.36-.08.11.21,0,.08-.1.13ZM37.81,40.1v-.05c-.11,0-.13-.28-.3-.08l.15.32ZM28.29,25.81H28V26h.21Zm-8.42,3-.07.43c.2-.1.26-.28.07-.41Zm17.57,9.36c.09-.21-.12-.23-.15-.37h0l0,.26L37.4,38Zm-22-11.7v.22l.32-.11A.42.42,0,0,0,15.48,26.47Zm-1.2,13.69c.05.25.1.28.3.21v-.21c-.15.11-.22.05-.3,0Zm-9,8.69H5.22L5.07,49l.26.2Zm28.07-9.2.07.35.16-.19c0-.12-.06-.22-.22-.2Zm.45-8.77s-.08.07-.08.09l.13.3.11-.18ZM20.14,36.62l-.15.3.33-.06Zm9.25,8.52.11.08h.06a.36.36,0,0,0,0-.51l0,0C29.66,44.92,29.66,45.08,29.39,45.14Zm15.12-.74c-.1.17-.18,0-.27,0,0,.23,0,.23.27.16Zm6.42-5.09c0,.12-.07.23,0,.32l.15-.19ZM24.72,26.1l.19-.15c-.16,0-.21-.1-.28-.23A.63.63,0,0,0,24.72,26.1Zm-8.53.24-.06.26a.26.26,0,0,0,.29-.24C16.43,26.2,16.27,26.47,16.19,26.34ZM21,23l.17-.33L21,22.54C21.17,22.69,21,22.79,21,23Zm5,7.44c-.14,0-.18.13-.13.25l.21-.05L26,30.47ZM4.73,38c-.09-.1-.09-.1-.15-.08s-.15,0-.17.23C4.43,37.92,4.65,38.18,4.73,38ZM15,39.67c-.16-.06-.18,0-.17.09a1.76,1.76,0,0,1,0,.23.66.66,0,0,0,.09-.19C14.89,39.72,15.06,39.72,15,39.67Zm16-7.62-.18.11c0,.14.11.18.22.12ZM27.14,42.47v-.31l-.18.46Zm-7.62,1.62-.17.09c0,.12.07.2.21.15Zm1-14.63.38.12c-.24-.26-.24-.26-.37-.11Zm17.16,5.91h0a.21.21,0,0,0,0-.11c0-.06-.06-.1-.07-.15s-.09-.06-.16-.07Zm8-6.85c.12-.17.12-.17,0-.29-.08.06-.1.15,0,.24ZM21.6,43.71c0-.1,0-.26-.15-.32C21.38,43.56,21.61,43.59,21.6,43.71ZM40.22,27a.38.38,0,0,0,.09.35C40.27,27.23,40.42,27.07,40.22,27ZM19.92,43.38l-.05-.19c0,.12-.22.1-.19.25Zm20.84-15.8.08.05h.08c-.08-.15-.08-.15-.26-.15v.26a.47.47,0,0,1,.05-.1ZM43.3,40.47l-.15-.28C43.09,40.41,43.09,40.41,43.3,40.47ZM29,18.37v.1c.08,0,.22,0,.19-.14Zm8,8-.07.29.19-.17Zm-13.92,4.1c.12-.16.13-.18,0-.29C23.06,30.26,23,30.34,23.08,30.47ZM18,44.94l.22.05v-.3l-.1.15Zm8.68-2.08.2-.26c-.19,0-.19,0-.22.26Zm10.88-3.74c-.14,0-.16.06-.08.27Zm-2.8,9.55-.13-.2a.16.16,0,0,0-.05.21h.18Zm5.14-21.1h0v-.34l-.13.07ZM18.77,36.32c-.09,0-.14-.1-.19-.09a.14.14,0,0,0-.12.14,0,0,0,0,1,0,0Zm27-13.25c.07.13.18.14.37,0Zm-19.15,16h-.05c.21,0,.17.16.11.29h.06l.07-.25Zm.6,3.88v-.16c0,.13-.28.07-.14.24Zm-1-.21c.07.12.15.11.22.07s0-.08,0-.13h-.09l.06.11Zm5.37-20.43c0-.11,0-.17-.14-.21v.19Zm12,16.86.2.16c.08-.09,0-.15,0-.2S43.64,39.15,43.55,39.17Zm1.72-9.09c-.06.18-.06.18,0,.23h.1ZM28.22,43.79v.28h0l.1-.2ZM22.83,27.65c0,.1-.16.21,0,.33C22.92,27.88,22.82,27.76,22.83,27.65Zm-7,11.18.25.06-.18-.28Zm9.76-15v.23a.11.11,0,0,0,0,.08l.14-.16Zm29.59,16.4h0L55,40v.13ZM29.79,21c-.22-.06-.22-.06-.17.18Zm-2.66,2.52c0,.19.12.22.23.26ZM40.76,7.69c-.18.14-.18.14-.18.23A.84.84,0,0,0,40.76,7.69Zm-29.33,35c.09,0,.15.13.21,0s0-.11-.06-.17ZM34,23.36c-.23-.06-.23-.06-.26.13Zm1.76,2.4.18-.12H35.8v-.17h-.07ZM18.81,27.35h0s-.1-.09-.15-.1-.07.07-.12.13Zm16-4.37c-.15.2-.15.2,0,.23Zm-6,20.93V44l.31-.12a.26.26,0,0,0-.3.07Zm-2.55.24c.06-.06.16-.11.1-.22s-.08.14-.09.22ZM44,44.64l.23.08c0-.14-.06-.15-.12-.17S44,44.6,44,44.64ZM20,36.31c-.13.08-.1.18-.11.27s.05,0,.09.07Zm1.22,1.16.21.3h.05C21.35,37.65,21.42,37.47,21.22,37.47ZM18.7,35v-.06l-.15-.15-.06.15ZM43.58,24.3l-.12-.22C43.44,24.28,43.44,24.28,43.58,24.3ZM37,42.62h0c.12-.06,0-.17.08-.25h0ZM32.59,31.74c-.08,0-.09.06-.06.13s.1.06.18.05C32.61,31.86,32.61,31.86,32.59,31.74Zm0-13.33h-.06v.29c.14-.09.08-.23.09-.29ZM54.59,40c0,.13.15.11.27.12-.08-.15-.19-.09-.28-.12ZM26.88,42.37c.11-.1.11-.13,0-.27Zm6,10.78-.19.19h.2ZM23,30.23V30C22.8,30,22.8,30.09,23,30.23ZM50.41,40.71c0,.16.14,0,.19.09h0v-.09ZM40,27.19c0,.1,0,.1.18.29Zm-4-1.81h0a.54.54,0,0,0,.18,0v-.12Zm-22.54,14c0-.17,0-.17-.09-.28ZM5.08,37.09c.11-.18.11-.18,0-.21ZM24.9,21.35c-.11,0-.22.07-.14.23ZM14,35.71l-.21-.05v.21ZM40,28c-.07.14,0,.18,0,.18l.06-.06ZM51.23,39.83c0,.1.1.09.16.09v-.09ZM14.94,34.77c-.18,0-.16,0-.17.13Zm19.3,14.12h0v-.22h0ZM28.86,26.47c-.06.13-.06.15,0,.24Zm2.26,6H31l.12.18Zm3.46,17.25c.11,0,.11,0,.18-.11-.11,0-.17,0-.18.09Zm-8-7.67h.05c.08,0,.13-.08.11-.22Zm3-23.64c-.15-.11-.15-.11-.2,0ZM31.6,31.47h.22C31.73,31.31,31.72,31.31,31.6,31.47ZM27,41.74c-.19.1-.19.1-.14.21Zm9.28-25.22c0,.1-.08.08-.11.13l.18.1ZM21.06,29.12l.09.22.11-.15Zm-8.13,11.5.14-.34C12.92,40.47,12.92,40.47,12.93,40.62Zm24.52-2.09a.24.24,0,0,0,0,.23A.17.17,0,0,0,37.45,38.53Zm16.9,2.08c0-.16,0-.16-.11-.22Zm-8.91-7v-.13a.11.11,0,0,0-.06-.11c-.07.16-.07.16.06.26ZM19.82,29.37a.17.17,0,0,0,.08.23A.19.19,0,0,0,19.82,29.37ZM25.93,40l.15.06L26,39.81Zm2.22-13.68-.17.1C28.11,26.47,28.11,26.47,28.15,26.29ZM16.27,34.63l.21,0a.61.61,0,0,0-.05-.12C16.35,34.47,16.31,34.55,16.27,34.63ZM35.56,20c-.05.08-.1.16,0,.21l.13-.17-.14.07Zm-6.1,2c.08,0,.15,0,.18-.06s0-.06-.05-.06-.12,0-.13.08Zm8.27,18.71a.29.29,0,0,0-.09-.25C37.66,40.52,37.6,40.6,37.73,40.67ZM7.3,28.19h.15L7.34,28Zm32.53-1.33c.15.08.15.08.24-.08Zm-13.91.41c0-.07,0-.11-.05-.15s.08-.1,0-.12C25.8,27.15,25.8,27.15,25.92,27.27Zm19-3.5a.31.31,0,0,0-.08-.34c0,.15.16.19.16.34Zm-7,17.55.12.15C38,41.33,38,41.33,37.88,41.32ZM21.11,23.55h.06l-.09-.22h0ZM6,48.16l.14-.22C6,48,5.89,48,6,48.16Zm6.27-11.57c0-.06.11-.09,0-.17a.11.11,0,0,0-.08,0s0,.11,0,.17ZM25.9,23.78H26l.08-.11H26A.44.44,0,0,0,25.9,23.78Zm17.63.15c.06-.08.15-.12.12-.23C43.61,23.78,43.48,23.78,43.53,23.93ZM29.62,47c0-.08,0-.14-.09-.12s-.05,0-.09,0ZM39.9,27.68c.12.15.12.15.22,0ZM28.38,26.25V26l-.13.11Zm17.28-3.43-.11.14C45.7,23,45.7,23,45.66,22.82ZM33,36.77c0,.07-.09.14,0,.19h.06Zm-.77-7.08h0l-.07-.09-.09.09ZM21.57,43.82c-.08.09-.08.09,0,.12Zm37.77-2.6c-.07,0-.16-.07-.26,0C59.19,41.24,59.28,41.31,59.34,41.22ZM16,39.3c.09-.15.09-.16-.08-.18Zm10.29,5c-.18,0-.08.11-.12.18.15-.07.15-.14.15-.22Zm-1.8,8.17h.05c0-.07,0-.19-.11-.22ZM51.74,37.8c.13,0,.18,0,.16-.11s0,0-.07,0ZM24.55,26.29c-.1-.12-.12-.12-.2,0Zm-5.67,7.53.19.08h0L19,33.67Zm7.77-7.35c-.08-.16-.08-.16-.2-.14Zm12.42,1h.08c-.09-.06,0-.2-.16-.25Zm-5.3,11.36h-.24c.09.14.09.14.24.05ZM27.3,25.29c.1-.13.09-.14-.07-.27ZM17,38.93l.18-.14C17.05,38.77,17,38.77,17,38.93Zm15.42-6.77h0c.08-.1.08-.1,0-.21Zm-6-.78h-.05a.23.23,0,0,0,.11.16h0Zm19.36-8.1c0-.16-.06-.16-.12-.18h0ZM7.16,27.16v.07l.23.06h0Zm38.76.31a.15.15,0,0,0,0,.21l0,0ZM33.58,45.65l.1.11C33.72,45.66,33.7,45.62,33.58,45.65ZM4,39.08l-.1.16h.16Zm7.54-1.88h-.06l-.06.12h.05a.5.5,0,0,0,0-.12Zm-.72,0h0V37h0ZM28,22.2h0v.2h0Zm5.93,5.3c-.11.13,0,.19.08.27Zm-4-4.61a.17.17,0,0,0,.21.09,1.3,1.3,0,0,0-.27,0Zm-2.45,1.88v-.24c-.15.16-.13.23-.06.32Zm-20,2v.1h.19v-.05Zm25.29-8v.14l.08.05h0Zm5,7.34h0l-.13.08h0Zm-.32,13.58h-.06v.17h0Zm8-5.62c-.11.11-.11.11,0,.21ZM29.21,26.28c-.16,0-.16,0-.21.13Zm-1-3.42c.06-.09.06-.09,0-.12Zm6.15,18.68h0l.14.12h0Zm-9-19-.09-.19c0,.21,0,.21.09.23Zm10.17-1.95c-.05,0-.07-.05-.1-.05s0,.05,0,.06h.1Zm-14.88,9v.23c.07-.07.11-.12,0-.22Zm4.72.16h.05v-.22l-.05.1ZM12.94,40.86h.14l.08-.13h0Zm16-23,.13.08c0-.18,0-.18-.07-.13Zm30.8.23c-.1-.09-.1-.09-.21,0ZM30.09,18c.09-.14.09-.14,0-.19Zm13.67,5.63c.16.05.16.05.19,0ZM27.7,24.84h.06v-.16c-.1,0-.06.06,0,.11ZM38,41h-.12v.13h0Zm-.22-3.7v.2C37.91,37.38,37.8,37.33,37.78,37.27Zm-.39,0c-.06.14,0,.18.1.2ZM29.62,29.2l-.1-.19c0,.1-.05.16.1.2Zm4.61,12.07h0l-.07.09h0Zm4.33-29.8h-.05l-.1.17h0ZM28.21,27.82h0l.13.07h0Zm-2.86-2.9h.11c.05,0,0,0-.06-.05S25.38,24.9,25.35,24.92Zm24.38,4.17h0v-.16h0Zm2.45,11v.07h.18ZM25.26,23.57v-.2C25.23,23.47,25.11,23.47,25.26,23.57ZM13.54,38.9c.11.06.19.08.19-.07ZM46.1,44.47c-.11,0-.11,0-.09.15ZM37.87,13.08l.06.13C38.05,13.11,38,13.09,37.87,13.08ZM31.18,53.21ZM29.33,22.66c-.09.09,0,.13.05.18ZM26.16,44.3c-.14,0-.14,0-.15.06Zm2.76.05h0l-.07-.16h0ZM24.1,32.62v.05l.19.1C24.26,32.61,24.15,32.67,24.1,32.62ZM33,23.56h.07L33,23.47h0Zm-8.4,1.91h-.05a.05.05,0,0,0-.05.06c0,.06,0,0,.06,0ZM2,43.6v-.19C1.86,43.47,1.92,43.55,2,43.6ZM31.2,30.24h0v-.12h-.08ZM51,39.9l-.14-.06C50.91,39.93,50.94,40,51,39.9ZM31.62,31.62h0l-.09.18h0ZM19.5,43.2l-.15.17C19.52,43.33,19.52,43.33,19.5,43.2Zm7.35-3.34h-.06c-.07,0-.1.06-.05.07A.26.26,0,0,0,26.85,39.86Zm7.84,10.82h0l.08.08,0,0Zm.14.2h0l.07-.06h0Zm-5.53-7.7-.09,0a.18.18,0,0,0-.07.08s0,.06.05,0S29.24,43.23,29.3,43.18ZM46,22.85V23h0Zm-.85,7.77h0l.07-.16h0Zm-4.64-3.81c-.07.15,0,.17.1.17Zm-6.74,3.52c-.07.05-.12.11,0,.21Zm1.45-8.79v.22C35.37,21.66,35.33,21.61,35.22,21.54ZM46.6,30.6h0l0-.13h0Zm-43,9.22v.06l.12-.06H3.6Zm22.62-13h0v.09h.06ZM14.76,40V39.8C14.65,39.89,14.69,39.94,14.76,40ZM27.89,26.24h-.06v.1h0Zm-3.13.7c-.08,0-.16,0-.1.14Zm17.54-.61ZM32.85,19h0v0Zm.67,21h0l0-.06v-.07h0Zm9.88.11h.05V40h0Zm-14,3.39-.06.06v0l.07-.06ZM27.35,25.58h0l-.06.06a.69.69,0,0,0,.05.13ZM37.3,39.47ZM29.9,23.88H30l.05-.14H30Zm-22.68,3h0v-.13h0Zm18.7-1.41h0l.12-.11h0Zm24.84,14h.06v-.13h0Zm-.33-10.69h0l-.06-.13h0ZM29.16,49.59l.05,0,.06-.13h0ZM29.92,24c0,.1,0,.14.11.1ZM31,52.56h0l.06.11h0Zm5.44-34.3c-.09.09-.09.14,0,.18s0,0,.06,0Zm17.22,5.48c-.14-.1-.11,0-.15,0h.15Zm-18,1.73c.1-.06.14-.1,0-.15Zm.91-9c-.09,0-.16.07-.05.17ZM25,27.07h0l.15-.06L25,27ZM73.13,13.29h.05a.13.13,0,0,0-.15-.13ZM20.87,21.12,21,21C20.92,21,20.88,21,20.87,21.12Zm7,6.16h0v-.13h0Zm.63-4.74h0l.06.11h.05ZM35,33.17h.18V33Zm15.58-4.7v.05a.61.61,0,0,1,.07-.1h0Zm17.3,13.44c.06,0,.14,0,.17-.07ZM39.05,9.58c-.07.09-.07.09,0,.16ZM51.68,25.05h0v.13h0ZM22.59,27.21c0,.06-.1.11,0,.18Zm6.24.14h0l-.09-.12h0Zm-4.54,7.46L24.2,35C24.29,35,24.36,35,24.29,34.81Zm13.29-8h.06v-.13h0Zm-22.19.57c-.12,0-.12,0-.06.1ZM34,41.63v.06h.11Zm-9.34-17.1c.1,0,.1,0,.08-.12ZM49.72,41.75c.12-.13,0-.14,0-.22Zm-24-1.28h0l-.05-.13h0ZM23.42,20.2l-.12-.14C23.3,20.16,23.3,20.23,23.42,20.2Zm12.44,0h0v-.15h0ZM24.49,26.76h0v-.14h-.06Zm5.22,2.89h0v-.12h0Zm2.94-.08h0v-.13h0Zm17.4,10.9a.24.24,0,0,0,0,.12l.06.06h0Zm2.25.12.13-.11S52.28,40.47,52.3,40.59ZM37.17,26.66h0v-.13h0ZM12.29,40.73h.05V40.6h0Zm25.1-28.86c-.12.08-.12.08,0,.16ZM37,12.6h-.05v.11h0Zm-7.69,5.56h.05v-.11h-.07Zm6.64-5.76h0v.17h0ZM12.91,41H13l-.11-.09h0ZM28,27.66h0l.05.16h0Zm1.86,18.81v-.22C29.77,46.29,29.78,46.35,29.86,46.47Zm-18.38-9.6h.06l.07-.11h0Zm1-.15h.06a.21.21,0,0,0,0-.11h0ZM28.57,22h0v.11h0Zm-.29,4.71v-.13C28.16,26.6,28.16,26.64,28.28,26.66Zm3.51,9.94h0l.12,0v0Zm1.16.16h-.06l-.06.1h0ZM25.36,24.63h0l-.09.06h0Zm2.88,3h0v.1h0Zm21.64-4.27h0v-.09h0v.09Zm-38.75,14h-.06l0,0ZM33.65,47.72h.06v-.11h0ZM11.73,35.82h.07v-.13h0ZM23.14,20.13h0l-.09-.08h0ZM13.83,35.28h0l-.05.1h0ZM24.54,25.12h0l-.07-.1h0Zm-4.65,10h0l.05-.14h-.05Zm13.72-11.8h-.06v.15h0ZM21.67,45h0v-.06h-.08Zm4-17.71h0v.07h0ZM37.85,38.56h0v.11h0ZM25,28.36c.11-.07.16-.11.09-.24v.1Zm18.71-4.18h0l-.05.08h0ZM29.49,48.47h0v.07a.11.11,0,0,0,0,.08h0ZM45.35,33.89c.12,0,.1,0,.07-.13ZM18.29,44.65a.14.14,0,0,0,0-.09h-.05ZM38.06,12.94h0L38,13h0ZM18.4,27.3h0l-.09-.07h0Zm7.89-.14Zm8.2,21.66h0l-.05.07h0Zm-3.69-16h0V33h0Zm3.72,16.1c0,.15,0,.15.1.13Zm3.56-9.73h0v.12h0ZM49.83,28.6l-.07-.07h0a.11.11,0,0,0,0,.08ZM15.6,39.35h.05l-.07-.12h0Zm11.9-14-.05.06.09.06h.05ZM39.59,8.52h-.05l.05.1h0ZM25.94,39.25ZM18.55,44h.09l.07-.08h-.09Zm2.75-.12h0l-.05,0h0Zm24.08-20v.13h0ZM23.22,32.09h0V32h0Zm10.71-3.43-.07.18C34,28.79,34,28.75,33.93,28.66Zm-3.4,3.2h0l.07-.11h0Zm4.06,18.61h0v-.1h0Zm-32.72,0h0v.1h0ZM31.71,31.63h0l.1-.09h0Zm1.82-11v-.08h-.05v.07s0,0,.05,0ZM45.05,31.15c.12,0,.12,0,.09-.12Zm-23.7-2.37h0v.14h0ZM34.06,23h0v-.15h0Zm-10,8v-.19c-.06.06-.06.1,0,.15ZM37.8,39.7h0v-.09h0l0,0ZM19.71,43.22c0-.06,0-.14-.09-.16Zm1.87-22.6h0v.1h0ZM19.18,43V43a.18.18,0,0,0-.07,0l.05.06ZM35.94,15.16h0v-.09h0Zm-1.69,13.7v-.09h0c-.05,0,0,0,0,.06S34.22,28.83,34.25,28.86Zm-4.9-2.8h0v.1h0Zm16.52-3.24h0V23h.05ZM27,42.76H27l-.07.09h0ZM24.69,26.81h0v0ZM26,52.47c-.1.08-.06.12,0,.19ZM32.9,42.3h-.1v.06s0,0,.05-.09Zm-15.09-.17v.07h.05Zm15.8,10.68h0a.21.21,0,0,0,0-.11h0Zm-7,.11h0l.11.08h0Zm10-10.82h0v0Zm-10-1.91v-.12h-.08Zm10.3,1.89h0V42h0Zm-1.32-21v.05h.11v-.07ZM33.91,30l-.07-.1-.06.06a.06.06,0,0,0,0,.06Zm3.52-3.26h0v.09h0Zm12.37,3v0Zm-17.43,0h0l-.06-.08h0Zm-16.48-3h0l.11-.27h0Zm9.52-.27h0a.17.17,0,0,0,0,.1h.06ZM39.85,6.1h0ZM28.61,22.47Zm5.46,19h0s0,.07,0,.05ZM25.41,23.79c0-.05.05-.07,0-.08s0,0-.05-.06h0A.81.81,0,0,0,25.41,23.79Zm9.94-2.32h0v-.08h0Zm-9,5.27v-.15c-.07,0,0,.06,0,.11Zm7.06,14.48h0v-.09h0ZM25.6,41h0a.23.23,0,0,1-.07.07h0ZM45.4,29h0v.12h0Z"/><path d="M9.34,18.13c0-.09,0-.19-.18-.12v-.14A1.45,1.45,0,0,1,9,17.65c-.26-.38-.5-.78-.78-1.14s-.53-.63-.8-.93l-.92-1a3.12,3.12,0,0,0-.81-.73,3.29,3.29,0,0,0-1.09-.38c-.3-.05-.61-.09-.91-.15v-.08a1.29,1.29,0,0,1-1-.09s.15-.13,0-.2,0-.07-.09,0-.07-.06,0-.11a.86.86,0,0,1,.14-.13l.09-.1.22.11a1.49,1.49,0,0,1,.8-.2,1,1,0,0,1,.38,0c.23.09.49,0,.72.13H5c.1,0,.16.11.29.08s.21.07.32.11a3,3,0,0,1,1.12.75c.23.27.48.52.71.77l.15.14a.38.38,0,0,0,0-.15,3.31,3.31,0,0,0,0-.77,1.28,1.28,0,0,1,.11-.75c0-.06,0-.18.16-.13v-.21l.08,0v-.11a.17.17,0,0,1,0-.23c.07-.14,0-.23-.09-.32a2.47,2.47,0,0,0-.68-.41l-.12-.14s-.14.07-.18,0a.2.2,0,0,0-.28-.11H6.52v-.11c-.21.08-.31.05-.45-.15H6l-.18-.33v.16H5.41l.19-.17c0-.13,0-.13-.08-.17l.08.17h0a.84.84,0,0,1-.78-.15,6.21,6.21,0,0,1-.82-.4A4.23,4.23,0,0,1,2.81,9a.29.29,0,0,1,0-.13.8.8,0,0,1-.21-.15L2,7.83c-.11,0,.07-.15-.07-.16s-.11-.13-.16-.2l-.14-.21L1.46,7A6.09,6.09,0,0,1,1,5.88a.34.34,0,0,1,0-.31.11.11,0,0,0,0-.14l0,0c-.11,0-.1-.08-.11-.13a1.25,1.25,0,0,1-.08-.54c0-.06-.07-.11-.08-.18C.5,3.8.36,3,.23,2.27.17,1.9.14,1.53.09,1.17l.14-.1H.12L0,.61V0H.46C.41.13.41.13.46.24.46.09.46.09.57,0h0A.62.62,0,0,0,.73.59V.8c0,.06-.08.16,0,.25s0,.16.06.24,0,.28,0,.43A1.33,1.33,0,0,1,1,2.19a2.67,2.67,0,0,0,.08.48c0,.16.06.31.08.47s.09.61.14.92a2,2,0,0,0,.09.33,1,1,0,0,1,0,.25c.08,0,.09.09.11.17.1.38.17.76.29,1.13a5.38,5.38,0,0,0,.4.84,7.86,7.86,0,0,0,.54.87c.21.29.46.56.69.84.08.1.18.19.25.29a2.85,2.85,0,0,1,.16.3L3.9,9c.11.15.35.19.38.4l.36.14c.17.07.34.16.52.22.48.18,1,.34,1.44.53a2.78,2.78,0,0,1,.4.16c.1.06.19.18.29.18s.2.12.3.17a.63.63,0,0,1,.28.2c.28,0,.29.32.49.39l.11.07c.08,0,.13.09.09.2v.08a.83.83,0,0,1,.06.67H8.46c0,.09.1.17.08.22a1.68,1.68,0,0,1-.22.42s-.13.06-.18.1,0,.08,0,.16l.24-.09c.07,0,0,.23.24.16l-.14-.18.21-.07c-.08.15,0,.29,0,.42s0,.07.07.11a2,2,0,0,1-.18.32c0,.07-.14.16-.22.16s-.17.15-.29.22l.18.09-.2.06.13.12L8,14.92l0-.08H8a1.22,1.22,0,0,0,.27.41c.15.16.28.33.42.49a.15.15,0,0,1,0,.21s0,0,0,0,.1.21.26.11a3.15,3.15,0,0,1,.22.29.57.57,0,0,1,.11.38H9.16s.15.08.21-.06l.1.24c-.12,0,0,.14,0,.21L9.53,17s.07,0,.08.05c.19.3.38.62.58.92a1.83,1.83,0,0,0,.3.32c.55.57,1.1,1.14,1.67,1.7a1.86,1.86,0,0,0,.68.46l.19.1h0c.16.11.29,0,.43,0a2.23,2.23,0,0,0,.43-.16l.09-.07c.17-.19.34-.37.5-.57a.9.9,0,0,0,.12-.24,3.47,3.47,0,0,1,.48-.72.24.24,0,0,1,.28,0l.14.11.13.09c0-.14-.12-.16-.22-.22.13-.1.18.07.27.05,0,.16.2.21.3.32l.1-.07.17.25-.18.06v-.13l-.1.07.12.06c.14.09.14.09.07.26-.18,0,0-.18-.15-.22l-.12.24-.18-.18a.66.66,0,0,0-.2-.06l-.16.22c-.11,0-.16,0-.12.07s0,.15,0,.22a5.24,5.24,0,0,1-.59.81c-.18,0-.15.23-.31.28a3.55,3.55,0,0,0-.55.28l0-.14a.21.21,0,0,1-.21.17,1.77,1.77,0,0,1-1.17-.2,3.85,3.85,0,0,1-.92-.68c-.28-.29-.58-.58-.86-.88s-.69-.73-1-1.1l-.1-.15h.16l-.2-.17ZM2.61,12.87h0Zm5.56-.29v-.16C8.09,12.47,8,12.52,8.17,12.58ZM8.51,16l.09-.15C8.53,15.87,8.45,15.88,8.51,16Zm.89,1.85c-.06.06-.06.06,0,.12ZM7.76,13.74h0v-.16h0Zm.68.07h0v.09H8.5Z"/><path d="M13.92,49.82a5.19,5.19,0,0,1,.31-.5,3.89,3.89,0,0,1,.87-.8c.14-.1.3-.18.46-.28,0,.15.09.14.19.13l-.07-.19.27.08h0l.16.22a.54.54,0,0,0,.1-.2c.07,0,.15.1.21,0h0l.16.17a.66.66,0,0,1,0-.48v-.06h0c.08,0,.18,0,.21-.13h-.11c.12-.12.12-.12.26,0s.06,0,.12,0,.1.17.24.16.13.08.06.19,0,.14,0,.24l.47-.1c.08.15-.17.15-.15.3a.29.29,0,0,0-.37,0l-.12.06a10.91,10.91,0,0,0-1.54.84,1.55,1.55,0,0,0-.51.51,2.19,2.19,0,0,0-.32.58,2.71,2.71,0,0,0-.05.94c0,.32.09.63.13,1a2,2,0,0,1,0,.51v.38c0,.12-.07.08-.06.1s.16,0,.16,0a.15.15,0,0,1,0,.13c-.07.08,0,.16,0,.25a1.08,1.08,0,0,1-.1.35,1.24,1.24,0,0,1-.1.2l.12.17c-.06.08-.13.16-.19.25a5.39,5.39,0,0,1-1,.9,6.14,6.14,0,0,0-.51.51c-.17.18-.33.37-.5.56l-.44.48c-.35.35-.68.71-1,1a2.81,2.81,0,0,0-.59.86.86.86,0,0,0-.05.27,3.79,3.79,0,0,0,.07,1.06,3.24,3.24,0,0,1,0,.88c0,.07-.1.13-.16.2l.07.2-.23.16,0-.41h0l-.07.27c-.28,0,0-.26-.2-.32v.24l.19.26H10l.08-.13c-.11,0-.17,0-.18.14l-.15-.09a.55.55,0,0,0-.07-.33,3.65,3.65,0,0,1-.2-.64,7.6,7.6,0,0,1-.16-.83,3.53,3.53,0,0,1,0-.65,2.41,2.41,0,0,1,0-.38,2,2,0,0,1,.3-.9,4.08,4.08,0,0,1,.6-.77c.32-.33.67-.63,1-1,.18-.18.34-.37.51-.56l.24-.22a.53.53,0,0,1,.08-.17l.74-.71c.22-.21.46-.39.68-.59a2.32,2.32,0,0,0,.3-.32.17.17,0,0,0,0-.1,2.47,2.47,0,0,0,0-.61c-.05-.2,0-.2,0-.3v-1c0-.12-.06-.23-.07-.35a1,1,0,0,1,0-.24v-.08A2,2,0,0,1,13.85,50h0v.09a.23.23,0,0,0,.11-.28h0c.1,0,.1-.07.11-.14Zm2.92-1.48V48h-.11A.41.41,0,0,0,16.84,48.34Zm.39-.36c-.23.1-.23.1-.13.25Zm-1.52.69h.06l.17-.25h0ZM10.62,61c-.09.15-.09.15,0,.27Zm5.8-12.55v.07h.1v0Zm-1.05.82h.06v-.12h0Zm-1.65,1.6h0v.18h0Zm1.08,1.86h0v-.1h0Z"/><path d="M46.45,58.81c0,.11.09,0,.16.1v.78c0,.08-.07.16-.09.25a.54.54,0,0,0,0,.18v.16s-.06,0-.1,0h0a.66.66,0,0,1-.12.65c-.24.6-.52,1.19-.77,1.78a1.06,1.06,0,0,0-.09.25,4.84,4.84,0,0,1-.28.66v.15l-.12.07.22.11c0,.17-.07.34.09.49h-.06l0,0h0c-.07-.12-.07-.12-.3-.23a.35.35,0,0,0-.09.28h0l-.07.16h0a2.54,2.54,0,0,0-.23.34,9.18,9.18,0,0,1-.66,1.24c-.17.29-.3.59-.45.9h-.17l.12.12A6.64,6.64,0,0,0,42.81,69h-.87a.54.54,0,0,1,0-.18,5.8,5.8,0,0,1,.24-.84c.17-.44.37-.88.58-1.3s.57-1,.86-1.53c.06-.1,0-.27.2-.3s0-.09,0-.13c.1-.24.2-.47.31-.71.18-.42.38-.83.56-1.25s.26-.58.4-.86l.1-.12a.26.26,0,0,0,.07-.11,1.74,1.74,0,0,1,.3-.79h0c0-.39.25-.71.26-1.1a1.93,1.93,0,0,0,0-.48,1.36,1.36,0,0,0-.26-.41.87.87,0,0,0-.6-.28l-.3-.08h-.51l0,0a.66.66,0,0,1-.2.06,4.28,4.28,0,0,0-.8,0c-.08,0-.09-.13-.19-.06s-.14,0-.23,0v-.21h-.31V58l-.08.06L42.15,58h.07a.54.54,0,0,0,0-.18l0-.05c.16-.11,0-.16,0-.23a.59.59,0,0,1,.08-.79v-.09h.18l-.14-.28h0l.17.13c0-.2-.12-.15-.19-.2s0-.15.19-.12c0-.07.13-.11,0-.21V56h0v-.21c0-.07-.13-.11,0-.18,0-.27.1-.54.13-.81a2.67,2.67,0,0,0,0-.4v-.17l.19.16v-.13c-.1,0-.1,0,0-.3l.09.23.07-.07c.09.08,0,.2.06.31h.11a1,1,0,0,0,.07.55c.06.1,0,.2-.15.26L43,55.05V54.9H42.9l-.08.08.15.1c0,.05-.1.09,0,.17a1,1,0,0,1,0,1h0l-.13.18a.49.49,0,0,1,.06.47,3.78,3.78,0,0,0,0,.67c0,.18.13.27.34.3a.33.33,0,0,1,.19.06c.09.06.16.13.24,0H45a2,2,0,0,1,1.1.31,1.3,1.3,0,0,1,.23.18v.17h.08l.12.41Zm-3.79-4.34-.13.14h.2Zm2.46,9.79c0-.16,0-.21-.17-.15Zm-2.26-9.64h0l.09.12h.1Zm-.34.81h-.06a.61.61,0,0,0-.05.12h0Z"/><path d="M65.85,15.29h0V15.1a4.84,4.84,0,0,1,.33-.46h.09a.75.75,0,0,1,.14-.42,2.73,2.73,0,0,1,.21-.3,2,2,0,0,0,.1-.21c.13,0,.07.13.09.2s0-.17.09-.25h-.15c0-.12.11-.09.13-.1L67,13a2.87,2.87,0,0,0-.77-.11v0h0a1.3,1.3,0,0,1-.31.08H65.3a6.13,6.13,0,0,1-.85-.09L64,12.69c0-.2-.13-.24-.3-.13v-.15h0v.12h0v-.14l-.09.11c-.24-.16-.48-.32-.73-.47-.08,0,0-.18-.15-.2s0-.08-.1,0-.07,0-.07,0,0-.18-.16-.1v-.22c-.14.09-.27,0-.39-.08v-.08a.63.63,0,0,1-.46-.2,6.91,6.91,0,0,1-1.31-1.39.61.61,0,0,1-.07-.14l.11-.2c-.08,0-.1-.07-.13-.16l-.07.11c-.12,0-.13-.28,0-.48a.27.27,0,0,1,0-.36l0,0a.78.78,0,0,0,.23-.38,4.6,4.6,0,0,1,.29-.59.21.21,0,0,0,0-.11.18.18,0,0,1,.16-.18h0a1.12,1.12,0,0,1,0-.63V6.42a.79.79,0,0,0-.06-.33c-.06-.12,0-.24-.08-.37a.64.64,0,0,1-.06-.35V4.46c.1-.06,0-.15,0-.23s0-.08.08-.07,0-.06,0-.08c-.11-.2,0-.38.06-.57s0-.11.06-.18h.21l-.06.16h0L61,3.08h0V3.2l.15.07h0c.13.11.11.25.08.4a4.52,4.52,0,0,0-.08.63,6.29,6.29,0,0,0,.18,1.62,2.54,2.54,0,0,1-.09,1.39l0,.16c-.05.13-.08.27-.25.27v.31L60.79,8a.49.49,0,0,1,0,.47l-.09-.07v.31a.46.46,0,0,0,.1.32c.06.08.1.18.16.26a2.48,2.48,0,0,0,.19.26l.19.09-.08.16.17-.06v.12h.12l-.08-.26.24.15a.58.58,0,0,1,.09-.25c.06-.06,0-.2.19-.17-.06.09,0,.22-.11.28s0,.08,0,.1-.1.2-.22.13l-.08.21c.19.16.41.35.64.53l.8.56c.09.06.18.11.15.24l.06.06v-.14c.13,0,.14.11.17.18h.15l.7.38.24.07h.08c.11.12.11.12.26.06v.16l.15-.21v.19c.13,0,.18-.18.35-.11s.24,0,.36,0l1.08.12a.61.61,0,0,1,.32.06c.11.06.12,0,.1.12h.06c.1-.11.12,0,.15.05a.49.49,0,0,0,.12.13l.14.08a.56.56,0,0,1-.09.17c-.1.07,0,.08,0,.14a.49.49,0,0,0,0,.17.16.16,0,0,1-.07.18v.11a.75.75,0,0,1-.38.52c.08.23-.11.34-.2.49,0-.06.09-.13-.06-.18l.06.18-.14.23v-.17h-.24l.08.1.15.07a.12.12,0,0,0-.11.12.32.32,0,0,1-.28.34c-.1,0-.1,0-.13.22L66,15.08Zm.43-.17v-.06l-.1-.06h0ZM60.6,8.33h0V8.21h0A.45.45,0,0,1,60.6,8.33Zm0-4.15Z"/><path d="M52.57,46.85l.07.45a.24.24,0,0,0-.19.11s-.27.11-.16.31h.09c.1.08.16.17,0,.3l-.05-.17h0l0,.2h-.14l-.14-.4v-.49l-.25.43-.09-.12h0l.06.21c-.06,0-.12,0-.12-.06a.38.38,0,0,1,.09-.38h-.1v-.47c0-.16-.07-.56-.11-.85a.38.38,0,0,1,0-.15v-.19a3.86,3.86,0,0,0-.1-.49h0c.15-.14,0-.25,0-.38a.49.49,0,0,1,0-.24v-.29l.31.29v.12c-.06.2,0,.27.22.26H52a.47.47,0,0,1,0-.4s.09-.11,0-.17v.17a1,1,0,0,1-.13-.22.39.39,0,0,0-.07-.27.17.17,0,0,1,0-.1c.2,0,.09-.22.18-.31l.11.08L52,43.37c.14,0,.12.11.11.22l.15-.1.22.2-.26.22L52,43.77v.12s.13.1.06.15a.28.28,0,0,0-.05.3c0,.11.15-.12.22,0l-.23.13.08.32h.15s0,.11.09.18l.18-.11c.06.09,0,.13-.09.18h.09v.43h-.15V45.2h-.1a1,1,0,0,0-.15.32,1.21,1.21,0,0,0,0,.38L52,46v-.25c-.12,0-.19,0-.16.15s0,0,.07,0l-.08.12,0-.15h-.06l.08.23c-.11.06-.12.16,0,.28v.27c.18,0,.17.09.2.2l-.09.19c.12-.06.1-.13.09-.2l.13,0,.14.13c0-.07-.06-.13,0-.16s0-.15-.1-.18c.11-.13.11-.15,0-.23a.75.75,0,0,0,0-.16,3.38,3.38,0,0,0,0-.45c.17.07.13.21.11.34h.14l-.07.13h0l.2-.08a.62.62,0,0,1,.07.19.53.53,0,0,1-.11.21l.24-.1-.09.18Zm-.4.92c0-.31,0-.31-.1-.35A.29.29,0,0,0,52.17,47.77Zm.09-1.16h0v.16h.1Zm-.56-1.14v.05l.13-.07a.19.19,0,0,0-.08-.14Zm-.13.14h.07v-.15h0Zm1,1.46h-.06a.09.09,0,0,0,0,.07Zm-.84,0,.09-.25c-.13.09-.16.14-.11.27Zm-.16-2.19h-.06V45h0Zm.26-.88h0v-.1h0Z"/><path d="M39.1,44.25l-.16-.06-.07.26.13,0,.06.29h-.15c-.09,0-.07.06,0,.12l.15-.08L39,45l.36-.26h0a1.09,1.09,0,0,1-.08.15,2.59,2.59,0,0,0-.44.59s-.07-.05-.07,0l-.12.15h0l.14-.16a.4.4,0,0,1-.13.31c.07.15.15,0,.23,0s0,.1-.07.14,0,0,0,.1h0c0,.11,0,.08-.11.09h0c-.12-.07-.2,0-.29.07h-.08V46h-.14l-.42-.7a.7.7,0,0,1,.13-.17,5.68,5.68,0,0,0,.63-.67,1.22,1.22,0,0,1,.36-.32h0c0-.23.26-.25.4-.38.14.08.21.24.38.25l.23-.23-.08-.11h.07a.16.16,0,0,1,.1.2h0c-.08.22,0,.33.22.4h0c-.19,0-.23.19-.33.28v.31l-.22-.17.08-.06-.21-.24-.22.08v-.18l-.16.15-.1-.16v-.14h.09L39.06,44A1.12,1.12,0,0,1,39.1,44.25Zm-.44.88.06-.42h-.19V45L38.4,45l-.14.32C38.43,45.27,38.49,45.08,38.66,45.13ZM40,44.3l-.11.22C40.08,44.47,40.08,44.47,40,44.3Zm-1.57,1.08h.06l0-.14h0ZM39.64,44h0v.12h.06a.24.24,0,0,0,0-.12Z"/><path d="M50.92,51.79h-.1l.2-.4-.19-.08H51c.07-.06,0-.15-.15-.32a.86.86,0,0,1,.1-.16H51v.24h.13a.32.32,0,0,0,.21.4,2.25,2.25,0,0,1,.12-.4,3.38,3.38,0,0,0,0-.45s.1.06.1.08a1.19,1.19,0,0,1,.09.41c0,.15,0,.12.13.15l.37.19.12-.11.18.25a1,1,0,0,1-.25.5L52,51.88l.11.46L52,52.17v.3h0l-.07-.15h-.3c-.1.1,0,.2,0,.31s-.07.18-.11.29a2.09,2.09,0,0,0-.13-.35c0-.08,0-.23-.2-.2,0,0-.07-.07-.06-.1A.43.43,0,0,0,51,52h0l.07-.18c-.07,0-.13-.13-.16,0Zm.52.66h0l.07.17h0Zm-.33-.91h0v-.11h0Z"/><path d="M39.59,45.06c0-.12,0-.12.1-.09h.06l.12-.08L40,45l.25-.28c.14.12,0,.22,0,.32a.26.26,0,0,1-.26.15l-.19.53.12.07-.16.12-.18-.28c-.2,0-.17.21-.17.38l.14-.2c.09.25-.21.23-.26.4h.18v.24l.18-.1v.08h0a1.08,1.08,0,0,1-.28.47v.13L39,47h0l-.09-.06c.11-.16.28-.29.18-.5h0c0-.11,0-.19-.12-.17v-.09h0c.08-.06.14-.11.1-.22h.08c0-.2.18-.3.32-.41s.19-.12.06-.25,0-.13.06-.2h0Z"/><path d="M17.86,38.7l.14-.23v-.24l-.17.19v-.09a.36.36,0,0,1,.32-.2.32.32,0,0,0,.2.36,1.79,1.79,0,0,0-.13.32l.09.12.21-.22a.2.2,0,0,1,0,.23.42.42,0,0,0,0,.31.52.52,0,0,0-.11.1.16.16,0,0,0-.05.11v.39c-.17.11-.21-.07-.3-.12.09,0,.14,0,.12-.12l-.17.07h0l-.17-.13-.09.16-.11-.18-.07.06h0c0-.07,0-.17.06-.21a.35.35,0,0,0,.06-.31l.2.1-.11.25.34.06c0-.11-.19-.07-.12-.21h.13c-.08-.06-.09-.26-.25-.11V38.8l.05-.06v.11H18l.08-.22-.17.12-.06-.06Z"/><path d="M45.47,68.87h-.19c-.23,0-.27,0-.29-.2a1.67,1.67,0,0,1,0-.83v-.06c0-.06-.07-.19,0-.3s0-.1,0-.15a.26.26,0,0,0,.21-.14.52.52,0,0,1,.11.1c0,.06.23.09,0,.2v.16l.14-.12a3.83,3.83,0,0,1,.07.58.46.46,0,0,1-.17.28l-.05.08.05.12.13-.09v.07a.36.36,0,0,1-.07.1c-.11.1-.1.11,0,.19ZM45.19,68c-.09.09,0,.13.09.16l-.05.19c.12,0,.09,0,.1-.1s.07-.1.13-.18Zm-.16.34c.16-.08.16-.08.08-.18Zm.08-.72h.08v-.2h0Zm-.06.25h0l.12-.08h0Zm0-.18c0,.05,0,.05.11,0h-.11Z"/><path d="M51.78,41.61h0l.09.28V42c.17,0,.15.11.14.18a.55.55,0,0,0,.14.44.24.24,0,0,1,0,.26.3.3,0,0,1-.06.22c-.06.06-.09,0-.11,0s-.17.09-.25,0l-.18.07h0c.16-.12,0-.24,0-.36l-.21-.12h.18c-.05-.09-.12-.16-.12-.24s.07-.14.13-.23h.25l-.15-.25C51.68,41.73,51.66,41.66,51.78,41.61ZM52,42.93c0-.14-.1-.26-.14-.24v.2Zm.12-.06h.06v-.2h-.11Z"/><path d="M37.26,46l-.2.09a.21.21,0,0,1,.19-.23l.06-.06c0-.16.15-.1.22-.08l.1.34c.25,0,.38.19.39.5,0,0,.14,0,.1.13a.67.67,0,0,0-.45.14c-.07-.16-.21-.26-.29-.42s-.16,0-.13-.18,0-.1,0-.14S37.27,46,37.26,46Zm.1.12c0,.16,0,.16.18.16Z"/><path d="M53.28,41.25v.14l.26.13a.81.81,0,0,0,.05.32c0,.12-.16.1-.18.22l-.3-.28c0,.15-.06.28.1.39V42c.07.11.07.11,0,.27h-.07c0-.19-.26-.23-.22-.43a.29.29,0,0,0,0-.13c0-.17,0-.24.13-.22s.21,0,.21-.2h0Z"/><path d="M44.75,64.71c.12,0,0,.13.12.18l.09-.1v.13h0l.15.14h0a.85.85,0,0,0-.09.22.19.19,0,0,0,.07.14l.09.11.1-.07-.11.36c-.06-.12-.1-.21-.14-.31s0-.08,0-.1h-.12v.06H45a.13.13,0,0,1,.13.13.19.19,0,0,1,0,.07c-.08.11,0,.19,0,.28h0L45,65.83l-.22.2v-.72a.39.39,0,0,0,0-.3,1.61,1.61,0,0,1,0-.31Z"/><path d="M31.15,20.69h.18c.1.1-.06.18,0,.29a1.64,1.64,0,0,1,.05.32c-.07,0-.17,0-.15-.13s-.06,0-.09-.06a.52.52,0,0,1-.23-.39h-.09l-.22-.48h0l.21-.13c0,.18,0,.18.21.27h0c0,.11.14.18.11.31h0Z"/><path d="M18,40l.1-.16.17.1.16.09.19-.36c0,.22-.07.42.14.55a.44.44,0,0,1-.33.45v-.35l-.12-.08c-.08.1,0,.27-.24.26a.4.4,0,0,1,.19-.41L18,40Z"/><path d="M38.53,47.47l-.15.19-.17-.07.15-.21-.11-.2s-.07.1-.12.12a.28.28,0,0,1-.13,0l-.13-.16L38,47l-.19-.06.06,0c.09,0,.16,0,.13-.1l.28-.06c.06.09.27.11.18.32h-.15v.09s.15.16.12.28Z"/><path d="M62.28,8.75l.16.12-.13.35-.22.09L62,9l.22.19c.07-.2-.1-.26-.13-.43l.27-.27c.1-.09.23-.16.33-.24l.19.05-.08.14H62.5v.32C62.46,8.84,62.39,8.57,62.28,8.75Z"/><path d="M19.09,39.55,19,39.36h-.15l-.06-.2-.14.06c-.07-.09-.07-.09-.08-.28,0,.08.15,0,.18.12l.3-.34c.09.08.05.22.08.32a1.93,1.93,0,0,1,0,.34c0,.09,0,.13-.1.15Z"/><path d="M34,26c-.08-.1-.08-.27-.24-.18v-.3c-.2,0-.14-.18-.28-.24l.21-.09c0-.16-.2-.26-.16-.44a.18.18,0,0,1,.18.22c0,.14.1.06.18.11l-.09.05h-.06l.08.23.1-.1.16.14c-.08.07-.08.07-.18.07.1.09,0,.25.13.33A.69.69,0,0,1,34,26Z"/><path d="M63.61,7.89l.12.19h0V7.84l.12.13L64,7.85c0-.14-.21-.18-.16-.37l.23.27.06-.23c.15,0,.14.16.15.26a.2.2,0,0,1-.14.25h0c-.05,0-.08.07-.12.09a.49.49,0,0,1-.17,0l-.12.08c-.12-.08-.05-.24-.1-.36Z"/><path d="M40.86,45.61l-.38-.49c.11,0,.2.1.28,0a1,1,0,0,0,.15-.2l.1.1-.17.2h.31l.05.22c-.11.06-.18.21-.34.13Z"/><path d="M34.37,43.25v-.36c-.16,0-.15-.1-.1-.2h0a.11.11,0,0,0,.08,0,.35.35,0,0,1,.29-.12q.07.13.21,0a1.33,1.33,0,0,1-.1.28c-.07.13-.09.3-.29.3C34.43,43.14,34.4,43.21,34.37,43.25Z"/><path d="M63.11,8.61l-.19-.53.22.09V7.93h.23c.05.08,0,.23.14.2v.14a.58.58,0,0,1-.22.22A.94.94,0,0,0,63.11,8.61Z"/><path d="M16.54,40.47l.14-.15.15.34h.11c0,.19-.11.26-.19.38h-.08a2,2,0,0,1-.05.35.28.28,0,0,1-.11.09v-.1c.08-.14,0-.3.06-.45a.43.43,0,0,0-.08-.29c-.06-.07-.06-.14,0-.17l.14.14v.1l.08-.06h-.08C16.68,40.47,16.6,40.47,16.54,40.47Z"/><path d="M9.28,12.28l.1-.07c.17-.15.16-.16,0-.26l.13-.26.14.09c0-.21.15-.23.26-.32h0c.06.17-.09.26-.14.38a1.46,1.46,0,0,1-.22.33h.14l-.13.19H9.38l-.1-.09Z"/><path d="M34,43l.12-.07h0l-.12.3h.38l-.1.32a.26.26,0,0,1,0,.27l-.13-.13h0v-.08a4.31,4.31,0,0,1-.32-.29Z"/><path d="M36.77,49.6l.15.14.08-.07h0l-.19.25c.12.08.14.13,0,.21a1.62,1.62,0,0,1-.46.31h0a1.09,1.09,0,0,1,.33-.58v-.31Z"/><path d="M53.56,42.87l.15.3c0,.1.2.13.15.29l-.14-.07v.24c-.12,0-.11-.12-.2-.19l-.11.17c0-.16.1-.25.12-.37a2.29,2.29,0,0,0,0-.37Z"/><path d="M36.67,49.47l-.11-.08c.11-.1.25-.16.23-.33l.14.17c.11,0,.19,0,.23-.13s.09-.13.18-.09,0,0,.07-.06h0c.08.08,0,.12,0,.17s-.21.25-.33.39-.15-.08-.18-.25c0,.14-.23,0-.19.22Z"/><path d="M52.11,42.18l.26-.2v-.07h.23l.11.32-.18-.17a2.46,2.46,0,0,1-.07.29c0,.09.09.19,0,.28l-.1-.2h-.14Zm.23,0v.19C52.37,42.26,52.45,42.24,52.34,42.13Z"/><path d="M51.5,24.13v-.06c.07-.16.06-.17-.09-.22v-.18h.12s.19.17.32.18.1.13,0,.2,0,0,0,.06h0v.27Z"/><path d="M33.29,27.85h0c0,.15,0,.31-.15.35s-.16.21-.15.35h0s-.11,0-.09-.13a.74.74,0,0,0,0-.21l-.15.17h0l.08-.12.46-.38S33.26,27.85,33.29,27.85Z"/><path d="M45.05,67l.26-.23a.24.24,0,0,1-.12-.3.23.23,0,0,1,.06-.16l.06.27c.21.07.25.23.1.68l-.17-.17a.6.6,0,0,0-.15-.09Z"/><path d="M42.82,53.41v-.1l.18.1h0l-.18-.15v.06H42.7c0-.15.08-.15.2-.14v-.13h.18a1.61,1.61,0,0,1,0,.31v.45c0,.12-.07.14-.17.16,0-.15.18-.28,0-.41h0C42.94,53.47,42.89,53.47,42.82,53.41Z"/><path d="M19.09,39.54a1.66,1.66,0,0,0,.06.54c.06.18,0,.15-.13.2l.11.09-.07.08h0a.19.19,0,0,1-.11-.2V40l.11-.08L19,39.72c.11,0,.09-.12.16-.17Z"/><path d="M17.86,38.69c-.13,0-.13.13-.17.21a.31.31,0,0,1-.06.13.49.49,0,0,1-.06-.17.37.37,0,0,0-.21-.4l.12-.1.1-.12C17.7,38.4,17.71,38.59,17.86,38.69Z"/><path d="M28.65,46.1l.17.12h.06l-.08-.11.12-.17.08.17-.08.25c-.16.07-.16.07-.13.25l.06.37v.15a1.08,1.08,0,0,1-.09-.5.3.3,0,0,0-.13-.35h0c.05,0,.08,0,.07-.07Z"/><path d="M45.09,66a.84.84,0,0,0-.05.17,2.89,2.89,0,0,0,0,.29h-.26a.52.52,0,0,1,.18-.49l.13.07Z"/><path d="M12.58,42.05l.07.16-.52.38L12,42.47h0c0-.06.07-.13,0-.19h.16c.08-.08.16-.18.18-.17s.14-.08.21-.08Z"/><path d="M53.3,43.17l.07.07-.21.11L53,43a.49.49,0,0,1,.47-.07Z"/><path d="M14.1,37.9a.82.82,0,0,1,.49-.24c0,.08,0,.15-.08.17s-.16,0-.09.16a.14.14,0,0,1,0,.09.7.7,0,0,0-.07.1s-.09-.06-.09-.09A.22.22,0,0,0,14.1,37.9Z"/><path d="M9.08,12.76v-.15c-.06-.23-.06-.24.14-.38h0c0,.14,0,.15.19.14h0l.08.12-.24.06-.08-.16c-.12.25.19.21.19.37s-.17-.13-.24,0Z"/><path d="M35,49.66h0c.17-.11.18-.16,0-.29l.06-.09v-.1l.25.28-.1.19S35.13,49.78,35,49.66Z"/><path d="M38.91,24.68c-.19-.11-.14-.26,0-.42-.13,0-.17.17-.31.07.09-.15.26-.2.38-.31l.05.34-.15.06.07.27Z"/><path d="M9,12.83l.12-.07h0v.29H8.94l.11.24H9l-.11.18-.19-.18h.18a.11.11,0,0,0,0-.08c-.09-.09-.09-.13,0-.22A.61.61,0,0,0,9,12.83Z"/><path d="M33.89,20.13c-.07,0-.13,0-.09-.12l.12-.21a.91.91,0,0,1,.23.47c-.17.05-.11-.1-.15-.15Z"/><path d="M58.64,23.63v-.16h0v-.11l.11.12H59l.11.19h-.2v.14l-.26-.12Z"/><path d="M50.91,41.68l.06.18a1.09,1.09,0,0,0,.08.15l.17-.3c.07.08.07.09,0,.21l-.13.2c-.08,0,0-.13-.13-.11s-.08-.07-.08-.13v-.2Z"/><path d="M52,50.7c.21-.09,0-.26.14-.36.15.15.15.15.07.55Z"/><path d="M37.61,43.18V43a.37.37,0,0,0,.14-.42c.18.14,0,.24,0,.35l.15.07Z"/><path d="M16.18,48.17l.07-.1.12.14v-.28h-.16l.42-.2v.16h-.07l-.11.38h0l-.24-.09Z"/><path d="M20.39,28h0c0-.14-.1-.12-.19-.1h0c0-.11.15-.06.17-.17s.12-.12.19-.18l.17.25h-.28Z"/><path d="M16.9,41.9h-.06a.49.49,0,0,1,0-.17v-.16a.43.43,0,0,1,0-.16c0,.12.22.18.11.33l.13.09-.15.09Z"/><path d="M32.39,17.59l.3.41-.08.12V18h-.1l-.12-.43Z"/><path d="M30.26,52.26a.14.14,0,0,0-.06.18v.17c-.2-.1-.13-.3-.26-.45l.36.11Z"/><path d="M53,46h.16l.06.5A.82.82,0,0,1,53,46Z"/><path d="M52.53,37.36l.27.17-.28.17c-.11-.16-.11-.18,0-.35Z"/><path d="M38.56,48.06,38.35,48a.65.65,0,0,1,.49-.34c-.12.12-.32.19-.29.41Z"/><path d="M28.52,47.64l-.12.06v-.06a.4.4,0,0,0-.06-.26c-.08-.08,0-.15.05-.2Z"/><path d="M52.51,43.57s-.14-.08-.07-.19h.15v-.25h.18v.24l-.11-.06v.14c-.07,0-.17,0-.15.13Z"/><path d="M36.19,49.47,36,49.8l-.09-.33c.12,0,.21,0,.16-.2l.07,0Z"/><path d="M34.27,44.59a.61.61,0,0,0,.12-.16c0-.09.1-.09.18-.06a2.41,2.41,0,0,1-.15.33h-.07a.11.11,0,0,1-.09-.13,0,0,0,0,1,0,0Z"/><path d="M37.14,14.31h0a.69.69,0,0,1,.08-.4c0,.21.13.39.09.62Z"/><path d="M39.46,47c0-.22.18-.34.33-.25s0,0,.05.08h-.12C39.64,47,39.63,47,39.46,47Z"/><path d="M35.24,24.83l-.21.22a.2.2,0,0,0-.13.06c0-.15.3-.18.05-.38h.15l.06-.19a.25.25,0,0,1,.07.26Z"/><path d="M34.58,44.25,34.52,44l.24-.21-.15.47Z"/><path d="M54.08,47.47l-.08.17-.25-.09.08-.35.07.23h0c.08.12.08.12.2,0Z"/><path d="M16.81,39.9c0-.1.07-.1.14-.12l.15.07h0a.28.28,0,0,1-.23.23Z"/><path d="M29.49,17.17h0c0,.08,0,.12-.11.12h0c-.06-.08-.12-.16,0-.27C29.35,17.11,29.52,17,29.49,17.17Z"/><path d="M13.85,41.1l.08-.18a.42.42,0,0,1-.26.4l-.06-.18Z"/><path d="M34,26.65h.11l-.18.3h-.18a.72.72,0,0,1,.25-.32Z"/><path d="M18.53,38.06v.12H18.4s0,.09-.06.14c-.09-.11-.09-.11.09-.38l.07.1h0Z"/><path d="M16.92,43.78h0l-.06.09a1.56,1.56,0,0,1-.2-.16.59.59,0,0,1-.05-.19l.22.14Z"/><path d="M37.62,48.77c0-.17.11-.21.26-.21a.43.43,0,0,1,0,.16s0,.12-.1,0S37.69,48.76,37.62,48.77Z"/><path d="M39.26,23.83c0-.18.12-.19.23-.23l.09.23Z"/><path d="M17.45,44.71v-.18l.23.06h0v.29l-.11-.09a.1.1,0,0,0-.15-.09Z"/><path d="M19.21,26.71H19l-.07-.24a.5.5,0,0,1,.32.23Z"/><path d="M36.3,50.47l-.08-.08v-.28c.15,0,.11.2.17.32h-.12Z"/><path d="M39.1,24.47v-.25h.23c0,.15-.12.16-.18.24Z"/><path d="M42.52,41.38l-.14-.17-.18.1c-.05-.14.08-.15.14-.21S42.55,41.18,42.52,41.38Z"/><path d="M28.59,46.28c-.14-.09-.12-.23-.13-.36v-.17s.14.07.14-.07h0V46c0,.11,0,0,.06.07l-.05.21Z"/><path d="M37.79,48l.05.3h-.18C37.59,48.18,37.71,48.11,37.79,48Z"/><path d="M17.42,40.7l.15.3c-.05,0-.1.17-.21.06Z"/><path d="M42,41.82c.1,0,.06.11,0,.15a.91.91,0,0,1-.22.11s-.05-.09,0-.13.07-.11.14-.07.08,0,.12-.06Z"/><path d="M17.55,39.84v.23a.42.42,0,0,1-.05.2l-.14-.2.21-.22Z"/><path d="M42.91,53.54l-.15.35s-.06-.08,0-.1,0-.23,0-.34l.18.09Z"/><path d="M29.05,46.53c0,.12.11,0,.17.06s0,.07,0,.07a.41.41,0,0,1-.22,0c-.09,0-.12-.08-.06-.18h.13Z"/><path d="M35,24.47v.17l-.21.05C34.72,24.47,34.81,24.47,35,24.47Z"/><path d="M41.85,45c.18.1,0,.26.12.38h-.12Z"/><path d="M40.3,28.25v-.09c.09,0,.19-.09.28,0v.22s-.07-.1-.11-.11h-.11v-.06Z"/><path d="M61.17,3.29c.06,0,.12-.08.07-.09s0-.16-.05-.22a.2.2,0,0,1,.14.23C61.33,3.33,61.27,3.35,61.17,3.29Z"/><path d="M17.08,41c-.15,0-.13.18-.18.29l-.14-.07.12-.11L16.76,41h0a.47.47,0,0,1,.33,0Z"/><path d="M34.32,25.47c.1.15-.09.18,0,.33L34,25.64C34.16,25.62,34.28,25.62,34.32,25.47Z"/><path d="M52.64,38.12c.15,0,0,.15.07.2s.07.13.12.24l-.22-.09v-.32Z"/><path d="M28.94,47.19a.27.27,0,0,0,.08.24c.08.06.05.13-.06.17l-.13-.36H29Z"/><path d="M33.69,26.08a.86.86,0,0,1-.06.23.18.18,0,0,1-.08.09h-.07a.24.24,0,0,1,0-.12Z"/><path d="M38.16,24.93a.72.72,0,0,1-.13.47v-.29l.17-.18Z"/><path d="M44.9,33.47c0,.11.06.18,0,.23l-.15.13c-.06.06,0-.11,0-.13Z"/><path d="M32.51,20.25l.07.13-.18.1C32.32,20.34,32.33,20.32,32.51,20.25Z"/><path d="M27.91,18.54l-.21-.07h.1v-.13H28v.31Z"/><path d="M28.6,45.68l.15-.13.09.17-.09.16Z"/><path d="M38.55,48.07l.08.06a1.21,1.21,0,0,1-.05.18l-.33-.16.08-.07.18.12.05-.14Z"/><path d="M36.8,42.74l.12.06V43c-.1-.06-.16-.21-.3-.13h0c0-.17.14-.08.23-.09Z"/><path d="M53.7,51.31,53.41,51C53.53,50.91,53.64,51,53.7,51.31Z"/><path d="M53,50.6v-.13l.18.36h0l-.13-.29Z"/><path d="M51.64,39.33h.13v-.22h0v.3C51.75,39.47,51.68,39.47,51.64,39.33Z"/><path d="M16.9,41.9h0V42h0l-.31-.17V41.8Z"/><path d="M53.65,48.26l-.14.1-.12-.1.15-.17Z"/><path d="M38.17,48.31c0,.09-.16.09-.09.22s0,0-.06,0h-.08a.11.11,0,0,1,0-.15h0A.49.49,0,0,1,38.17,48.31Z"/><path d="M38.49,39.86v-.12l.08.18-.19.1-.09-.22h0Z"/><path d="M54,49.4c.11,0,.13.08.07.15l-.19.16.12-.32Z"/><path d="M51.5,44.07c-.11-.07-.21-.1-.19-.23h.19Z"/><path d="M17.56,39.85v-.16c.07.06.2.05.19.17l-.06.08-.14-.1Z"/><path d="M52.16,52.47l.17.32C52.19,52.77,52.18,52.74,52.16,52.47Z"/><path d="M9,12.83l-.15-.08-.09.14v-.24H9c0,.09.14.12,0,.23Z"/><path d="M38.28,34.61c0,.12.1.24-.07.38v-.37Z"/><path d="M38.35,38.66l.23.24a.21.21,0,0,1-.25-.13Z"/><path d="M18.63,38.79l.1-.27s.1.09.09.12S18.76,38.81,18.63,38.79Z"/><path d="M28.45,47.81c.17.06.14.21.18.36C28.46,48,28.46,48,28.45,47.81Z"/><path d="M16.22,19.47c.18,0,.18,0,.2.27C16.28,19.68,16.32,19.52,16.22,19.47Z"/><path d="M54.93,41.65v-.29C55.1,41.47,55.1,41.47,54.93,41.65Z"/><path d="M9.19,12.23V12h.16l-.1.25h0l-.09,0Z"/><path d="M18.71,45.3c-.08.16-.2.1-.3.13a.06.06,0,0,1,0-.06h.05Z"/><path d="M45.47,68.87h0c0-.12.07-.13.16-.18v.23h-.15Z"/><path d="M33.33,53.47l.11.22v.14c-.21-.1-.12-.23-.08-.35Z"/><path d="M52.69,42.36l-.06.27a.16.16,0,0,1-.09-.21h0Z"/><path d="M52.74,45a.38.38,0,0,0,0,.15.33.33,0,0,0,0,.14c-.12,0-.15-.09-.19-.18Z"/><path d="M64.37,7.55l-.12-.21h.09c.09,0,.06.14.07.21Z"/><path d="M17.44,44.7c0,.06.13.08,0,.18-.06-.1-.21-.13-.19-.29l.16.12Z"/><path d="M53.31,38.52l.15.33-.24-.08C53.39,38.73,53.26,38.63,53.31,38.52Z"/><path d="M28.87,48.61l-.23-.14.06-.17Z"/><path d="M52.41,38.18v.33C52.26,38.35,52.26,38.35,52.41,38.18Z"/><path d="M35.61,21.88c.08.19.08.19-.15.34v-.16h0c.12,0,.16-.08.14-.19Z"/><path d="M38.37,46.14l-.2.24c0-.21,0-.21.2-.23Z"/><path d="M51.41,41.55h0c.06.08.21.1.13.27C51.45,41.74,51.34,41.7,51.41,41.55Z"/><path d="M45.2,65.36l.08-.33C45.38,65.17,45.38,65.2,45.2,65.36Z"/><path d="M34.27,44.59h0l-.11.09H34l.28-.19Z"/><path d="M34.79,48.08l.19-.22-.08.33Z"/><path d="M58.64,23.52h0a.07.07,0,0,1-.14,0,2,2,0,0,1-.06-.34c.14.06.07.16.07.23Z"/><path d="M52.32,45.47l.16.07v.11l-.26-.09.11-.08Z"/><path d="M.37,50l.21-.15v.22Z"/><path d="M51.85,52.68l-.12.29-.12-.1C51.75,52.87,51.7,52.67,51.85,52.68Z"/><path d="M35.9,50.85l-.2.1v-.28Z"/><path d="M54,49.4h-.07a.22.22,0,0,1,.08-.28Z"/><path d="M30.29,22v-.2h0V22a.15.15,0,0,0-.11.05c0,.05-.05,0-.06-.05s0,0,0,0Z"/><path d="M43.16,23.07l.13-.17h.17l-.17.19h-.13Z"/><path d="M51.3,42.25v.22h0l-.12-.22Z"/><path d="M45.21,64.52c.08.15-.08.18-.1.27a.2.2,0,0,1,.09-.27Z"/><path d="M17.79,48l-.29-.09.23-.1Z"/><path d="M35.22,49a.18.18,0,0,1,.2.24C35.39,49.12,35.24,49.13,35.22,49Z"/><path d="M13.07,41.55v-.08l.11.19H13Z"/><path d="M31.12,22.28c-.12-.1,0-.21,0-.31C31.16,22,31.16,22,31.12,22.28Z"/><path d="M45.05,67l0-.33.15.11-.07.22Z"/><path d="M39.83,23.88l.07-.24H40C40,23.76,40,23.85,39.83,23.88Z"/><path d="M52.68,51.71c.19,0,.2,0,.19.26C52.87,51.83,52.69,51.83,52.68,51.71Z"/><path d="M32.66,20.47c.05.22.05.22-.15.24Z"/><path d="M36.43,49.87v-.22c.14.07.14.14.09.23Z"/><path d="M51.1,42.58l-.16-.06.15-.13c.07.07,0,.12,0,.18Z"/><path d="M37.19,48.56h.12v.25h0v-.3Z"/><path d="M31.31,20.4h0l.14.05h0v.19h-.07Z"/><path d="M28.84,48.07c0,.09.08.19,0,.34A.4.4,0,0,1,28.84,48.07Z"/><path d="M34.72,26.17c0-.1-.14-.17-.1-.33C34.7,26,34.79,26,34.72,26.17Z"/><path d="M52,39.22v-.3C52.12,39,52.12,39,52,39.22Z"/><path d="M15.35,39l-.07.08V39h-.11v-.06l.2-.14h0v.19Z"/><path d="M37.34,13.65l.16.15h-.21l.08-.18Z"/><path d="M14.77,38.69h0v-.08l.12.08v.06Z"/><path d="M38.48,38.39c.14.09.08.16,0,.23Z"/><path d="M2.23,13h.22v.21Z"/><path d="M53.9,47.47l.06-.18.16.2h-.2Z"/><path d="M52.3,46.3c0-.11-.14-.21,0-.33,0,.12.13.23,0,.32Z"/><path d="M53.83,45.55l.12.27C53.82,45.82,53.76,45.69,53.83,45.55Z"/><path d="M49.19,45.74c-.12-.05-.19-.11-.12-.27Z"/><path d="M42.21,44.75c.07.16.07.16-.06.23C42.07,44.87,42.2,44.83,42.21,44.75Z"/><path d="M27.86,46v-.25C27.94,45.83,27.94,45.83,27.86,46Z"/><path d="M34.16,44.66V45C34,44.85,34.16,44.76,34.16,44.66Z"/><path d="M40.47,46c0,.19,0,.21-.19.2Z"/><path d="M53.31,46.59v-.26a.2.2,0,0,1,.09.25Z"/><path d="M39.12,46.41c-.13,0,0,.13-.06.19l-.14-.13.11-.16.08.1Z"/><path d="M49.74,47l-.21-.1C49.71,46.81,49.71,46.81,49.74,47Z"/><path d="M51.6,39.2h0c-.09-.11,0-.14.08-.19S51.69,39.15,51.6,39.2Z"/><path d="M38.36,41.23a.35.35,0,0,1,.08.26h-.06l-.07-.26Z"/><path d="M36.77,49.6h0c-.07.06-.12,0-.11-.06a.14.14,0,0,0,0-.09h0C36.81,49.47,36.81,49.47,36.77,49.6Z"/><path d="M44.76,33.36c-.11,0-.15-.07-.08-.17Z"/><path d="M51.81,24.07h0c.14,0,0-.14.13-.13l.07.17C51.91,24.18,51.86,24.12,51.81,24.07Z"/><path d="M27.49,18.87l.14.2-.16.07v-.27Z"/><path d="M39.72,23.47c.05.07.05.13,0,.16a.08.08,0,0,1-.09,0S39.64,23.47,39.72,23.47Z"/><path d="M42.05,41.64a.34.34,0,0,1,.11-.29c0,.23,0,.23-.11.28Z"/><path d="M31.64,29.41h-.06v-.18h.17Z"/><path d="M35.7,21.47c.07.13.15,0,.22,0v.05l-.15.2-.06-.25Z"/><path d="M19.36,44.74v.19h0l-.13-.14c0-.09.09-.12.16,0Z"/><path d="M22,20.07h-.1v-.16H22Z"/><path d="M53.83,45.55h0a.43.43,0,0,1,0-.16.11.11,0,0,1,0-.11h.09Z"/><path d="M17.08,41c-.07-.1,0-.18,0-.27h.09l-.13.23Z"/><path d="M53,45.38v.08h-.2C52.82,45.33,52.88,45.35,53,45.38Z"/><path d="M40.86,45.6l-.14.26c0-.16,0-.24.14-.25Z"/><path d="M38.38,39.34l.17-.07v.22Z"/><path d="M13.48,41.47l-.09-.21h.19l-.1.24Z"/><path d="M27.22,53.4l.1-.12v.09l-.16.09v-.13h0Z"/><path d="M29.31,46.86v-.25C29.44,46.69,29.44,46.71,29.31,46.86Z"/><path d="M37.59,14.13c-.12.17-.12.17-.21.12Z"/><path d="M64.62,7.39c0-.13-.12-.23.07-.29Z"/><path d="M54.16,43.05,53.88,43C54,43,54.08,42.88,54.16,43.05Z"/><path d="M43.06,53c0-.07-.1-.17.07-.22V53h-.07Z"/><path d="M51.74,48c.06,0,.12,0,.09.06a.26.26,0,0,1-.14.11l.06-.17Z"/><path d="M42.16,40.47a.14.14,0,0,1-.08.21.15.15,0,0,1,.06-.2Z"/><path d="M53.53,51.92c0-.09.06-.15.22-.1l-.19.14Z"/><path d="M50.29,51.65l.24-.11C50.55,51.68,50.55,51.68,50.29,51.65Z"/><path d="M18,40l.11.1H17.9c0-.08,0-.18.11-.11Z"/><path d="M35.52,50.92l.06-.21h.05a.17.17,0,0,1-.07.21Z"/><path d="M42.05,41.63v.19H41.9l.21-.1Z"/><path d="M16.39,19.89v.24c-.16-.07-.05-.17-.05-.25Z"/><path d="M51.57,49.75a.29.29,0,0,1,.07-.22v.23Z"/><path d="M52.4,41.06c0,.06.09.12,0,.19s0,0,0-.06Z"/><path d="M39.75,45h-.06v-.17h.07Z"/><path d="M43.78,38.47l.15-.25C44,38.32,44,38.32,43.78,38.47Z"/><path d="M18.82,38.16l.22.05C18.93,38.24,18.93,38.24,18.82,38.16Z"/><path d="M35.46,23.15l-.15.11-.05-.12h.2Z"/><path d="M38.18,33.34c.13.08.12.16.06.24Z"/><path d="M44.17,38.1v-.22C44.29,38,44.29,38,44.17,38.1Z"/><path d="M37.41,48.62l-.13-.15h.17l-.08.13Z"/><path d="M26.54,24.34c-.13,0-.09-.12-.14-.22A.21.21,0,0,1,26.54,24.34Z"/><path d="M51.1,42.58h0c.08-.06.08,0,.08.06s0,0-.07.06Z"/><path d="M31.84,17.93c-.15,0-.13-.08-.08-.23Z"/><path d="M46.45,58.81h-.1v-.15l.19.17Z"/><path d="M35.09,47.77V48h0L35,47.78Z"/><path d="M37.28,42.59l.17.29a.28.28,0,0,1-.17-.3Z"/><path d="M29.93,27.89l-.22.1C29.74,27.9,29.76,27.78,29.93,27.89Z"/><path d="M38.87,46.74l-.12-.18C38.88,46.58,38.88,46.58,38.87,46.74Z"/><path d="M51.16,43.35c.09,0,.14.06.08.21l-.13-.17Z"/><path d="M45.16,36.67v-.2c.08.11.11.17,0,.23Z"/><path d="M37.35,13.66v-.2h0l.08.19h-.08Z"/><path d="M29.06,46.53V46.3h.14s-.05,0-.05.07,0,.11-.06.15Z"/><path d="M55.12,41.23h0v.07h0L55,41.22h.12Z"/><path d="M2.57,41.55v-.08h.08v.12Z"/><path d="M10.12,11.18V11c0-.06.05.14,0,.18Z"/><path d="M39,46.15h0a1.33,1.33,0,0,0-.14-.19h0l.22-.06A.3.3,0,0,0,39,46.15Z"/><path d="M35.23,24.84c.13,0,.15,0,.1.19l-.09-.2Z"/><path d="M53.35,52v-.16h0C53.47,51.93,53.44,52,53.35,52Z"/><path d="M19.86,44.47h0l-.14.08h0l-.11.06C19.66,44.47,19.66,44.47,19.86,44.47Z"/><path d="M16,48.26c0-.14.15-.06.23-.09h0v.1H16Z"/><path d="M34,26.65v-.31h0A.55.55,0,0,1,34,26.65Z"/><path d="M28.86,45.54c-.09-.08,0-.16,0-.24A.21.21,0,0,1,28.86,45.54Z"/><path d="M52.84,45.2l.08-.2h0C53,45.09,53,45.17,52.84,45.2Z"/><path d="M18.53,38.06c.09,0,.19,0,.21.19Z"/><path d="M52.92,51.59h-.18l.19-.07Z"/><path d="M31.47,20.6c.15,0,.15,0,.06.25a.38.38,0,0,0-.06-.26Z"/><path d="M19.32,44.93s.05,0,.08,0h.1V45l-.13-.11Z"/><path d="M52.43,38.89c-.06,0-.11.13-.18,0Z"/><path d="M53.38,42.3c-.1-.08-.08-.14,0-.18Z"/><path d="M15,38.7v-.23C15.15,38.57,15.06,38.64,15,38.7Z"/><path d="M52.63,51c.06.09,0,.14-.07.18S52.59,51.07,52.63,51Z"/><path d="M39.23,24.06l-.14-.2h.17v.23Z"/><path d="M13.79,50.14a.36.36,0,0,1,.13-.32h0V50h0l-.14.19Z"/><path d="M29.57,50.93c-.06,0-.11,0-.11-.07a.37.37,0,0,1,.05-.18Z"/><path d="M53.15,23.71a.28.28,0,0,1,.15-.24v.14h0Z"/><path d="M50.81,50.8l-.05-.23C50.86,50.68,50.86,50.68,50.81,50.8Z"/><path d="M17,44.78l-.07-.13C17,44.66,17,44.66,17,44.78Z"/><path d="M37.54,12.75a.34.34,0,0,1-.18.25A.34.34,0,0,1,37.54,12.75Z"/><path d="M52.79,39.12v-.21C52.91,39,52.92,39,52.79,39.12Z"/><path d="M45.55,44.85h0c0,.11,0,.11-.18.09Z"/><path d="M34,25v-.12h.07V25Z"/><path d="M52.58,39.1l-.09.13h0Z"/><path d="M9,13.31v-.18s.08,0,.09.06-.06.07-.1.11Z"/><path d="M17.52,44.28s-.05.07-.07.07-.08-.08,0-.17l.11.11Z"/><path d="M17,44.19l.18-.09a.14.14,0,0,1-.16.14Z"/><path d="M6.94,25.65a.2.2,0,0,1-.11-.26l.11.27Z"/><path d="M49.51,46.05v.19h0Z"/><path d="M41.07,43.88c.07,0,.14,0,.14.09h0C41.1,44,41.09,44,41.07,43.88Z"/><path d="M53.63,44v-.25h0Z"/><path d="M40.18,46.29c.11,0,.12.08,0,.16Z"/><path d="M38.65,46.84c.08-.07.12-.1.18,0Z"/><path d="M52.57,46.85c.15,0,.15,0,.15.17Z"/><path d="M33.55,19.4l-.07-.2C33.58,19.29,33.58,19.29,33.55,19.4Z"/><path d="M43,39.81V39.6C43.11,39.66,43.12,39.72,43,39.81Z"/><path d="M17.56,47.52h0Z"/><path d="M52.6,47.54v.15h0C52.52,47.63,52.47,47.56,52.6,47.54Z"/><path d="M51.74,48h0c0-.08-.1-.2.09-.25Z"/><path d="M33.34,24.47v.16h-.16Z"/><path d="M28.93,48.54l.09-.23C29.05,48.39,29.09,48.47,28.93,48.54Z"/><path d="M35.69,48.54l-.06-.07h0l.09.08Z"/><path d="M38.12,34.47l.14-.16C38.25,34.4,38.25,34.4,38.12,34.47Z"/><path d="M52.2,24.11l.11.15h0l-.14-.13Z"/><path d="M3.36,40.12c-.14-.11-.14-.13,0-.22h0c0,.08.1.15.05.24Z"/><path d="M61.77,9.21s-.05.11-.12,0a.06.06,0,0,1,0-.08l0,0s.12,0,.11.08Z"/><path d="M51.83,49.07l-.18.09V49h.22Z"/><path d="M4.14,50.31c.09-.09.14-.12.23,0Z"/><path d="M63.61,7.89,63.5,8c0-.07-.07-.13,0-.17l.07.1Z"/><path d="M36.29,50.41l.16.06h0l-.11.1c-.07-.1-.07-.1,0-.15Z"/><path d="M36.08,50.6l-.11.18v-.12c0-.08.09,0,.14,0Z"/><path d="M24.79,20.69c-.13,0-.12-.1-.08-.17Z"/><path d="M17.51,41.78c0-.07,0-.12.08-.12s0,.08.05.12Z"/><path d="M64.38,7.82V7.71h.1v.11Z"/><path d="M53.82,51.6v.19h0a.11.11,0,0,1,0-.08A.18.18,0,0,1,53.82,51.6Z"/><path d="M34.55,23.85V24C34.45,24,34.47,23.92,34.55,23.85Z"/><path d="M53.19,51.77c.08.1,0,.14,0,.21v-.11A.17.17,0,0,1,53.19,51.77Z"/><path d="M33.73,26.52c.12.08.12.08.06.19Z"/><path d="M33.22,53.85H33.1v-.17Z"/><path d="M45.1,67.2l-.21.12L45,67.1Z"/><path d="M2.7,41.16l.07.17a.57.57,0,0,1-.09-.08.14.14,0,0,1,0-.09Z"/><path d="M39,47h0c.1,0,.11.07.08.17Z"/><path d="M17.79,40.65l.11.16C17.79,40.81,17.78,40.76,17.79,40.65Z"/><path d="M17.69,40.65l-.07.15h-.05l.08-.15Z"/><path d="M21.69,45.87l.12-.11C21.82,45.84,21.81,45.9,21.69,45.87Z"/><path d="M37.42,24.93v-.12h0v.11h0Z"/><path d="M52.14,45.72v-.13h.06v.14Z"/><path d="M10.32,11c-.11-.08-.09-.12,0-.17Z"/><path d="M40.45,45.58c-.05-.15-.05-.15.08-.15Z"/><path d="M33.79,24.73v-.17C33.87,24.62,33.89,24.67,33.79,24.73Z"/><path d="M9.82,10.89l-.05-.11h.06a.13.13,0,0,0,.05.1Z"/><path d="M22,45.16,21.9,45C22,45,22,45.08,22,45.16Z"/><path d="M52.3,48.21l-.09.11h0l.09-.12Z"/><path d="M41.81,6.64l-.05.19h0V6.64Z"/><path d="M43.76,44.86l-.12.16C43.65,44.91,43.65,44.91,43.76,44.86Z"/><path d="M29.74,17.21a.47.47,0,0,1,.05.1h0l-.06-.1Z"/><path d="M52.45,38.53v-.19h0v.2Z"/><path d="M35.79,48.86v-.22C35.81,48.7,35.88,48.76,35.79,48.86Z"/><path d="M52.25,48.73v.15h0Z"/><path d="M27.51,53.15a.36.36,0,0,1-.07.1h0l.06-.1Z"/><path d="M17.53,39.22v.25C17.46,39.3,17.46,39.3,17.53,39.22Z"/><path d="M61.82,9l.11-.12C61.93,9,61.93,9,61.82,9Z"/><path d="M51.39,42.28c0,.08.12.13,0,.21Z"/><path d="M37.8,26l-.09-.21h.06V26Z"/><path d="M38.57,39.53l.06.17C38.52,39.69,38.52,39.69,38.57,39.53Z"/><path d="M52,39.53v.19l-.09-.17Z"/><path d="M50.77,51l-.12.09v-.19l.15.1Z"/><path d="M51,52.47v.16C50.94,52.55,50.93,52.47,51,52.47Z"/><path d="M50.74,52.29c.06.07.09.09.09.12v.06c0,.06-.06,0-.07-.07S50.72,52.34,50.74,52.29Z"/><path d="M50.52,51.92c.08.11.06.16-.07.19Z"/><path d="M50.76,51h.16l-.1.14V51Z"/><path d="M51,52h0c-.09,0-.11,0-.11-.07a.21.21,0,0,1,0-.11h0Z"/><path d="M52.68,51.71l-.12.14V51.7h.12Z"/><path d="M31.58,20.93l.15-.07v.05h-.15Z"/><path d="M52.29,39.56c.12,0,.16.07.05.17Z"/><path d="M53.15,42.73v.1h0v-.09Z"/><path d="M29.57,50.93v.22C29.43,51.08,29.57,51,29.57,50.93Z"/><path d="M39.72,23.85V24h0v-.13Z"/><path d="M53.32,50.61V50.5h0v.1Z"/><path d="M36.08,50.61v-.08h.1a.11.11,0,0,1,0,.08h-.1Z"/><path d="M54,43.31h0Z"/><path d="M35.39,22.75c.07.07.1.12,0,.19v-.08A.21.21,0,0,1,35.39,22.75Z"/><path d="M53.45,42.58l-.08-.11h0l.08.13Z"/><path d="M52.51,43.58h.15v.08l-.12-.07Z"/><path d="M38.91,24.69c.1,0,.1,0,0,.12v-.13Z"/><path d="M62.9,8.65V8.47h0v.18Z"/><path d="M18.64,39.31l.06.08h0l-.09-.07Z"/><path d="M16.79,42.31v-.09h0v.1Z"/><path d="M29,49.35h0c-.11.08-.13,0-.16-.12Z"/><path d="M61.78,9.22c-.1-.1,0-.15,0-.23h0c0,.08.06.17,0,.22Z"/><path d="M37.41,48.92l.2-.08C37.61,49,37.48,48.92,37.41,48.92Z"/><path d="M32.46,20l-.08-.17C32.51,19.91,32.51,19.91,32.46,20Z"/><path d="M47.44,44.4l-.06-.11h0l.07.12Z"/><path d="M.42,48.94H.3l.07-.16h0V49Z"/><path d="M49.29,42.09V42h0Z"/><path d="M41.77,7.13V7.3h-.05l.05-.18Z"/><path d="M12.72,41.87a.16.16,0,0,1-.14.18h0c.06-.06,0-.19.14-.19Z"/><path d="M36,21.37l.07-.15h0l-.06.16Z"/><path d="M34,25.22l.15.06C34.11,25.35,34.11,25.35,34,25.22Z"/><path d="M32.58,28.38v.13H32.5v-.13Z"/><path d="M37.2,48.56c-.1,0-.14,0-.15-.13l.14.13Z"/><path d="M53.65,48.26l.05.22C53.62,48.42,53.62,48.42,53.65,48.26Z"/><path d="M25.93,53.59V53.5h0S26,53.55,25.93,53.59Z"/><path d="M34.83,24.34v-.13h0v.12Z"/><path d="M42.5,53.82V54h0Z"/><path d="M44.28,38.37v.1h0Z"/><path d="M35.36,24.36v.12h0v-.13Z"/><path d="M43,54l.06.15h0L43,54.05Z"/><path d="M26.52,24.66h0l-.09.06v-.16Z"/><path d="M39.58,45.06c-.06,0-.13.12-.16-.05l.17.05Z"/><path d="M44.64,38.07l-.09.07V38Z"/><path d="M52.65,38.12c-.06-.06-.09-.11,0-.2Z"/><path d="M33,24.55v.1h-.06a.17.17,0,0,1,0-.1Z"/><path d="M21,20.33l.1.15-.17-.08Z"/><path d="M14.71,38.06v-.13h0Z"/><path d="M53,47.73v.11h0v-.1Z"/><path d="M18.66,26.68v-.12h0v.11Z"/><path d="M44.57,37.36h0Z"/><path d="M9.9,11.47H10c0,.09,0,.09-.14,0Z"/><path d="M45.25,64.47H45c.08-.11.15,0,.21,0Z"/><path d="M36.16,47.53v-.09h0v.1Z"/><path d="M35.76,21.34l-.06.13h0l-.08-.15h.16Z"/><path d="M38.13,40.59h0c.07,0,.15-.05.11.12Z"/><path d="M53,46a.21.21,0,0,0,0-.11c0-.08,0-.06.07-.06h0c.09.07,0,.12,0,.17Z"/><path d="M29,47.2v-.15l.13.1H29Z"/><path d="M44.7,37.06l.07-.1h0l-.07.11Z"/><path d="M29.16,46.31v-.18C29.24,46.2,29.24,46.2,29.16,46.31Z"/><path d="M39.71,46.35v-.13h0v.12Z"/><path d="M38.77,46.31a.11.11,0,0,1,0,.08h0Z"/><path d="M17.93,41.08h-.08V41h0v.11Z"/><path d="M38.44,36.9v-.24h.06v.24Z"/><path d="M8.82,12.47l.09-.13h0l0,.13Z"/><path d="M35.6,24.61l.16.13C35.65,24.78,35.62,24.75,35.6,24.61Z"/><path d="M16.82,20.22h0Z"/><path d="M52.19,24.65v.12h0v-.11Z"/><path d="M50.2,46.8v.12h0v-.06C50.2,46.8,50.18,46.83,50.2,46.8Z"/><path d="M38.73,46.05v.1h0l.1-.06Z"/><path d="M29.66,27.8l.06-.13v.14Z"/><path d="M33.89,20.13h0v.27h0Z"/><path d="M29.28,45.92h-.17v-.06h.17Z"/><path d="M2.24,12.62h.14C2.32,12.72,2.32,12.72,2.24,12.62Z"/><path d="M35.51,23.37l.06-.1h0Z"/><path d="M49.39,45.73v.13h0Z"/><path d="M53,45.86a.25.25,0,0,1,.07-.21Z"/><path d="M10.11,11.18l-.07.15c0-.09,0-.16.08-.15Z"/><path d="M20.62,28l-.07-.09h0l.09.06Z"/><path d="M21.74,20.13h-.07v-.05h0Z"/><path d="M38.29,47.83v-.1h0l.06.09Z"/><path d="M21.71,45.34v0h-.05v-.06Z"/><path d="M74.12,12.66v.1h0Z"/><path d="M39.05,45.23l.08-.08h0l-.07.09Z"/><path d="M49.93,48.07v.14h0Z"/><path d="M16,35a.36.36,0,0,1,.09.09s0,.06,0,.09h0L16,35Z"/><path d="M37.29,12.85V13h0v-.14Z"/><path d="M52.35,44.78l-.08-.1h0l.11.06Z"/><path d="M52,48.36v.12h0Z"/><path d="M20.35,27.3v.05h0Z"/><path d="M15,39.15,15,39l.13.06Z"/><path d="M37.4,48.63v0Z"/><path d="M36.84,48.89h0Z"/><path d="M37,48.85l.06.09h0L37,48.87Z"/><path d="M36.13,48.87c0,.08,0,.16-.11.05Z"/><path d="M51.83,49.07l-.1-.18h0c0,.07.05.13.07.2Z"/><path d="M35.67,49v-.09h0S35.69,49,35.67,49Z"/><path d="M35.64,24h0Z"/><path d="M40.43,44.09v0Z"/><path d="M34.16,20.4l.06.08h-.1Z"/><path d="M.75,49.77l-.05,0-.07,0H.68S.72,49.74.75,49.77Z"/><path d="M52.21,49.8v-.07h.06Z"/><path d="M54,49.88v-.12h0v.12Z"/><path d="M52.64,43.81v.12h0Z"/><path d="M47.7,43.82v-.08h.06v0Z"/><path d="M16.58,43.33v.15c-.08-.11,0-.13.05-.14Z"/><path d="M37.38,14.1l.07-.09h0l-.06.1Z"/><path d="M37.27,43.47v-.14h0Z"/><path d="M51.38,50.65v.08h0A.11.11,0,0,1,51.38,50.65Z"/><path d="M53.09,51h0Z"/><path d="M51.17,43.25v-.13h0Z"/><path d="M37.06,14.17l-.09.06h0l.08-.05Z"/><path d="M45,30.72v.18C44.86,30.83,45,30.78,45,30.72Z"/><path d="M51.17,42.89V43h0Z"/><path d="M35.67,21.47l-.07.13c0-.11,0-.11.08-.12Z"/><path d="M52.74,52.29v-.1h0Z"/><path d="M64.53,7.61l-.06-.08h0l.08.07Z"/><path d="M53.33,52.28l-.07-.07h.07Z"/><path d="M16.5,40.15v-.09h.05v.1Z"/><path d="M24.61,52.74h0Z"/><path d="M24.34,52.84V53h0Z"/><path d="M18.8,26.56l-.1-.09h0l.11.07Z"/><path d="M27.76,53.1h.15C27.91,53.26,27.81,53.1,27.76,53.1Z"/><path d="M37,16.75v-.16c.1.07.1.07,0,.15Z"/><path d="M25.63,53.57v-.13h0Z"/><path d="M31.8,17.13V17h0Z"/><path d="M42.16,41.8h0Z"/><path d="M64.78,7.07V7h0a0,0,0,0,1,0,0Z"/><path d="M31.94,28.86h.12C32,29,32,28.92,31.94,28.86Z"/><path d="M52.75,41.8l-.06-.09h0l.07.08Z"/><path d="M16.32,40.33h0Z"/><path d="M45.19,65c0-.06-.06-.13.07-.19Z"/><path d="M53.9,41.35l-.06.07h0S53.87,41.34,53.9,41.35Z"/><path d="M45,66.58l-.16.06C44.8,66.56,44.8,66.56,45,66.58Z"/><path d="M9.34,18.12v.13c-.09,0-.11-.09-.13-.18l.11.06Z"/><path d="M14.19,40.86l.08-.1h0l-.07.11Z"/><path d="M29,22.6l-.1-.13c.23.16.23.21,0,.36l.08-.25Z"/><path d="M31.67,30.38a.32.32,0,0,1-.18.35h.15c-.07.09-.13.07-.15,0a.36.36,0,0,1,.09-.3Z"/><path d="M28.9,23.54c.17.11.17.11.1.29h-.15v-.08H29l0-.24Z"/><path d="M33.4,37.13l-.15.12C33.23,37.12,33.32,37.14,33.4,37.13Z"/><path d="M25,25.88c0-.13.05-.14.19-.07h0Z"/><path d="M24.74,27.47v-.16h0Z"/><path d="M33.56,43.27,33.49,43l-.16.11V43h0v-.18l-.13.11a.13.13,0,0,1,.07-.14.13.13,0,0,1,.18,0l.19-.17.08.3.08-.33c.05.12.08.24.12.25s0,.16.08.18a.48.48,0,0,0-.41.3Z"/><path d="M33,41.67a.31.31,0,0,1,.13-.24c.16.16.17.2.07.31v-.17a.22.22,0,0,0,0,.16h.07c-.1.11-.1.11-.21-.06Z"/><path d="M33.13,42.86H33l0-.39.19.07Z"/><path d="M34.29,42.69l-.16.11c-.08-.14.06-.24,0-.37.13.06.1.18.13.26Z"/><path d="M51.68,46.47v-.09h0l.06.17h-.08Z"/><path d="M32.94,35.54v.27l-.12-.25c.17,0,.21-.29.43-.2v.25Z"/><path d="M32.69,35.61c.15.2.13.28-.12.5A1.46,1.46,0,0,1,32.69,35.61Z"/><path d="M33.94,35l.09-.11h0l-.1.1Z"/><path d="M33.77,35v.17C33.69,35.11,33.69,35.11,33.77,35Z"/><path d="M31,36.28v-.14c.08.1,0,.1,0,.13Z"/><path d="M33.55,43.33a.17.17,0,0,1-.2-.13v-.06l.17.13h0v.06Z"/><path d="M33.54,44.17c0-.08,0-.16.13-.16s0,.17-.13.15Z"/><path d="M33.17,42.88l.14.08h0l-.16.12Z"/><path d="M33.54,43.33l.13.16h-.05a1.46,1.46,0,0,1-.07-.19Z"/><path d="M45.05,32.2v.21h0v-.22Z"/><path d="M32.22,32.32v.15h0v-.16Z"/><path d="M29.36,23.7v-.05S29.38,23.68,29.36,23.7Z"/><path d="M33.89,22.07v.18h0v-.18Z"/><path d="M13.1,40c-.12,0-.1-.07,0-.14h.08Z"/><path d="M52,46.55v.24C51.89,46.67,51.89,46.67,52,46.55Z"/></g></g></g></svg>