<svg id="e3DgZzsyPKM1" xmlns="http://www.w3.org/2000/svg" xmlns:xlink="http://www.w3.org/1999/xlink" viewBox="0 0 19.72 19.72" shape-rendering="geometricPrecision" text-rendering="geometricPrecision"><style><![CDATA[#e3DgZzsyPKM5_to {animation: e3DgZzsyPKM5_to__to 1000ms linear infinite normal forwards}@keyframes e3DgZzsyPKM5_to__to { 0% {transform: translate(13.362107px,11.89614px)} 20% {transform: translate(13.362107px,11.89614px)} 50% {transform: translate(14.475955px,15.066321px)} 100% {transform: translate(14.475955px,15.066321px)}} #e3DgZzsyPKM5_ts {animation: e3DgZzsyPKM5_ts__ts 1000ms linear infinite normal forwards}@keyframes e3DgZzsyPKM5_ts__ts { 0% {transform: scale(0.68448,0.68448)} 20% {transform: scale(0.68448,0.68448)} 50% {transform: scale(0.895584,0.895584)} 100% {transform: scale(0.895584,0.895584)}} #e3DgZzsyPKM5 {animation: e3DgZzsyPKM5_c_o 1000ms linear infinite normal forwards}@keyframes e3DgZzsyPKM5_c_o { 0% {opacity: 0} 20% {opacity: 1} 50% {opacity: 1} 70% {opacity: 0} 100% {opacity: 0}} #e3DgZzsyPKM6_to {animation: e3DgZzsyPKM6_to__to 1000ms linear infinite normal forwards}@keyframes e3DgZzsyPKM6_to__to { 0% {transform: translate(8.134299px,8.001016px)} 20% {transform: translate(8.134299px,8.001016px)} 50% {transform: translate(7.533576px,3.487002px)} 100% {transform: translate(7.533576px,3.487002px)}} #e3DgZzsyPKM6_ts {animation: e3DgZzsyPKM6_ts__ts 1000ms linear infinite normal forwards}@keyframes e3DgZzsyPKM6_ts__ts { 0% {transform: scale(0.720367,0.720367)} 20% {transform: scale(0.720367,0.720367)} 50% {transform: scale(1.097797,1.097796)} 100% {transform: scale(1.097797,1.097796)}} #e3DgZzsyPKM6 {animation: e3DgZzsyPKM6_c_o 1000ms linear infinite normal forwards}@keyframes e3DgZzsyPKM6_c_o { 0% {opacity: 0} 20% {opacity: 1} 50% {opacity: 1} 70% {opacity: 0} 100% {opacity: 0}} #e3DgZzsyPKM7_to {animation: e3DgZzsyPKM7_to__to 1000ms linear infinite normal forwards}@keyframes e3DgZzsyPKM7_to__to { 0% {transform: translate(5.932604px,12.764166px)} 20% {transform: translate(5.932604px,12.764166px)} 50% {transform: translate(3.587662px,15.934347px)} 100% {transform: translate(3.587662px,15.934347px)}} #e3DgZzsyPKM7_ts {animation: e3DgZzsyPKM7_ts__ts 1000ms linear infinite normal forwards}@keyframes e3DgZzsyPKM7_ts__ts { 0% {transform: scale(0.687951,0.687951)} 20% {transform: scale(0.687951,0.687951)} 50% {transform: scale(0.897993,0.897993)} 100% {transform: scale(0.897993,0.897993)}} #e3DgZzsyPKM7 {animation: e3DgZzsyPKM7_c_o 1000ms linear infinite normal forwards}@keyframes e3DgZzsyPKM7_c_o { 0% {opacity: 0} 20% {opacity: 1} 50% {opacity: 1} 70% {opacity: 0} 100% {opacity: 0}}]]></style><g id="e3DgZzsyPKM2"><g id="e3DgZzsyPKM3"><g id="e3DgZzsyPKM4"><g id="e3DgZzsyPKM5_to" transform="translate(13.362107,11.89614)"><g id="e3DgZzsyPKM5_ts" transform="scale(0.68448,0.68448)"><path id="e3DgZzsyPKM5" d="M19.12,9C19.12,9,17.32,6,15,7.6C15,7.6,13.46,5.48,12,8.05C12,8.05,9.24,7.05,9.5,9.66C9.76,12.27,12.08,11.08,12.08,11.08C11.610391,11.821695,11.67934,12.782923,12.25,13.45C13.25,14.45,15.18,12.45,15.18,12.45C15.18,12.45,15.26,14.25,17.24,12.96C19.22,11.67,17.58,11.11,17.58,11.11C17.58,11.11,21.1,11.47,19.12,9Z" transform="translate(-14.603483,-10.254093)" opacity="0" fill="white" stroke="none" stroke-width="1"/></g></g><g id="e3DgZzsyPKM6_to" transform="translate(8.134299,8.001016)"><g id="e3DgZzsyPKM6_ts" transform="scale(0.720367,0.720367)"><path id="e3DgZzsyPKM6" d="M4.56,3.53C4.56,3.53,6,5.25,7.25,4C7.25,4,8.41,5.18,9.09,3.45C9.09,3.45,10.89,3.8,10.5,2.21C10.11,0.62,8.76,1.56,8.76,1.56C8.988462,1.062566,8.857637,0.473856,8.44,0.12C7.7,-0.43,6.71,1,6.71,1C6.71,1,6.49,-0.09,5.38,0.9C4.27,1.89,5.38,2.08,5.38,2.08C5.38,2.08,3.1,2.16,4.56,3.53Z" transform="translate(-7.313563,-2.224713)" opacity="0" fill="white" stroke="none" stroke-width="1"/></g></g><g id="e3DgZzsyPKM7_to" transform="translate(5.932604,12.764166)"><g id="e3DgZzsyPKM7_ts" transform="scale(0.687951,0.687951)"><path id="e3DgZzsyPKM7" d="M0.49,13.79C0.49,13.79,1.89,15.5,3.19,14.28C3.19,14.28,4.35,15.46,5.03,13.73C5.03,13.73,6.83,14.08,6.44,12.49C6.05,10.9,4.7,11.84,4.7,11.84C4.93883,11.337312,4.807191,10.736711,4.38,10.38C3.64,9.83,2.65,11.29,2.65,11.29C2.65,11.29,2.43,10.17,1.32,11.15C0.21,12.13,1.27,12.34,1.27,12.34C1.27,12.34,-1,12.41,0.49,13.79Z" transform="translate(-3.239271,-12.487569)" opacity="0" fill="white" stroke="none" stroke-width="1"/></g></g></g></g></g></svg>