<svg id="eR9Qaz13lLN1" xmlns="http://www.w3.org/2000/svg" xmlns:xlink="http://www.w3.org/1999/xlink" viewBox="0 0 23.75 23.75" shape-rendering="geometricPrecision" text-rendering="geometricPrecision"><style><![CDATA[#eR9Qaz13lLN5_to {animation: eR9Qaz13lLN5_to__to 1000ms linear infinite normal forwards}@keyframes eR9Qaz13lLN5_to__to { 0% {transform: translate(12.065268px,11.645171px)} 30% {transform: translate(16.242431px,5.639425px)} 100% {transform: translate(16.242431px,5.639425px)}} #eR9Qaz13lLN5_tr {animation: eR9Qaz13lLN5_tr__tr 1000ms linear infinite normal forwards}@keyframes eR9Qaz13lLN5_tr__tr { 0% {transform: rotate(0deg)} 30% {transform: rotate(33.959272deg)} 100% {transform: rotate(33.959272deg)}} #eR9Qaz13lLN5 {animation: eR9Qaz13lLN5_c_o 1000ms linear infinite normal forwards}@keyframes eR9Qaz13lLN5_c_o { 0% {opacity: 1} 27% {opacity: 1} 46% {opacity: 0} 100% {opacity: 0}} #eR9Qaz13lLN6_to {animation: eR9Qaz13lLN6_to__to 1000ms linear infinite normal forwards}@keyframes eR9Qaz13lLN6_to__to { 0% {transform: translate(10.829117px,12.824413px)} 30% {transform: translate(5.777923px,16.251966px)} 100% {transform: translate(5.777923px,16.251966px)}} #eR9Qaz13lLN6_tr {animation: eR9Qaz13lLN6_tr__tr 1000ms linear infinite normal forwards}@keyframes eR9Qaz13lLN6_tr__tr { 0% {transform: rotate(0deg)} 30% {transform: rotate(-36.218873deg)} 100% {transform: rotate(-36.218873deg)}} #eR9Qaz13lLN6 {animation: eR9Qaz13lLN6_c_o 1000ms linear infinite normal forwards}@keyframes eR9Qaz13lLN6_c_o { 0% {opacity: 1} 27% {opacity: 1} 46% {opacity: 0} 100% {opacity: 0}} #eR9Qaz13lLN7_to {animation: eR9Qaz13lLN7_to__to 1000ms linear infinite normal forwards}@keyframes eR9Qaz13lLN7_to__to { 0% {transform: translate(10.867634px,11.645171px)} 30% {transform: translate(7.190686px,7.704906px)} 100% {transform: translate(7.190686px,7.704906px)}} #eR9Qaz13lLN7_tr {animation: eR9Qaz13lLN7_tr__tr 1000ms linear infinite normal forwards}@keyframes eR9Qaz13lLN7_tr__tr { 0% {transform: rotate(0deg)} 30% {transform: rotate(-33.095863deg)} 100% {transform: rotate(-33.095863deg)}} #eR9Qaz13lLN7 {animation: eR9Qaz13lLN7_c_o 1000ms linear infinite normal forwards}@keyframes eR9Qaz13lLN7_c_o { 0% {opacity: 1} 27% {opacity: 1} 46% {opacity: 0} 100% {opacity: 0}} #eR9Qaz13lLN8_to {animation: eR9Qaz13lLN8_to__to 1000ms linear infinite normal forwards}@keyframes eR9Qaz13lLN8_to__to { 0% {transform: translate(12.62884px,12.824413px)} 30% {transform: translate(18.179554px,15.471418px)} 100% {transform: translate(18.179554px,15.471418px)}} #eR9Qaz13lLN8_tr {animation: eR9Qaz13lLN8_tr__tr 1000ms linear infinite normal forwards}@keyframes eR9Qaz13lLN8_tr__tr { 0% {transform: rotate(0deg)} 30% {transform: rotate(34.893211deg)} 100% {transform: rotate(34.893211deg)}} #eR9Qaz13lLN8 {animation: eR9Qaz13lLN8_c_o 1000ms linear infinite normal forwards}@keyframes eR9Qaz13lLN8_c_o { 0% {opacity: 1} 27% {opacity: 1} 46% {opacity: 0} 100% {opacity: 0}}]]></style><g id="eR9Qaz13lLN2"><g id="eR9Qaz13lLN3"><g id="eR9Qaz13lLN4"><g id="eR9Qaz13lLN5_to" transform="translate(12.065268,11.645171)"><g id="eR9Qaz13lLN5_tr" transform="rotate(0)"><path id="eR9Qaz13lLN5" d="M16.51,5.7C16.51,5.7,16.36,-0.15,20.26,0C20.735857,0.024461,21.173592,0.267817,21.445524,0.659086C21.717456,1.050355,21.792955,1.545465,21.65,2C21.3,3.85,17.49,2.42,16.51,5.7Z" transform="translate(-16.51,-5.699989)" fill="white" stroke="none" stroke-width="1" stroke-miterlimit="1"/></g></g><g id="eR9Qaz13lLN6_to" transform="translate(10.829117,12.824413)"><g id="eR9Qaz13lLN6_tr" transform="rotate(0)"><path id="eR9Qaz13lLN6" d="M6.74,11.76C6.74,11.76,1.34,9.5,0.07,13.19C-0.075656,13.636712,-0.007982,14.125578,0.253549,14.515922C0.51508,14.906267,0.941462,15.154798,1.41,15.19C3.28,15.55,3.32,11.49,6.74,11.76Z" transform="translate(-6.739998,-11.544562)" fill="white" stroke="none" stroke-width="1" stroke-miterlimit="1"/></g></g><g id="eR9Qaz13lLN7_to" transform="translate(10.867634,11.645171)"><g id="eR9Qaz13lLN7_tr" transform="rotate(0)"><path id="eR9Qaz13lLN7" d="M10,7.36C10,7.36,9.17,4.28,7.16,5C6.917468,5.089177,6.728674,5.28384,6.646958,5.528986C6.565243,5.774132,6.599481,6.043139,6.74,6.26C7.22,7.15,9,5.8,10,7.36Z" transform="translate(-10.038517,-7.359994)" fill="white" stroke="none" stroke-width="1" stroke-miterlimit="1"/></g></g><g id="eR9Qaz13lLN8_to" transform="translate(12.62884,12.824413)"><g id="eR9Qaz13lLN8_tr" transform="rotate(0)"><path id="eR9Qaz13lLN8" d="M17.85,12.82C17.85,12.82,23.68,12.34,23.75,16.24C23.754778,16.713646,23.539909,17.162796,23.168134,17.456303C22.796358,17.749809,22.309604,17.854572,21.85,17.74C20,17.49,21.18,13.61,17.85,12.82Z" transform="translate(-17.849993,-12.802527)" fill="white" stroke="none" stroke-width="1" stroke-miterlimit="1"/></g></g></g></g></g></svg>