<?xml version="1.0" encoding="utf-8"?>
<!-- Generator: Adobe Illustrator 24.1.0, SVG Export Plug-In . SVG Version: 6.00 Build 0)  -->
<svg version="1.1" id="Layer_1" xmlns="http://www.w3.org/2000/svg" xmlns:xlink="http://www.w3.org/1999/xlink" x="0px" y="0px"
	 viewBox="0 0 1000 1000" style="enable-background:new 0 0 1000 1000;" xml:space="preserve">
<path d="M500.2,13.1c268.9,0,487,218.1,486.7,486.8C986.7,769,769,986.7,500,986.6C231.2,986.5,12.9,768,13.5,499.5
	C14.1,230.4,231.5,13.2,500.2,13.1z M912.5,499.7C912.2,272,727.6,87.5,500.1,87.6C272.6,87.7,87.8,272.6,87.9,500
	c0.2,227.6,185,412.3,412.4,412.2C727.9,912,912.8,727,912.5,499.7z"/>
<path d="M580,425.2c0,2.7,0,4.9,0,7c0,99.7,0,199.4,0,299.1c0,3.1,0.2,6.3,0.6,9.4c1.2,8.2,5.9,13.9,13.8,16.1
	c7.1,2,14.6,3.4,22,3.8c10.9,0.6,21.9,0.2,33.2,0.2c0,13.4,0,25.6,0,38.3c-97,0-194.1,0-291.6,0c0-12.2,0-24.6,0-38
	c5.7,0,11.3,0.1,16.9,0c9.8-0.2,19.7,0.2,29.4-0.9c19.2-2.2,26.7-10.9,27-30.4c0.2-9.2,0-18.3,0-27.5c0-64.6-0.3-129.2,0.2-193.7
	c0.2-21.9-4.9-34.9-35.8-37.6c-13.2-1.1-26.6-0.2-39.9-0.2c-1.5,0-3,0-4.8,0c0-12.4,0-24.6,0-37.4C427,430.7,503.1,427.9,580,425.2z
	"/>
<path d="M491.2,200.3c46.4,0.2,83.9,38,83.8,84.4c-0.1,46.3-38.2,84.1-84.5,83.9c-46.3-0.2-84-38.3-83.8-84.5
	C406.9,237.8,444.8,200.2,491.2,200.3z"/>
</svg>
