<svg xmlns="http://www.w3.org/2000/svg" viewBox="0 0 169.57 134.68"><defs><style>.cls-1{fill:#fff;}</style></defs><g id="Layer_2" data-name="Layer 2"><g id="Layer_1-2" data-name="Layer 1"><path class="cls-1" d="M90.4.29,89.61,0H87.43a10.48,10.48,0,0,0-4.07,2.44q-19.48,17.25-39,34.45a1.89,1.89,0,0,1-1.38.52H6.5A6.2,6.2,0,0,0,0,43.91V90.73a6.2,6.2,0,0,0,6.51,6.5q18.23,0,36.46,0a2,2,0,0,1,1.39.53q11.49,10.17,23,20.32,8.49,7.5,17,15a6.22,6.22,0,0,0,10.36-4.61q0-61.12,0-122.23A6.16,6.16,0,0,0,90.4.29Z"/><path class="cls-1" d="M167.66,40.74a9.9,9.9,0,0,0,1.91-3.5V35.06a1.74,1.74,0,0,1-.15-.26,6,6,0,0,0-4.66-4.7,6,6,0,0,0-6.39,2.25l-15.85,19-4.11,4.92c-.19-.21-.33-.36-.46-.52Q131.4,47.91,124.83,40l-6.38-7.66A6.06,6.06,0,0,0,112.39,30a6.21,6.21,0,0,0-3.61,10.25q10.48,12.61,21,25.18a.78.78,0,0,1,0,1.23c-1.87,2.19-3.7,4.42-5.55,6.63Q116.46,82.64,108.68,92a6.23,6.23,0,0,0,1.74,9.45c2.78,1.54,5.94.84,8.13-1.79L138,76.36c.14-.17.3-.32.48-.5L152.69,93c1.93,2.31,3.83,4.64,5.79,6.93a6.17,6.17,0,0,0,9.68,0,15.07,15.07,0,0,0,1.41-2.81V94.9a11.58,11.58,0,0,0-2.71-4.46c-6.62-7.9-13.2-15.83-19.82-23.73a.82.82,0,0,1,0-1.29Q157.36,53.09,167.66,40.74Z"/></g></g></svg>